<svg width="52" height="44" viewBox="0 0 52 44" fill="none" xmlns="http://www.w3.org/2000/svg">
<path d="M4.06641 37.1445H1.89258L1.88086 36.0723H3.7793C4.09961 36.0723 4.37109 36.0254 4.59375 35.9316C4.82031 35.834 4.99219 35.6953 5.10938 35.5156C5.22656 35.332 5.28516 35.1113 5.28516 34.8535C5.28516 34.5684 5.23047 34.3359 5.12109 34.1562C5.01172 33.9766 4.84375 33.8457 4.61719 33.7637C4.39453 33.6816 4.10938 33.6406 3.76172 33.6406H2.33789V41H0.867188V32.4688H3.76172C4.23047 32.4688 4.64844 32.5137 5.01562 32.6035C5.38672 32.6934 5.70117 32.834 5.95898 33.0254C6.2207 33.2129 6.41797 33.4512 6.55078 33.7402C6.6875 34.0293 6.75586 34.373 6.75586 34.7715C6.75586 35.123 6.67188 35.4453 6.50391 35.7383C6.33594 36.0273 6.08789 36.2637 5.75977 36.4473C5.43164 36.6309 5.02344 36.7402 4.53516 36.7754L4.06641 37.1445ZM4.00195 41H1.42969L2.0918 39.834H4.00195C4.33398 39.834 4.61133 39.7793 4.83398 39.6699C5.05664 39.5566 5.22266 39.4023 5.33203 39.207C5.44531 39.0078 5.50195 38.7754 5.50195 38.5098C5.50195 38.2324 5.45312 37.9922 5.35547 37.7891C5.25781 37.582 5.10352 37.4238 4.89258 37.3145C4.68164 37.2012 4.40625 37.1445 4.06641 37.1445H2.41406L2.42578 36.0723H4.57617L4.91016 36.4766C5.37891 36.4922 5.76367 36.5957 6.06445 36.7871C6.36914 36.9785 6.5957 37.2266 6.74414 37.5312C6.89258 37.8359 6.9668 38.1641 6.9668 38.5156C6.9668 39.0586 6.84766 39.5137 6.60938 39.8809C6.375 40.248 6.03711 40.5273 5.5957 40.7188C5.1543 40.9062 4.62305 41 4.00195 41ZM11.8828 39.7285V36.7051C11.8828 36.4785 11.8418 36.2832 11.7598 36.1191C11.6777 35.9551 11.5527 35.8281 11.3848 35.7383C11.2207 35.6484 11.0137 35.6035 10.7637 35.6035C10.5332 35.6035 10.334 35.6426 10.166 35.7207C9.99805 35.7988 9.86719 35.9043 9.77344 36.0371C9.67969 36.1699 9.63281 36.3203 9.63281 36.4883H8.22656C8.22656 36.2383 8.28711 35.9961 8.4082 35.7617C8.5293 35.5273 8.70508 35.3184 8.93555 35.1348C9.16602 34.9512 9.44141 34.8066 9.76172 34.7012C10.082 34.5957 10.4414 34.543 10.8398 34.543C11.3164 34.543 11.7383 34.623 12.1055 34.7832C12.4766 34.9434 12.7676 35.1855 12.9785 35.5098C13.1934 35.8301 13.3008 36.2324 13.3008 36.7168V39.5352C13.3008 39.8242 13.3203 40.084 13.3594 40.3145C13.4023 40.541 13.4629 40.7383 13.541 40.9062V41H12.0938C12.0273 40.8477 11.9746 40.6543 11.9355 40.4199C11.9004 40.1816 11.8828 39.9512 11.8828 39.7285ZM12.0879 37.1445L12.0996 38.0176H11.0859C10.8242 38.0176 10.5938 38.043 10.3945 38.0938C10.1953 38.1406 10.0293 38.2109 9.89648 38.3047C9.76367 38.3984 9.66406 38.5117 9.59766 38.6445C9.53125 38.7773 9.49805 38.9277 9.49805 39.0957C9.49805 39.2637 9.53711 39.418 9.61523 39.5586C9.69336 39.6953 9.80664 39.8027 9.95508 39.8809C10.1074 39.959 10.291 39.998 10.5059 39.998C10.7949 39.998 11.0469 39.9395 11.2617 39.8223C11.4805 39.7012 11.6523 39.5547 11.7773 39.3828C11.9023 39.207 11.9688 39.041 11.9766 38.8848L12.4336 39.5117C12.3867 39.6719 12.3066 39.8438 12.1934 40.0273C12.0801 40.2109 11.9316 40.3867 11.748 40.5547C11.5684 40.7188 11.3516 40.8535 11.0977 40.959C10.8477 41.0645 10.5586 41.1172 10.2305 41.1172C9.81641 41.1172 9.44727 41.0352 9.12305 40.8711C8.79883 40.7031 8.54492 40.4785 8.36133 40.1973C8.17773 39.9121 8.08594 39.5898 8.08594 39.2305C8.08594 38.8945 8.14844 38.5977 8.27344 38.3398C8.40234 38.0781 8.58984 37.8594 8.83594 37.6836C9.08594 37.5078 9.39062 37.375 9.75 37.2852C10.1094 37.1914 10.5195 37.1445 10.9805 37.1445H12.0879ZM17.3672 39.9922C17.5977 39.9922 17.8047 39.9473 17.9883 39.8574C18.1758 39.7637 18.3262 39.6348 18.4395 39.4707C18.5566 39.3066 18.6211 39.1172 18.6328 38.9023H19.9629C19.9551 39.3125 19.834 39.6855 19.5996 40.0215C19.3652 40.3574 19.0547 40.625 18.668 40.8242C18.2812 41.0195 17.8535 41.1172 17.3848 41.1172C16.9004 41.1172 16.4785 41.0352 16.1191 40.8711C15.7598 40.7031 15.4609 40.4727 15.2227 40.1797C14.9844 39.8867 14.8047 39.5488 14.6836 39.166C14.5664 38.7832 14.5078 38.373 14.5078 37.9355V37.7305C14.5078 37.293 14.5664 36.8828 14.6836 36.5C14.8047 36.1133 14.9844 35.7734 15.2227 35.4805C15.4609 35.1875 15.7598 34.959 16.1191 34.7949C16.4785 34.627 16.8984 34.543 17.3789 34.543C17.8867 34.543 18.332 34.6445 18.7148 34.8477C19.0977 35.0469 19.3984 35.3262 19.6172 35.6855C19.8398 36.041 19.9551 36.4551 19.9629 36.9277H18.6328C18.6211 36.6934 18.5625 36.4824 18.457 36.2949C18.3555 36.1035 18.2109 35.9512 18.0234 35.8379C17.8398 35.7246 17.6191 35.668 17.3613 35.668C17.0762 35.668 16.8398 35.7266 16.6523 35.8438C16.4648 35.957 16.3184 36.1133 16.2129 36.3125C16.1074 36.5078 16.0312 36.7285 15.9844 36.9746C15.9414 37.2168 15.9199 37.4688 15.9199 37.7305V37.9355C15.9199 38.1973 15.9414 38.4512 15.9844 38.6973C16.0273 38.9434 16.1016 39.1641 16.207 39.3594C16.3164 39.5508 16.4648 39.7051 16.6523 39.8223C16.8398 39.9355 17.0781 39.9922 17.3672 39.9922ZM22.4707 32V41H21.0527V32H22.4707ZM26.4082 34.6602L23.6484 37.7188L22.1367 39.2656L21.7676 38.0703L22.9102 36.6582L24.7031 34.6602H26.4082ZM25.0078 41L22.9512 38.0234L23.8418 37.0332L26.6426 41H25.0078ZM28.8164 32V41H27.3984V32H28.8164ZM31.875 34.6602V41H30.457V34.6602H31.875ZM30.3633 32.9961C30.3633 32.7812 30.4336 32.6035 30.5742 32.4629C30.7188 32.3184 30.918 32.2461 31.1719 32.2461C31.4219 32.2461 31.6191 32.3184 31.7637 32.4629C31.9082 32.6035 31.9805 32.7812 31.9805 32.9961C31.9805 33.207 31.9082 33.3828 31.7637 33.5234C31.6191 33.6641 31.4219 33.7344 31.1719 33.7344C30.918 33.7344 30.7188 33.6641 30.5742 33.5234C30.4336 33.3828 30.3633 33.207 30.3633 32.9961ZM34.8223 36.0137V41H33.4102V34.6602H34.7402L34.8223 36.0137ZM34.5703 37.5957L34.1133 37.5898C34.1172 37.1406 34.1797 36.7285 34.3008 36.3535C34.4258 35.9785 34.5977 35.6562 34.8164 35.3867C35.0391 35.1172 35.3047 34.9102 35.6133 34.7656C35.9219 34.6172 36.2656 34.543 36.6445 34.543C36.9492 34.543 37.2246 34.5859 37.4707 34.6719C37.7207 34.7539 37.9336 34.8887 38.1094 35.0762C38.2891 35.2637 38.4258 35.5078 38.5195 35.8086C38.6133 36.1055 38.6602 36.4707 38.6602 36.9043V41H37.2422V36.8984C37.2422 36.5938 37.1973 36.3535 37.1074 36.1777C37.0215 35.998 36.8945 35.8711 36.7266 35.7969C36.5625 35.7188 36.3574 35.6797 36.1113 35.6797C35.8691 35.6797 35.6523 35.7305 35.4609 35.832C35.2695 35.9336 35.1074 36.0723 34.9746 36.248C34.8457 36.4238 34.7461 36.627 34.6758 36.8574C34.6055 37.0879 34.5703 37.334 34.5703 37.5957ZM41.5254 32V41H40.1074V32H41.5254ZM45.4629 34.6602L42.7031 37.7188L41.1914 39.2656L40.8223 38.0703L41.9648 36.6582L43.7578 34.6602H45.4629ZM44.0625 41L42.0059 38.0234L42.8965 37.0332L45.6973 41H44.0625ZM49.916 39.2832C49.916 39.1426 49.8809 39.0156 49.8105 38.9023C49.7402 38.7852 49.6055 38.6797 49.4062 38.5859C49.2109 38.4922 48.9219 38.4062 48.5391 38.3281C48.2031 38.2539 47.8945 38.166 47.6133 38.0645C47.3359 37.959 47.0977 37.832 46.8984 37.6836C46.6992 37.5352 46.5449 37.3594 46.4355 37.1562C46.3262 36.9531 46.2715 36.7188 46.2715 36.4531C46.2715 36.1953 46.3281 35.9512 46.4414 35.7207C46.5547 35.4902 46.7168 35.2871 46.9277 35.1113C47.1387 34.9355 47.3945 34.7969 47.6953 34.6953C48 34.5938 48.3398 34.543 48.7148 34.543C49.2461 34.543 49.7012 34.6328 50.0801 34.8125C50.4629 34.9883 50.7559 35.2285 50.959 35.5332C51.1621 35.834 51.2637 36.1738 51.2637 36.5527H49.8516C49.8516 36.3848 49.8086 36.2285 49.7227 36.084C49.6406 35.9355 49.5156 35.8164 49.3477 35.7266C49.1797 35.6328 48.9688 35.5859 48.7148 35.5859C48.4727 35.5859 48.2715 35.625 48.1113 35.7031C47.9551 35.7773 47.8379 35.875 47.7598 35.9961C47.6855 36.1172 47.6484 36.25 47.6484 36.3945C47.6484 36.5 47.668 36.5957 47.707 36.6816C47.75 36.7637 47.8203 36.8398 47.918 36.9102C48.0156 36.9766 48.1484 37.0391 48.3164 37.0977C48.4883 37.1562 48.7031 37.2129 48.9609 37.2676C49.4453 37.3691 49.8613 37.5 50.209 37.6602C50.5605 37.8164 50.8301 38.0195 51.0176 38.2695C51.2051 38.5156 51.2988 38.8281 51.2988 39.207C51.2988 39.4883 51.2383 39.7461 51.1172 39.9805C51 40.2109 50.8281 40.4121 50.6016 40.584C50.375 40.752 50.1035 40.8828 49.7871 40.9766C49.4746 41.0703 49.123 41.1172 48.7324 41.1172C48.1582 41.1172 47.6719 41.0156 47.2734 40.8125C46.875 40.6055 46.5723 40.3418 46.3652 40.0215C46.1621 39.6973 46.0605 39.3613 46.0605 39.0137H47.4258C47.4414 39.2754 47.5137 39.4844 47.6426 39.6406C47.7754 39.793 47.9395 39.9043 48.1348 39.9746C48.334 40.041 48.5391 40.0742 48.75 40.0742C49.0039 40.0742 49.2168 40.041 49.3887 39.9746C49.5605 39.9043 49.6914 39.8105 49.7812 39.6934C49.8711 39.5723 49.916 39.4355 49.916 39.2832Z" fill="#00235B"/>
<path d="M33.9477 0H20.0814C19.6728 0 19.2809 0.162323 18.992 0.45126C18.703 0.740197 18.5407 1.13208 18.5407 1.5407V4.62209H17V6.16279H18.5407V10.0145H17V11.5552H18.5407V15.407H17V16.9477H18.5407V20.0291C18.5407 20.4377 18.703 20.8296 18.992 21.1185C19.2809 21.4074 19.6728 21.5698 20.0814 21.5698H33.9477C34.3563 21.5698 34.7482 21.4074 35.0371 21.1185C35.326 20.8296 35.4884 20.4377 35.4884 20.0291V1.5407C35.4884 1.13208 35.326 0.740197 35.0371 0.45126C34.7482 0.162323 34.3563 0 33.9477 0ZM33.9477 20.0291H20.0814V16.9477H21.6221V15.407H20.0814V11.5552H21.6221V10.0145H20.0814V6.16279H21.6221V4.62209H20.0814V1.5407H33.9477V20.0291Z" fill="#00235B"/>
<path d="M24.7031 4.625H30.8659V6.1657H24.7031V4.625ZM24.7031 10.0174H30.8659V11.5581H24.7031V10.0174ZM24.7031 15.4099H30.8659V16.9506H24.7031V15.4099Z" fill="#00235B"/>
</svg>
