<svg width="52" height="47" viewBox="0 0 52 47" fill="none" xmlns="http://www.w3.org/2000/svg">
<g clip-path="url(#clip0_82_7580)">
<path d="M34.7341 14.7568C34.7341 14.7567 34.7339 14.7565 34.7339 14.7565C34.7062 14.7115 34.663 14.6758 34.6092 14.6583C34.609 14.6583 34.6089 14.6582 34.6087 14.6581C34.6081 14.6579 34.6075 14.6577 34.6069 14.6575C34.6021 14.656 34.5972 14.6546 34.5923 14.6534C34.5402 14.6407 34.4877 14.6467 34.442 14.6675C34.4254 14.675 34.4097 14.6845 34.3952 14.6958C34.3761 14.7108 34.3592 14.7288 34.3455 14.7494C32.6914 17.1061 30.1127 18.5699 27.6144 18.5699C26.0381 18.5699 24.5631 17.9288 23.3358 16.7132L24.316 15.7331C24.3768 15.6722 24.3988 15.5827 24.3729 15.5006C24.347 15.4185 24.2777 15.3576 24.1929 15.3427L24.1045 15.3271L25.0864 14.3488C25.1482 14.2872 25.17 14.196 25.1427 14.1131C25.1154 14.0301 25.0435 13.9698 24.9572 13.9571L17.2489 12.8211C17.168 12.809 17.0863 12.8412 17.035 12.9052L16.1264 14.0412C16.1259 14.0418 16.1256 14.0426 16.1251 14.0432C16.1169 14.0537 16.1098 14.0649 16.1035 14.0765C16.1024 14.0786 16.1012 14.0806 16.1001 14.0827C16.0944 14.0943 16.0898 14.1063 16.0861 14.1186C16.0852 14.1215 16.0844 14.1244 16.0836 14.1274C16.0804 14.1398 16.0779 14.1525 16.0768 14.1653C16.0767 14.1669 16.0768 14.1685 16.0767 14.1701C16.0758 14.1821 16.0761 14.1942 16.0772 14.2064C16.0775 14.2087 16.0775 14.211 16.0778 14.2133C16.078 14.2148 16.078 14.2164 16.0782 14.218L17.2321 22.2949C17.2444 22.3815 17.3046 22.4536 17.3875 22.4812C17.4705 22.5088 17.5618 22.4872 17.6237 22.4254L19.2909 20.7583C21.509 23.3922 23.7288 24.5699 26.4605 24.5699C31.1967 24.5699 34.7682 20.9984 34.7682 16.2622V14.8827C34.7688 14.8541 34.7641 14.826 34.7547 14.7997C34.7493 14.7847 34.7424 14.7703 34.7341 14.7568ZM34.3067 16.2622C34.3067 20.7352 30.9336 24.1084 26.4605 24.1084C23.8131 24.1084 21.6618 22.9245 19.4851 20.2698C19.4438 20.2194 19.3831 20.1888 19.318 20.1856C19.3142 20.1854 19.3104 20.1853 19.3067 20.1853C19.2456 20.1853 19.1868 20.2095 19.1435 20.2529L17.6237 21.7727L16.5801 14.4679L23.583 15.7035L23.5832 15.7035L23.5871 15.7042L23.6763 15.72L22.8482 16.5481C22.8479 16.5484 22.8477 16.5487 22.8474 16.5489L21.6819 17.7144C21.6382 17.7581 21.6139 17.8173 21.6143 17.879C21.6147 17.9407 21.6397 17.9996 21.6838 18.0427C23.4967 19.8137 25.2343 20.6412 27.1521 20.6469C27.1614 20.6469 27.1706 20.6469 27.1799 20.6469C28.9925 20.6469 30.6505 20.1139 31.9762 19.1046C32.9661 18.351 33.758 17.3434 34.3067 16.1494V16.2622Z" fill="white"/>
<path d="M19.5381 10.2621C20.1702 10.2621 20.6878 9.77954 20.7165 9.16373C20.7318 8.84509 20.6192 8.54267 20.3996 8.31225C20.1796 8.08148 19.8829 7.95438 19.5641 7.95438H16.3541C14.955 7.95438 13.7955 6.83775 13.7694 5.46519C13.7563 4.77854 14.0145 4.13002 14.4963 3.639C14.9782 3.14798 15.6214 2.87752 16.3073 2.87752H27.8458C28.3547 2.87752 28.7689 3.29163 28.7689 3.80059V4.03136C28.7689 4.66759 29.2865 5.18521 29.9227 5.18521C30.2306 5.18521 30.5204 5.06538 30.7392 4.84736C30.9568 4.62911 31.0766 4.33932 31.0766 4.03136V3.56982C31.0766 1.91561 29.7308 0.569824 28.0766 0.569824H16.3662C13.6874 0.569824 11.487 2.72232 11.4612 5.36815C11.4486 6.66986 11.9473 7.89721 12.8653 8.82421C13.7836 9.7515 15.006 10.2621 16.3073 10.2621H19.5381Z" fill="white"/>
<path d="M29.6897 5.86501C29.6661 6.34483 29.4457 6.78895 29.0849 7.0833C28.9862 7.16383 28.9714 7.30922 29.052 7.40799C29.0976 7.46389 29.164 7.49285 29.2309 7.49285C29.2822 7.49285 29.3339 7.47583 29.3767 7.44087C29.8386 7.06397 30.1207 6.49783 30.1507 5.88762C30.157 5.76035 30.0589 5.65207 29.9316 5.64583C29.8045 5.63908 29.696 5.73768 29.6897 5.86501Z" fill="white"/>
<path d="M39.1331 2.00769C38.2148 1.08046 36.9924 0.569824 35.6911 0.569824H32.4603C31.8282 0.569824 31.3106 1.05242 31.2819 1.66823C31.2666 1.98686 31.3792 2.28929 31.5989 2.51971C31.8189 2.75048 32.1156 2.87757 32.4344 2.87757H35.6444C37.0434 2.87757 38.2029 3.99421 38.229 5.36677C38.2421 6.05342 37.9839 6.70194 37.5021 7.19296C37.0203 7.68398 36.3771 7.95444 35.6911 7.95444H24.1526C23.6437 7.95444 23.2296 7.54032 23.2296 7.03136V6.80059C23.2296 6.16436 22.712 5.64675 22.0757 5.64675C21.7678 5.64675 21.478 5.76657 21.2592 5.98459C21.0416 6.20284 20.9219 6.49263 20.9219 6.80059V7.26213C20.9219 8.91634 22.2677 10.2621 23.9219 10.2621H35.6323C38.311 10.2621 40.5114 8.10963 40.5373 5.46381C40.5498 4.16209 40.0511 2.93469 39.1331 2.00769Z" fill="white"/>
<path d="M22.622 3.39111C22.1601 3.76802 21.878 4.33415 21.8479 4.94436C21.8417 5.07163 21.9398 5.17992 22.0671 5.18615C22.071 5.18632 22.0748 5.18644 22.0786 5.18644C22.2009 5.18644 22.3029 5.09044 22.309 4.96698C22.3326 4.48715 22.553 4.04303 22.9138 3.74869C23.0125 3.66815 23.0273 3.52277 22.9467 3.424C22.8661 3.32523 22.7208 3.31052 22.622 3.39111Z" fill="white"/>
</g>
<path d="M4.03125 39.5796H1.86914L1.85742 38.6714H3.82031C4.14453 38.6714 4.42773 38.6167 4.66992 38.5073C4.91211 38.3979 5.09961 38.2417 5.23242 38.0386C5.36914 37.8315 5.4375 37.5854 5.4375 37.3003C5.4375 36.9878 5.37695 36.7339 5.25586 36.5386C5.13867 36.3394 4.95703 36.1948 4.71094 36.105C4.46875 36.0112 4.16016 35.9644 3.78516 35.9644H2.12109V43.5698H0.990234V35.0386H3.78516C4.22266 35.0386 4.61328 35.0835 4.95703 35.1733C5.30078 35.2593 5.5918 35.396 5.83008 35.5835C6.07227 35.7671 6.25586 36.0015 6.38086 36.2866C6.50586 36.5718 6.56836 36.9136 6.56836 37.312C6.56836 37.6636 6.47852 37.9819 6.29883 38.2671C6.11914 38.5483 5.86914 38.7788 5.54883 38.9585C5.23242 39.1382 4.86133 39.2534 4.43555 39.3042L4.03125 39.5796ZM3.97852 43.5698H1.42383L2.0625 42.6499H3.97852C4.33789 42.6499 4.64258 42.5874 4.89258 42.4624C5.14648 42.3374 5.33984 42.1616 5.47266 41.9351C5.60547 41.7046 5.67188 41.4331 5.67188 41.1206C5.67188 40.8042 5.61523 40.5308 5.50195 40.3003C5.38867 40.0698 5.21094 39.8921 4.96875 39.7671C4.72656 39.6421 4.41406 39.5796 4.03125 39.5796H2.41992L2.43164 38.6714H4.63477L4.875 38.9995C5.28516 39.0347 5.63281 39.1519 5.91797 39.3511C6.20312 39.5464 6.41992 39.7964 6.56836 40.1011C6.7207 40.4058 6.79688 40.7417 6.79688 41.1089C6.79688 41.6401 6.67969 42.0894 6.44531 42.4565C6.21484 42.8198 5.88867 43.0972 5.4668 43.2886C5.04492 43.4761 4.54883 43.5698 3.97852 43.5698ZM12.041 42.4858V39.2222C12.041 38.9722 11.9902 38.7554 11.8887 38.5718C11.791 38.3843 11.6426 38.2397 11.4434 38.1382C11.2441 38.0366 10.998 37.9858 10.7051 37.9858C10.4316 37.9858 10.1914 38.0327 9.98438 38.1265C9.78125 38.2202 9.62109 38.3433 9.50391 38.4956C9.39062 38.6479 9.33398 38.812 9.33398 38.9878H8.25C8.25 38.7612 8.30859 38.5366 8.42578 38.314C8.54297 38.0913 8.71094 37.8901 8.92969 37.7104C9.15234 37.5269 9.41797 37.3823 9.72656 37.2769C10.0391 37.1675 10.3867 37.1128 10.7695 37.1128C11.2305 37.1128 11.6367 37.1909 11.9883 37.3472C12.3438 37.5034 12.6211 37.7397 12.8203 38.0562C13.0234 38.3687 13.125 38.7612 13.125 39.2339V42.187C13.125 42.3979 13.1426 42.6226 13.1777 42.8608C13.2168 43.0991 13.2734 43.3042 13.3477 43.4761V43.5698H12.2168C12.1621 43.4448 12.1191 43.2788 12.0879 43.0718C12.0566 42.8608 12.041 42.6655 12.041 42.4858ZM12.2285 39.7261L12.2402 40.4878H11.1445C10.8359 40.4878 10.5605 40.5132 10.3184 40.564C10.0762 40.6108 9.87305 40.6831 9.70898 40.7808C9.54492 40.8784 9.41992 41.0015 9.33398 41.1499C9.24805 41.2944 9.20508 41.4644 9.20508 41.6597C9.20508 41.8589 9.25 42.0405 9.33984 42.2046C9.42969 42.3687 9.56445 42.4995 9.74414 42.5972C9.92773 42.6909 10.1523 42.7378 10.418 42.7378C10.75 42.7378 11.043 42.6675 11.2969 42.5269C11.5508 42.3862 11.752 42.2144 11.9004 42.0112C12.0527 41.8081 12.1348 41.6108 12.1465 41.4194L12.6094 41.9409C12.582 42.105 12.5078 42.2866 12.3867 42.4858C12.2656 42.6851 12.1035 42.8765 11.9004 43.0601C11.7012 43.2397 11.4629 43.3901 11.1855 43.5112C10.9121 43.6284 10.6035 43.687 10.2598 43.687C9.83008 43.687 9.45312 43.603 9.12891 43.4351C8.80859 43.2671 8.55859 43.0425 8.37891 42.7612C8.20312 42.4761 8.11523 42.1577 8.11523 41.8062C8.11523 41.4663 8.18164 41.1675 8.31445 40.9097C8.44727 40.6479 8.63867 40.4312 8.88867 40.2593C9.13867 40.0835 9.43945 39.9507 9.79102 39.8608C10.1426 39.771 10.5352 39.7261 10.9688 39.7261H12.2285ZM17.3672 42.7964C17.625 42.7964 17.8633 42.7437 18.082 42.6382C18.3008 42.5327 18.4805 42.3882 18.6211 42.2046C18.7617 42.0171 18.8418 41.8042 18.8613 41.5659H19.8926C19.873 41.9409 19.7461 42.2905 19.5117 42.6147C19.2812 42.9351 18.9785 43.1948 18.6035 43.394C18.2285 43.5894 17.8164 43.687 17.3672 43.687C16.8906 43.687 16.4746 43.603 16.1191 43.4351C15.7676 43.2671 15.4746 43.0366 15.2402 42.7437C15.0098 42.4507 14.8359 42.1147 14.7188 41.7358C14.6055 41.353 14.5488 40.9487 14.5488 40.5229V40.2769C14.5488 39.8511 14.6055 39.4487 14.7188 39.0698C14.8359 38.687 15.0098 38.3491 15.2402 38.0562C15.4746 37.7632 15.7676 37.5327 16.1191 37.3647C16.4746 37.1968 16.8906 37.1128 17.3672 37.1128C17.8633 37.1128 18.2969 37.2144 18.668 37.4175C19.0391 37.6167 19.3301 37.8901 19.541 38.2378C19.7559 38.5815 19.873 38.9722 19.8926 39.4097H18.8613C18.8418 39.1479 18.7676 38.9116 18.6387 38.7007C18.5137 38.4897 18.3418 38.3218 18.123 38.1968C17.9082 38.0679 17.6562 38.0034 17.3672 38.0034C17.0352 38.0034 16.7559 38.0698 16.5293 38.2026C16.3066 38.3315 16.1289 38.5073 15.9961 38.73C15.8672 38.9487 15.7734 39.1929 15.7148 39.4624C15.6602 39.728 15.6328 39.9995 15.6328 40.2769V40.5229C15.6328 40.8003 15.6602 41.0737 15.7148 41.3433C15.7695 41.6128 15.8613 41.8569 15.9902 42.0757C16.123 42.2944 16.3008 42.4702 16.5234 42.603C16.75 42.7319 17.0312 42.7964 17.3672 42.7964ZM22.2012 34.5698V43.5698H21.1113V34.5698H22.2012ZM26.0742 37.23L23.3086 40.189L21.7617 41.7944L21.6738 40.6401L22.7812 39.3159L24.75 37.23H26.0742ZM25.084 43.5698L22.8223 40.5464L23.3848 39.5796L26.3613 43.5698H25.084ZM28.3711 34.5698V43.5698H27.2812V34.5698H28.3711ZM31.2891 37.23V43.5698H30.1992V37.23H31.2891ZM30.1172 35.5483C30.1172 35.3726 30.1699 35.2241 30.2754 35.103C30.3848 34.9819 30.5449 34.9214 30.7559 34.9214C30.9629 34.9214 31.1211 34.9819 31.2305 35.103C31.3438 35.2241 31.4004 35.3726 31.4004 35.5483C31.4004 35.7163 31.3438 35.8608 31.2305 35.9819C31.1211 36.0991 30.9629 36.1577 30.7559 36.1577C30.5449 36.1577 30.3848 36.0991 30.2754 35.9819C30.1699 35.8608 30.1172 35.7163 30.1172 35.5483ZM34.1133 38.5835V43.5698H33.0293V37.23H34.0547L34.1133 38.5835ZM33.8555 40.1597L33.4043 40.1421C33.4082 39.7085 33.4727 39.3081 33.5977 38.9409C33.7227 38.5698 33.8984 38.2476 34.125 37.9741C34.3516 37.7007 34.6211 37.4897 34.9336 37.3413C35.25 37.189 35.5996 37.1128 35.9824 37.1128C36.2949 37.1128 36.5762 37.1558 36.8262 37.2417C37.0762 37.3237 37.2891 37.4565 37.4648 37.6401C37.6445 37.8237 37.7812 38.062 37.875 38.355C37.9688 38.644 38.0156 38.9976 38.0156 39.4155V43.5698H36.9258V39.4038C36.9258 39.0718 36.877 38.8062 36.7793 38.6069C36.6816 38.4038 36.5391 38.2573 36.3516 38.1675C36.1641 38.0737 35.9336 38.0269 35.6602 38.0269C35.3906 38.0269 35.1445 38.0835 34.9219 38.1968C34.7031 38.3101 34.5137 38.4663 34.3535 38.6655C34.1973 38.8647 34.0742 39.0933 33.9844 39.3511C33.8984 39.605 33.8555 39.8745 33.8555 40.1597ZM40.752 34.5698V43.5698H39.6621V34.5698H40.752ZM44.625 37.23L41.8594 40.189L40.3125 41.7944L40.2246 40.6401L41.332 39.3159L43.3008 37.23H44.625ZM43.6348 43.5698L41.373 40.5464L41.9355 39.5796L44.9121 43.5698H43.6348ZM49.4355 41.8882C49.4355 41.7319 49.4004 41.5874 49.3301 41.4546C49.2637 41.3179 49.125 41.1948 48.9141 41.0854C48.707 40.9722 48.3945 40.8745 47.9766 40.7925C47.625 40.7183 47.3066 40.6304 47.0215 40.5288C46.7402 40.4272 46.5 40.3042 46.3008 40.1597C46.1055 40.0151 45.9551 39.8452 45.8496 39.6499C45.7441 39.4546 45.6914 39.2261 45.6914 38.9644C45.6914 38.7144 45.7461 38.478 45.8555 38.2554C45.9688 38.0327 46.127 37.8354 46.3301 37.6636C46.5371 37.4917 46.7852 37.3569 47.0742 37.2593C47.3633 37.1616 47.6855 37.1128 48.041 37.1128C48.5488 37.1128 48.9824 37.2026 49.3418 37.3823C49.7012 37.562 49.9766 37.8022 50.168 38.103C50.3594 38.3999 50.4551 38.73 50.4551 39.0933H49.3711C49.3711 38.9175 49.3184 38.7476 49.2129 38.5835C49.1113 38.4155 48.9609 38.2769 48.7617 38.1675C48.5664 38.0581 48.3262 38.0034 48.041 38.0034C47.7402 38.0034 47.4961 38.0503 47.3086 38.144C47.125 38.2339 46.9902 38.3491 46.9043 38.4897C46.8223 38.6304 46.7812 38.7788 46.7812 38.9351C46.7812 39.0522 46.8008 39.1577 46.8398 39.2515C46.8828 39.3413 46.957 39.4253 47.0625 39.5034C47.168 39.5776 47.3164 39.6479 47.5078 39.7144C47.6992 39.7808 47.9434 39.8472 48.2402 39.9136C48.7598 40.0308 49.1875 40.1714 49.5234 40.3354C49.8594 40.4995 50.1094 40.7007 50.2734 40.939C50.4375 41.1772 50.5195 41.4663 50.5195 41.8062C50.5195 42.0835 50.4609 42.3374 50.3438 42.5679C50.2305 42.7983 50.0645 42.9976 49.8457 43.1655C49.6309 43.3296 49.373 43.4585 49.0723 43.5522C48.7754 43.6421 48.4414 43.687 48.0703 43.687C47.5117 43.687 47.0391 43.5874 46.6523 43.3882C46.2656 43.189 45.9727 42.9312 45.7734 42.6147C45.5742 42.2983 45.4746 41.9644 45.4746 41.6128H46.5645C46.5801 41.9097 46.666 42.146 46.8223 42.3218C46.9785 42.4937 47.1699 42.6167 47.3965 42.6909C47.623 42.7612 47.8477 42.7964 48.0703 42.7964C48.3672 42.7964 48.6152 42.7573 48.8145 42.6792C49.0176 42.6011 49.1719 42.4937 49.2773 42.3569C49.3828 42.2202 49.4355 42.064 49.4355 41.8882Z" fill="#FCFEFF"/>
<defs>
<clipPath id="clip0_82_7580">
<rect width="29.0774" height="24" fill="white" transform="translate(11.4609 0.569824)"/>
</clipPath>
</defs>
</svg>
