<svg width="61" height="60" viewBox="0 0 61 60" fill="none" xmlns="http://www.w3.org/2000/svg">
<rect width="61" height="60" rx="15" fill="#EF8BE9"/>
<g clip-path="url(#clip0_0_1)">
<path d="M43.5505 41.4269H19.4178C19.2898 41.4269 19.167 41.376 19.0765 41.2855C18.986 41.195 18.9351 41.0722 18.9351 40.9442V23.086C18.9351 22.958 18.986 22.8352 19.0765 22.7447C19.167 22.6542 19.2898 22.6033 19.4178 22.6033H43.5505C43.6785 22.6033 43.8013 22.6542 43.8918 22.7447C43.9823 22.8352 44.0332 22.958 44.0332 23.086V40.9442C44.0332 41.0722 43.9823 41.195 43.8918 41.2855C43.8013 41.376 43.6785 41.4269 43.5505 41.4269ZM20.2578 39.6613H42.2677V24.2567H20.2578V39.6613Z" fill="white"/>
<path d="M43.5501 28.6353H19.4174C19.2894 28.6353 19.1666 28.5844 19.0761 28.4939C18.9856 28.4034 18.9347 28.2806 18.9347 28.1526C18.9347 28.0246 18.9856 27.9019 19.0761 27.8113C19.1666 27.7208 19.2894 27.67 19.4174 27.67H43.5501C43.6781 27.67 43.8009 27.7208 43.8914 27.8113C43.9819 27.9019 44.0327 28.0246 44.0327 28.1526C44.0327 28.2806 43.9819 28.4034 43.8914 28.4939C43.8009 28.5844 43.6781 28.6353 43.5501 28.6353Z" fill="white"/>
<path d="M22.265 26.6997H21.5205C21.3925 26.6997 21.2697 26.6489 21.1792 26.5584C21.0887 26.4679 21.0378 26.3451 21.0378 26.2171C21.0378 26.0891 21.0887 25.9663 21.1792 25.8758C21.2697 25.7853 21.3925 25.7344 21.5205 25.7344H22.265C22.393 25.7344 22.5157 25.7853 22.6062 25.8758C22.6968 25.9663 22.7476 26.0891 22.7476 26.2171C22.7476 26.3451 22.6968 26.4679 22.6062 26.5584C22.5157 26.6489 22.393 26.6997 22.265 26.6997Z" fill="white"/>
<path d="M25.8671 26.6997H25.1226C24.9946 26.6997 24.8719 26.6489 24.7813 26.5584C24.6908 26.4679 24.64 26.3451 24.64 26.2171C24.64 26.0891 24.6908 25.9663 24.7813 25.8758C24.8719 25.7853 24.9946 25.7344 25.1226 25.7344H25.8671C25.9951 25.7344 26.1179 25.7853 26.2084 25.8758C26.2989 25.9663 26.3498 26.0891 26.3498 26.2171C26.3498 26.3451 26.2989 26.4679 26.2084 26.5584C26.1179 26.6489 25.9951 26.6997 25.8671 26.6997Z" fill="white"/>
<path d="M29.4693 26.6997H28.7248C28.5968 26.6997 28.474 26.6489 28.3835 26.5584C28.293 26.4679 28.2421 26.3451 28.2421 26.2171C28.2421 26.0891 28.293 25.9663 28.3835 25.8758C28.474 25.7853 28.5968 25.7344 28.7248 25.7344H29.4693C29.5973 25.7344 29.7201 25.7853 29.8106 25.8758C29.9011 25.9663 29.9519 26.0891 29.9519 26.2171C29.9519 26.3451 29.9011 26.4679 29.8106 26.5584C29.7201 26.6489 29.5973 26.6997 29.4693 26.6997Z" fill="white"/>
<path d="M31.248 41.4268C31.1371 41.4267 31.0297 41.3885 30.9437 41.3185C30.8577 41.2485 30.7985 41.1511 30.7759 41.0425C29.7325 36.0356 25.2429 32.1596 19.3379 31.1704C19.2754 31.1599 19.2155 31.1372 19.1618 31.1036C19.1081 31.07 19.0615 31.0261 19.0247 30.9745C18.9504 30.8702 18.9206 30.7407 18.9418 30.6145C18.9523 30.552 18.975 30.4921 19.0086 30.4384C19.0423 30.3847 19.0861 30.3381 19.1378 30.3013C19.242 30.227 19.5672 29.8782 19.6935 29.8994C22.7469 30.4122 25.9014 30.6145 28.1588 33.2892C30.3666 35.1951 31.721 37.8041 31.721 40.8495C31.735 40.9195 31.7333 40.9917 31.716 41.061C31.6988 41.1303 31.6663 41.1948 31.6211 41.2501C31.5758 41.3053 31.5189 41.3498 31.4544 41.3804C31.3899 41.4109 31.3194 41.4268 31.248 41.4268Z" fill="white"/>
<path d="M31.7207 41.427C31.6489 41.4271 31.578 41.4112 31.5132 41.3804C31.4484 41.3496 31.3912 41.3047 31.3459 41.2491C31.3006 41.1934 31.2683 41.1284 31.2513 41.0586C31.2343 40.9889 31.233 40.9163 31.2477 40.846C31.3459 38.3683 32.0923 36.4775 33.2392 34.9822C34.3554 33.5261 35.5025 33.1361 37.1897 32.1566C37.2446 32.1248 37.1268 32.8052 37.1897 32.7969C37.2526 32.7886 37.0819 33.6814 37.727 32.7969C36.9351 33.8825 37.1176 34.3177 37.9609 33.0235C37.9609 34.5903 37.7532 33.0328 37.7849 33.0877C37.8167 33.1425 37.8872 34.4365 38.2413 33.3999C38.2497 33.4627 37.7434 33.3386 37.727 33.3999C37.7107 33.4611 38.357 33.2383 38.3184 33.2886C38.2799 33.3389 38.3733 33.2569 38.3184 33.2886C35.0967 35.1589 32.8718 37.7839 32.1916 41.0436C32.1688 41.1518 32.1097 41.2489 32.024 41.3186C31.9382 41.3884 31.8312 41.4267 31.7207 41.427Z" fill="white"/>
<path d="M38.8811 34.4158C38.323 34.4158 37.7774 34.2503 37.3134 33.9402C36.8494 33.6302 36.4877 33.1895 36.2741 32.6739C36.0605 32.1583 36.0047 31.5909 36.1135 31.0435C36.2224 30.4961 36.4912 29.9934 36.8858 29.5987C37.2804 29.2041 37.7832 28.9353 38.3306 28.8265C38.878 28.7176 39.4453 28.7735 39.9609 28.987C40.4766 29.2006 40.9172 29.5623 41.2273 30.0263C41.5374 30.4904 41.7029 31.0359 41.7029 31.594C41.7019 32.3421 41.4043 33.0593 40.8753 33.5882C40.3463 34.1172 39.6292 34.4148 38.8811 34.4158ZM38.8811 29.9392C38.5538 29.9392 38.2338 30.0362 37.9617 30.2181C37.6896 30.3999 37.4775 30.6584 37.3522 30.9607C37.227 31.2631 37.1942 31.5959 37.258 31.9169C37.3219 32.2379 37.4795 32.5327 37.7109 32.7642C37.9424 32.9956 38.2372 33.1532 38.5583 33.2171C38.8793 33.2809 39.212 33.2481 39.5144 33.1229C39.8168 32.9976 40.0752 32.7855 40.257 32.5134C40.4389 32.2413 40.5359 31.9213 40.5359 31.594C40.5355 31.1553 40.361 30.7346 40.0507 30.4244C39.7405 30.1142 39.3198 29.9397 38.8811 29.9392Z" fill="white"/>
</g>
<defs>
<clipPath id="clip0_0_1">
<rect width="27.089" height="20" fill="white" transform="translate(18 22)"/>
</clipPath>
</defs>
</svg>
