<svg width="61" height="60" viewBox="0 0 61 60" fill="none" xmlns="http://www.w3.org/2000/svg">
<rect width="61" height="60" rx="15" fill="#00A6ED" fill-opacity="0.6"/>
<path d="M42.6111 19H18.3875C18.3367 18.9999 18.2863 19.0098 18.2393 19.0292C18.1923 19.0486 18.1495 19.0771 18.1136 19.113C18.0776 19.1489 18.049 19.1916 18.0295 19.2385C18.01 19.2855 18 19.3358 18 19.3867V41.3007C18 41.3515 18.01 41.4019 18.0295 41.4489C18.049 41.4958 18.0776 41.5385 18.1136 41.5744C18.1495 41.6103 18.1923 41.6388 18.2393 41.6582C18.2863 41.6776 18.3367 41.6875 18.3875 41.6874H42.6111C42.6621 41.6877 42.7126 41.6779 42.7598 41.6586C42.8069 41.6393 42.8498 41.6108 42.886 41.5749C42.9221 41.539 42.9508 41.4962 42.9704 41.4492C42.9899 41.4021 43 41.3517 43 41.3007V19.3867C43 19.3357 42.9899 19.2853 42.9704 19.2382C42.9508 19.1911 42.9221 19.1484 42.886 19.1125C42.8498 19.0765 42.8069 19.0481 42.7598 19.0288C42.7126 19.0095 42.6621 18.9997 42.6111 19ZM42.2255 19.7731V23.5233H18.7731V19.7731H42.2255ZM18.7731 40.9143V24.2959H42.2255V40.9143H18.7731ZM29.5415 21.4821C29.5415 21.3796 29.5822 21.2813 29.6546 21.2088C29.7271 21.1362 29.8254 21.0955 29.9279 21.0954H39.4937C39.5453 21.094 39.5967 21.103 39.6448 21.1218C39.6929 21.1406 39.7368 21.1688 39.7738 21.2049C39.8108 21.2409 39.8402 21.284 39.8603 21.3316C39.8804 21.3792 39.8907 21.4303 39.8907 21.4819C39.8907 21.5336 39.8804 21.5847 39.8603 21.6323C39.8402 21.6799 39.8108 21.723 39.7738 21.759C39.7368 21.7951 39.6929 21.8233 39.6448 21.8421C39.5967 21.8609 39.5453 21.8699 39.4937 21.8685H29.9279C29.8254 21.8685 29.7271 21.8278 29.6547 21.7553C29.5822 21.6829 29.5415 21.5846 29.5415 21.4821ZM39.3476 30.2326H36.9894C36.5095 28.8958 35.6285 27.7399 34.4669 26.9227C33.3052 26.1055 31.9196 25.6669 30.4993 25.6669C29.079 25.6669 27.6934 26.1055 26.5317 26.9227C25.3701 27.7399 24.4891 28.8958 24.0092 30.2326H21.6508C21.5483 30.2326 21.4499 30.2733 21.3774 30.3457C21.3049 30.4182 21.2641 30.5165 21.2641 30.619V34.5167C21.2641 34.6193 21.3048 34.7176 21.3773 34.7901C21.4498 34.8626 21.5482 34.9034 21.6508 34.9034H24.0092C24.489 36.2403 25.3699 37.3964 26.5316 38.2137C27.6932 39.031 29.0789 39.4696 30.4993 39.4696C31.9197 39.4696 33.3054 39.031 34.467 38.2137C35.6287 37.3964 36.5096 36.2403 36.9894 34.9034H39.3481C39.4507 34.9034 39.549 34.8626 39.6216 34.7901C39.6941 34.7176 39.7348 34.6193 39.7348 34.5167V30.6195C39.7349 30.5687 39.7249 30.5184 39.7055 30.4715C39.686 30.4245 39.6576 30.3819 39.6217 30.3459C39.5857 30.31 39.5431 30.2815 39.4962 30.262C39.4492 30.2426 39.3989 30.2326 39.3481 30.2326H39.3476ZM30.8857 26.4899C31.656 26.6674 32.368 27.3652 32.8944 28.4105H30.8857V26.4899ZM30.1123 26.4899V28.4105H28.1039C28.6303 27.3652 29.3423 26.6674 30.1123 26.4899ZM30.1123 29.1845V30.2326H27.4641C27.5446 29.8766 27.6475 29.526 27.7722 29.1831L30.1123 29.1845ZM30.8857 29.1845H33.2261C33.3508 29.5275 33.4538 29.878 33.5345 30.234H30.8857V29.1845ZM34.3223 30.2326C34.2491 29.8779 34.1564 29.5275 34.0445 29.1831H35.6079C35.8276 29.514 36.0146 29.8655 36.1663 30.2326H34.3223ZM35.0037 28.41H33.7495C33.5158 27.8633 33.2045 27.3531 32.825 26.8954C33.654 27.2337 34.398 27.7511 35.0037 28.4105V28.41ZM28.1728 26.8952C27.7935 27.3531 27.4823 27.8635 27.2491 28.4105H25.9943C26.6001 27.7513 27.3439 27.2341 28.1728 26.8957V26.8952ZM25.3904 29.1836H26.9538C26.8418 29.528 26.7491 29.8784 26.676 30.2331H24.8323C24.9838 29.866 25.1707 29.5145 25.3904 29.1836ZM30.1129 38.6467C29.3223 38.4644 28.5928 37.7344 28.0628 36.6429H30.1129V38.6467ZM30.8863 38.6467V36.6429H32.9369C32.4061 37.7347 31.6763 38.4644 30.8857 38.6469L30.8863 38.6467ZM30.8863 35.8687V34.9034H33.535C33.4609 35.2306 33.3682 35.5532 33.2572 35.8698L30.8863 35.8687ZM30.1129 35.8687H27.7419C27.6309 35.5522 27.5381 35.2295 27.4641 34.9023H30.1123L30.1129 35.8687ZM26.6766 34.9023C26.744 35.2285 26.8279 35.551 26.928 35.8687H25.3354C25.1396 35.5621 24.9713 35.2386 24.8326 34.9023H26.6766ZM25.9188 36.6418H27.2111C27.4499 37.2197 27.7743 37.7583 28.1733 38.2397C27.309 37.8876 26.5374 37.3412 25.9182 36.6429L25.9188 36.6418ZM32.8261 38.2397C33.2251 37.7583 33.5495 37.2196 33.7884 36.6418H35.0801C34.4613 37.3408 33.6898 37.8879 32.8255 38.2408L32.8261 38.2397ZM35.6635 35.8687H34.0717C34.1712 35.551 34.2547 35.2284 34.3217 34.9023H36.1663C36.0274 35.239 35.859 35.5628 35.6629 35.8698L35.6635 35.8687ZM38.9623 34.1292H22.0374V31.0062H38.9617L38.9623 34.1292ZM24.2462 33.6569C24.4617 33.6569 24.6723 33.5929 24.8514 33.4732C25.0305 33.3534 25.1701 33.1833 25.2526 32.9842C25.335 32.7851 25.3565 32.566 25.3144 32.3547C25.2724 32.1434 25.1686 31.9493 25.0162 31.7969C24.8638 31.6446 24.6697 31.5409 24.4584 31.4988C24.247 31.4568 24.028 31.4784 23.8289 31.5609C23.6298 31.6434 23.4597 31.783 23.34 31.9622C23.2203 32.1413 23.1564 32.352 23.1564 32.5674C23.1565 32.8564 23.2712 33.1335 23.4754 33.3379C23.6797 33.5424 23.9567 33.6574 24.2456 33.6578L24.2462 33.6569ZM24.2462 32.251C24.3087 32.2511 24.3699 32.2697 24.4219 32.3045C24.4739 32.3393 24.5144 32.3887 24.5383 32.4465C24.5622 32.5044 24.5684 32.568 24.5562 32.6293C24.544 32.6907 24.5138 32.747 24.4695 32.7913C24.4253 32.8355 24.3689 32.8656 24.3075 32.8778C24.2462 32.89 24.1826 32.8837 24.1248 32.8597C24.067 32.8358 24.0176 32.7952 23.9828 32.7432C23.948 32.6912 23.9295 32.63 23.9295 32.5674C23.9297 32.4837 23.9631 32.4035 24.0224 32.3443C24.0816 32.2852 24.1619 32.2519 24.2456 32.2519L24.2462 32.251ZM28.4159 33.6578C28.6313 33.6577 28.8419 33.5938 29.0211 33.474C29.2002 33.3543 29.3398 33.1841 29.4222 32.985C29.5046 32.7859 29.5262 32.5669 29.4841 32.3555C29.442 32.1442 29.3383 31.9501 29.1859 31.7978C29.0335 31.6454 28.8394 31.5417 28.628 31.4997C28.4167 31.4577 28.1976 31.4792 27.9986 31.5617C27.7995 31.6442 27.6294 31.7838 27.5097 31.963C27.39 32.1422 27.3261 32.3528 27.3261 32.5683C27.3264 32.8572 27.4413 33.1342 27.6456 33.3384C27.8499 33.5427 28.1269 33.6575 28.4159 33.6578ZM28.4159 32.2519C28.4784 32.2519 28.5396 32.2705 28.5916 32.3053C28.6436 32.3401 28.6841 32.3895 28.708 32.4474C28.7319 32.5052 28.7381 32.5688 28.7259 32.6302C28.7136 32.6915 28.6835 32.7479 28.6392 32.7921C28.595 32.8363 28.5386 32.8664 28.4772 32.8786C28.4158 32.8908 28.3522 32.8845 28.2944 32.8606C28.2366 32.8366 28.1872 32.796 28.1525 32.744C28.1177 32.692 28.0992 32.6308 28.0992 32.5683C28.0992 32.5267 28.1074 32.4855 28.1233 32.4471C28.1392 32.4087 28.1625 32.3738 28.1919 32.3444C28.2214 32.315 28.2563 32.2917 28.2947 32.2759C28.3331 32.26 28.3743 32.2518 28.4159 32.2519ZM32.5828 33.6578C32.7982 33.6577 33.0088 33.5938 33.188 33.474C33.3671 33.3543 33.5067 33.1841 33.5891 32.985C33.6715 32.7859 33.6931 32.5669 33.651 32.3555C33.6089 32.1442 33.5052 31.9501 33.3528 31.7978C33.2004 31.6454 33.0063 31.5417 32.7949 31.4997C32.5836 31.4577 32.3645 31.4792 32.1655 31.5617C31.9664 31.6442 31.7963 31.7838 31.6766 31.963C31.5569 32.1422 31.493 32.3528 31.493 32.5683C31.4933 32.8572 31.6082 33.1342 31.8125 33.3384C32.0168 33.5427 32.2938 33.6575 32.5828 33.6578ZM32.5828 32.2519C32.6453 32.2519 32.7065 32.2705 32.7585 32.3053C32.8105 32.3401 32.851 32.3895 32.8749 32.4474C32.8988 32.5052 32.905 32.5688 32.8928 32.6302C32.8805 32.6915 32.8504 32.7479 32.8061 32.7921C32.7619 32.8363 32.7055 32.8664 32.6441 32.8786C32.5827 32.8908 32.5191 32.8845 32.4613 32.8606C32.4035 32.8366 32.3541 32.796 32.3194 32.744C32.2846 32.692 32.2661 32.6308 32.2661 32.5683C32.2661 32.5267 32.2743 32.4855 32.2902 32.4471C32.3061 32.4087 32.3294 32.3738 32.3588 32.3444C32.3883 32.315 32.4232 32.2917 32.4616 32.2759C32.5 32.26 32.5412 32.2518 32.5828 32.2519ZM36.753 33.6578C36.9685 33.6577 37.1791 33.5938 37.3582 33.474C37.5373 33.3543 37.6769 33.1841 37.7594 32.985C37.8418 32.7859 37.8633 32.5669 37.8212 32.3555C37.7792 32.1442 37.6754 31.9501 37.523 31.7978C37.3706 31.6454 37.1765 31.5417 36.9652 31.4997C36.7538 31.4577 36.5348 31.4792 36.3357 31.5617C36.1366 31.6442 35.9665 31.7838 35.8468 31.963C35.7271 32.1422 35.6632 32.3528 35.6632 32.5683C35.6635 32.8572 35.7784 33.1342 35.9827 33.3384C36.1871 33.5427 36.4641 33.6575 36.753 33.6578ZM36.753 32.2519C36.8156 32.2519 36.8767 32.2704 36.9288 32.3052C36.9808 32.3399 37.0214 32.3894 37.0453 32.4472C37.0693 32.505 37.0755 32.5686 37.0633 32.63C37.0511 32.6914 37.021 32.7477 36.9767 32.792C36.9325 32.8362 36.8761 32.8664 36.8147 32.8786C36.7533 32.8908 36.6897 32.8845 36.6319 32.8606C36.5741 32.8366 36.5247 32.7961 36.4899 32.744C36.4551 32.692 36.4366 32.6308 36.4366 32.5683C36.4366 32.5267 36.4448 32.4856 36.4607 32.4472C36.4766 32.4088 36.4999 32.3739 36.5293 32.3445C36.5586 32.3151 36.5935 32.2918 36.6319 32.2759C36.6703 32.26 36.7114 32.2519 36.753 32.2519Z" fill="white"/>
</svg>
