<svg width="61" height="60" viewBox="0 0 61 60" fill="none" xmlns="http://www.w3.org/2000/svg">
<rect width="61" height="60" rx="15" fill="#FFB400" fill-opacity="0.6"/>
<path fill-rule="evenodd" clip-rule="evenodd" d="M43 23.7599V40.3107C42.9987 40.6993 42.8437 41.0716 42.5689 41.3463C42.2941 41.6211 41.9218 41.776 41.5332 41.7772H29.0561C29.4945 41.3342 29.853 40.8186 30.1157 40.2533H41.4767V25.2838H22.7473V33.2006C22.1731 33.4984 21.6569 33.8966 21.2231 34.3764V23.7599H43ZM19.2853 42.571L20.6413 43.927L18.6261 45.942C18.4453 46.117 18.2029 46.214 17.9513 46.212C17.6996 46.21 17.4588 46.1091 17.2809 45.9312C17.1029 45.7532 17.0021 45.5124 17 45.2608C16.998 45.0091 17.095 44.7668 17.2701 44.586L19.2853 42.571ZM25.2226 33.4484C24.3709 33.4485 23.5363 33.6882 22.8143 34.1401C22.0923 34.5919 21.5119 35.2377 21.1394 36.0037C20.767 36.7698 20.6175 37.6251 20.708 38.472C20.7985 39.3189 21.1254 40.1234 21.6513 40.7933L20.7533 41.6916L20.4587 41.397L19.8857 41.9704L21.2417 43.3264L21.8147 42.7533L21.5201 42.4584L22.4181 41.5604C22.9873 42.0075 23.6551 42.312 24.3659 42.4486C25.0767 42.5852 25.8098 42.5499 26.5041 42.3456C27.1985 42.1414 27.834 41.7742 28.3576 41.2745C28.8812 40.7748 29.2778 40.1572 29.5143 39.4732C29.7508 38.7891 29.8204 38.0584 29.7172 37.342C29.614 36.6257 29.3411 35.9443 28.9211 35.3548C28.5012 34.7653 27.9464 34.2848 27.303 33.9532C26.6597 33.6216 25.9464 33.4483 25.2226 33.4484ZM25.2226 41.3664C24.5546 41.3664 23.9016 41.1683 23.3461 40.7971C22.7907 40.426 22.3578 39.8985 22.1021 39.2813C21.8465 38.6641 21.7796 37.985 21.91 37.3298C22.0403 36.6746 22.362 36.0728 22.8344 35.6004C23.3068 35.1281 23.9087 34.8064 24.5639 34.6761C25.2191 34.5458 25.8982 34.6128 26.5154 34.8685C27.1325 35.1241 27.66 35.5571 28.0311 36.1126C28.4022 36.668 28.6002 37.3211 28.6002 37.9891C28.6001 38.8849 28.2442 39.7439 27.6108 40.3772C26.9774 41.0106 26.1183 41.3664 25.2226 41.3664ZM41.5338 20H22.6899C22.3013 20.0013 21.929 20.1562 21.6542 20.4309C21.3794 20.7057 21.2244 21.0779 21.2231 21.4665V22.9105H43V21.4665C42.9987 21.078 42.8438 20.7059 42.5691 20.4311C42.2944 20.1564 41.9222 20.0014 41.5338 20ZM23.6338 21.9402C23.5379 21.9402 23.4441 21.9118 23.3643 21.8586C23.2845 21.8053 23.2223 21.7296 23.1855 21.6409C23.1488 21.5523 23.1391 21.4548 23.1578 21.3607C23.1765 21.2666 23.2226 21.1801 23.2905 21.1123C23.3583 21.0444 23.4447 20.9982 23.5388 20.9794C23.6329 20.9607 23.7304 20.9703 23.8191 21.007C23.9077 21.0437 23.9835 21.1058 24.0368 21.1856C24.0901 21.2654 24.1186 21.3592 24.1186 21.4551C24.1186 21.5836 24.0676 21.7067 23.9769 21.7977C23.8862 21.8886 23.7632 21.9398 23.6347 21.9402H23.6338ZM25.6443 21.9402C25.5483 21.9402 25.4546 21.9117 25.3748 21.8584C25.295 21.8051 25.2329 21.7294 25.1962 21.6407C25.1595 21.5521 25.1498 21.4546 25.1686 21.3605C25.1873 21.2664 25.2335 21.18 25.3013 21.1121C25.3691 21.0443 25.4556 20.9981 25.5497 20.9794C25.6437 20.9607 25.7413 20.9703 25.8299 21.007C25.9185 21.0437 25.9943 21.1059 26.0476 21.1856C26.1009 21.2654 26.1293 21.3592 26.1293 21.4551C26.1293 21.5836 26.0783 21.7068 25.9876 21.7978C25.8968 21.8887 25.7737 21.9399 25.6452 21.9402H25.6443ZM27.6565 21.9402C27.5606 21.9402 27.4668 21.9117 27.387 21.8584C27.3073 21.8051 27.2451 21.7294 27.2084 21.6407C27.1717 21.5521 27.1621 21.4546 27.1808 21.3605C27.1995 21.2664 27.2457 21.18 27.3135 21.1121C27.3814 21.0443 27.4678 20.9981 27.5619 20.9794C27.656 20.9607 27.7535 20.9703 27.8421 21.007C27.9308 21.0437 28.0065 21.1059 28.0598 21.1856C28.1131 21.2654 28.1416 21.3592 28.1416 21.4551C28.1416 21.5189 28.129 21.582 28.1046 21.6409C28.0802 21.6998 28.0444 21.7533 27.9993 21.7983C27.9542 21.8434 27.9006 21.8791 27.8417 21.9034C27.7828 21.9278 27.7197 21.9402 27.6559 21.9402H27.6565ZM40.8508 21.8801H34.4669C34.3543 21.8801 34.2463 21.8354 34.1666 21.7557C34.087 21.6761 34.0422 21.5681 34.0422 21.4554C34.0422 21.3428 34.087 21.2348 34.1666 21.1551C34.2463 21.0755 34.3543 21.0307 34.4669 21.0307H40.8502C40.9628 21.0307 41.0709 21.0755 41.1505 21.1551C41.2301 21.2348 41.2749 21.3428 41.2749 21.4554C41.2749 21.5681 41.2301 21.6761 41.1505 21.7557C41.0709 21.8354 40.9628 21.8801 40.8502 21.8801H40.8508ZM33.1965 32.8198C33.1121 32.8199 33.0312 32.8535 32.9715 32.9132C32.9119 32.9729 32.8783 33.0537 32.8781 33.1381V38.3363C32.8783 38.4207 32.9119 38.5016 32.9715 38.5612C33.0312 38.6209 33.1121 38.6545 33.1965 38.6547H34.6129C34.6972 38.6545 34.7781 38.6209 34.8378 38.5612C34.8975 38.5016 34.9311 38.4207 34.9312 38.3363V33.1381C34.9311 33.0537 34.8975 32.9729 34.8378 32.9132C34.7781 32.8535 34.6972 32.8199 34.6129 32.8198H33.1965ZM36.7831 29.5092C36.6986 29.5094 36.6177 29.5431 36.558 29.6028C36.4983 29.6625 36.4647 29.7434 36.4644 29.8278V38.3363C36.4647 38.4207 36.4983 38.5016 36.558 38.5613C36.6178 38.6209 36.6987 38.6545 36.7831 38.6547H38.1992C38.2836 38.6545 38.3645 38.6209 38.4242 38.5613C38.4839 38.5016 38.5176 38.4207 38.5178 38.3363V29.8278C38.5176 29.7434 38.4839 29.6625 38.4242 29.6028C38.3645 29.5431 38.2836 29.5094 38.1992 29.5092H36.7831ZM29.6111 31.1154C29.5267 31.1155 29.4458 31.1491 29.3861 31.2088C29.3263 31.2684 29.2927 31.3493 29.2924 31.4337V34.4557C30.1459 35.4347 30.6154 36.69 30.6139 37.9888C30.6139 38.2116 30.6002 38.4342 30.5731 38.6553H31.0287C31.1131 38.655 31.1941 38.6213 31.2537 38.5615C31.3134 38.5018 31.3469 38.4208 31.347 38.3363V31.4337C31.3468 31.3493 31.3131 31.2684 31.2534 31.2088C31.1937 31.1491 31.1128 31.1155 31.0284 31.1154H29.6111ZM27.0688 32.8735L30.413 28.5253L33.6692 30.7078C33.7481 30.7606 33.8425 30.7854 33.9372 30.7781C34.0318 30.7708 34.1213 30.7319 34.1912 30.6676L37.0122 28.0631L36.957 28.367C36.9462 28.4221 36.9466 28.4787 36.9579 28.5336C36.9692 28.5885 36.9914 28.6406 37.023 28.6869C37.0547 28.7332 37.0952 28.7727 37.1423 28.8032C37.1894 28.8337 37.242 28.8545 37.2972 28.8645C37.3524 28.8744 37.409 28.8733 37.4638 28.8612C37.5185 28.849 37.5703 28.8262 37.6162 28.7939C37.662 28.7615 37.7009 28.7204 37.7308 28.6729C37.7606 28.6255 37.7806 28.5725 37.7898 28.5172L38.0562 27.05C38.0702 26.9896 38.0708 26.9268 38.0579 26.8661C38.0449 26.8054 38.0189 26.7482 37.9815 26.6987C37.944 26.6492 37.8962 26.6085 37.8414 26.5795C37.7865 26.5505 37.7259 26.5338 37.664 26.5308L36.1524 26.4587C36.0402 26.4534 35.9305 26.4929 35.8474 26.5685C35.7643 26.6441 35.7147 26.7495 35.7094 26.8617C35.7041 26.9739 35.7436 27.0836 35.8192 27.1667C35.8947 27.2498 36.0002 27.2994 36.1124 27.3047L36.5629 27.3258L33.8635 29.8185L30.5623 27.6066C30.4731 27.544 30.3633 27.5182 30.2556 27.5345C30.1479 27.5508 30.0507 27.6081 29.9841 27.6943L26.3984 32.3561C26.36 32.4058 26.3332 32.4636 26.3199 32.525C26.3066 32.5865 26.3071 32.6501 26.3215 32.7113C26.5637 32.7617 26.8022 32.8287 27.0351 32.912C27.0471 32.8999 27.0584 32.887 27.0688 32.8735Z" fill="white"/>
</svg>
