<svg width="61" height="60" viewBox="0 0 61 60" fill="none" xmlns="http://www.w3.org/2000/svg">
<rect width="61" height="60" rx="15" fill="#FF595E" fill-opacity="0.6"/>
<path d="M41.4625 38.8548L37.991 35.3832C37.6914 35.0833 37.2967 34.8972 36.8747 34.8571C36.4527 34.817 36.0299 34.9253 35.6792 35.1635L34.1554 33.6396C35.8112 31.8488 36.6986 29.4799 36.627 27.0419C36.5554 24.604 35.5304 22.2913 33.7723 20.6007C32.0142 18.9102 29.6632 17.9766 27.2243 18.0004C24.7854 18.0243 22.4531 19.0038 20.7284 20.7284C19.0038 22.4531 18.0243 24.7854 18.0004 27.2243C17.9766 29.6632 18.9102 32.0142 20.6007 33.7723C22.2913 35.5304 24.604 36.5554 27.0419 36.627C29.4799 36.6986 31.8488 35.8112 33.6396 34.1554L35.1699 35.6856C34.9445 36.0359 34.8457 36.4526 34.8897 36.8667C34.9337 37.2808 35.118 37.6675 35.4119 37.9625L38.8834 41.434C39.0526 41.6041 39.2537 41.7391 39.4752 41.8313C39.6966 41.9235 39.9341 41.9711 40.174 41.9714C40.4139 41.9717 40.6515 41.9247 40.8732 41.833C41.0948 41.7414 41.2963 41.6068 41.4659 41.4372C41.6355 41.2676 41.77 41.0662 41.8616 40.8445C41.9533 40.6228 42.0003 40.3852 42 40.1453C41.9997 39.9054 41.952 39.6679 41.8598 39.4465C41.7676 39.225 41.6326 39.024 41.4625 38.8548ZM27.3299 35.9015C25.6346 35.9015 23.9773 35.3988 22.5677 34.4569C21.1581 33.5151 20.0595 32.1764 19.4107 30.6101C18.762 29.0438 18.5922 27.3204 18.923 25.6576C19.2537 23.9949 20.0701 22.4676 21.2688 21.2688C22.4676 20.0701 23.9949 19.2537 25.6576 18.923C27.3204 18.5922 29.0438 18.762 30.6101 19.4107C32.1764 20.0595 33.5151 21.1581 34.4569 22.5677C35.3988 23.9773 35.9015 25.6346 35.9015 27.3299C35.8989 29.6024 34.995 31.7812 33.3881 33.3881C31.7812 34.995 29.6024 35.8989 27.3299 35.9015ZM26.7838 24.9818C27.1628 25.452 27.2435 26.1514 27.0309 27.0619C26.707 26.5968 26.2144 25.9034 25.6155 25.105L25.032 25.5425C25.5398 26.2197 25.9691 26.8189 26.2831 27.2658C25.6487 27.1625 25.0741 26.8306 24.6675 26.3329C24.31 25.8167 24.2762 25.1065 24.5666 24.2192C25.0502 24.2081 26.2041 24.2619 26.7838 24.9818ZM28.4771 27.7117C28.771 27.4574 29.1476 27.1167 29.5923 26.6777L29.0797 26.1583C28.6942 26.5391 28.3577 26.847 28.0871 27.0841C28.1172 26.6358 28.3031 26.2122 28.6126 25.8866C28.9531 25.5756 29.4685 25.4759 30.1471 25.5906C30.2033 25.9856 30.2543 26.817 29.7985 27.301C29.6207 27.4604 29.4106 27.5795 29.1826 27.6504C28.9546 27.7212 28.714 27.7421 28.4771 27.7117ZM27.3299 20.2173C25.9231 20.2173 24.548 20.6344 23.3783 21.4159C22.2086 22.1975 21.297 23.3083 20.7587 24.608C20.2203 25.9077 20.0795 27.3378 20.3539 28.7175C20.6284 30.0972 21.3058 31.3645 22.3005 32.3593C23.2952 33.354 24.5626 34.0314 25.9423 34.3058C27.322 34.5803 28.7521 34.4394 30.0518 33.9011C31.3514 33.3627 32.4623 32.4511 33.2438 31.2814C34.0254 30.1118 34.4425 28.7366 34.4425 27.3299C34.4404 25.4442 33.6903 23.6363 32.3569 22.3029C31.0235 20.9695 29.2156 20.2194 27.3299 20.2173ZM30.0867 30.6707C29.0266 30.6706 27.9777 30.4546 27.0038 30.036C24.8908 29.1308 22.5149 29.6851 22.4911 29.6908L22.3205 28.9812C22.4273 28.956 24.958 28.3661 27.2912 29.3656C28.7034 29.9831 30.2822 30.1078 31.7739 29.7197L32.0047 30.4114C31.3818 30.5927 30.7354 30.6801 30.0867 30.6707ZM30.0867 29.2117C29.0266 29.2116 27.9777 28.9956 27.0038 28.577C24.8908 27.6718 22.5149 28.2261 22.4911 28.2318L22.3205 27.5222C23.0853 27.3618 23.8676 27.2995 24.6482 27.3368C24.4238 27.1738 24.2278 26.9749 24.068 26.7482C23.5365 25.9817 23.5009 24.9697 23.9617 23.7405C23.9854 23.6774 24.0261 23.6221 24.0793 23.5807C24.1324 23.5394 24.196 23.5135 24.263 23.5061C24.3481 23.4968 26.3541 23.2892 27.3497 24.5212C27.6127 24.8553 27.7807 25.2542 27.836 25.6759C27.918 25.5574 28.0126 25.4482 28.1182 25.3501C28.6838 24.8315 29.4995 24.6897 30.5421 24.9255C30.6078 24.9405 30.6681 24.9733 30.7163 25.0204C30.7645 25.0675 30.7987 25.127 30.8151 25.1923C30.8321 25.26 31.2201 26.8554 30.3296 27.8012C29.9976 28.1397 29.5591 28.3538 29.0879 28.4075C29.9837 28.5451 30.8984 28.4951 31.7739 28.2607L32.0047 28.9524C31.3818 29.1337 30.7354 29.2211 30.0867 29.2117Z" fill="white"/>
</svg>
