<svg width="61" height="60" viewBox="0 0 61 60" fill="none" xmlns="http://www.w3.org/2000/svg">
<rect width="61" height="60" rx="15" fill="#B2D466" fill-opacity="0.8"/>
<path d="M42.9984 21.4815C42.9984 20.6646 42.3338 20 41.5169 20H20.4815C19.6646 20 19 20.6646 19 21.4815C19.0021 45.2623 19.0015 37.2035 19.0015 38.918C19.0015 39.7329 19.6646 40.3965 20.48 40.3965H34.2612L37.0313 43.8152C37.8549 44.8308 39.378 44.9129 40.3053 43.9861C41.2275 43.0634 41.1541 41.5388 40.1344 40.7126L39.7444 40.3965H41.5169C42.3349 40.3965 42.9999 39.7334 42.9999 38.918C42.9999 37.2374 43.0005 45.2064 42.9984 21.4815ZM20.4815 20.9601H41.5169C41.8048 20.9601 42.0388 21.1941 42.0388 21.482V24.6252H19.9601V21.4815C19.9601 21.1941 20.1941 20.9601 20.4815 20.9601ZM35.6 37.6341C35.4753 37.788 34.7425 38.5065 34.2858 38.9668C34.1262 39.1228 34.0025 39.2403 33.9594 39.2752C33.7726 39.4096 33.4837 39.3794 33.3159 39.2208L32.7709 38.6753C33.6839 38.1303 34.4485 37.3662 34.9935 36.4527L35.5369 36.9962C35.7222 37.1861 35.7211 37.4601 35.6 37.6341ZM29.5102 38.6204C26.5164 38.6204 24.0804 36.1849 24.0804 33.191C24.0804 30.1977 26.5164 27.7622 29.5102 27.7622C32.5041 27.7622 34.9396 30.1977 34.9396 33.191C34.9391 36.1844 32.5041 38.6204 29.5102 38.6204ZM31.8636 39.1253L32.1746 39.4363H30.8491C31.1991 39.3614 31.5373 39.2552 31.8636 39.1253ZM39.6264 43.3077C39.1075 43.8255 38.248 43.7916 37.7774 43.2112L34.9226 39.6883L35.0083 39.6026C35.3275 39.2942 35.7216 38.8995 36.007 38.604L39.5299 41.4582C40.1077 41.9267 40.1477 42.7858 39.6264 43.3077ZM41.5169 39.4363H38.5595L36.5663 37.8214C36.6166 37.6726 36.6438 37.5166 36.6438 37.3564C36.6438 36.9634 36.4986 36.6067 36.2194 36.3209L35.4435 35.545C35.734 34.8152 35.8987 34.0224 35.8987 33.19C35.8987 29.6671 33.0326 26.801 29.5097 26.801C25.9863 26.801 23.1202 29.6671 23.1202 33.19C23.1202 36.2536 25.2884 38.8185 28.1709 39.4358H20.48C20.1941 39.4358 19.9617 39.2033 19.9617 38.9175V25.5848H42.0403V38.918C42.0398 39.2039 41.8053 39.4363 41.5169 39.4363Z" fill="white"/>
</svg>
