<svg width="61" height="60" viewBox="0 0 61 60" fill="none" xmlns="http://www.w3.org/2000/svg">
<rect width="61" height="60" rx="15" fill="#FBB380"/>
<g clip-path="url(#clip0_0_1)">
<path d="M40.4849 23.25H22.5162C22.4126 23.25 22.3132 23.2912 22.24 23.3644C22.1667 23.4377 22.1256 23.537 22.1256 23.6406V37.3125L20.4236 41.057C20.3965 41.1165 20.3848 41.1819 20.3896 41.247C20.3943 41.3122 20.4153 41.3752 20.4507 41.4301C20.4861 41.4851 20.5347 41.5303 20.592 41.5616C20.6494 41.5929 20.7137 41.6094 20.7791 41.6094H42.222C42.2874 41.6094 42.3517 41.5929 42.4091 41.5616C42.4664 41.5303 42.515 41.4851 42.5504 41.4301C42.5858 41.3752 42.6068 41.3122 42.6115 41.247C42.6163 41.1819 42.6046 41.1165 42.5775 41.057L40.8756 37.3125V23.6406C40.8756 23.537 40.8344 23.4377 40.7611 23.3644C40.6879 23.2912 40.5885 23.25 40.4849 23.25ZM40.0943 36.5312H22.9068V24.0312H40.0943V36.5312Z" fill="white"/>
<path d="M31.8906 20.5156H31.1094V22.4688H31.8906V20.5156Z" fill="white"/>
<path d="M35.6824 20.7918L35.1301 20.2394L34.3488 21.0207C34.2756 21.0939 34.2344 21.1933 34.2344 21.2969V22.4687H35.0156V21.4586L35.6824 20.7918Z" fill="white"/>
<path d="M28.7656 22.4687V21.2969C28.7656 21.1933 28.7244 21.0939 28.6512 21.0207L27.8699 20.2394L27.3176 20.7918L27.9844 21.4586V22.4687H28.7656Z" fill="white"/>
<path d="M31.5 19.7344C32.1472 19.7344 32.6719 19.2097 32.6719 18.5625C32.6719 17.9153 32.1472 17.3906 31.5 17.3906C30.8528 17.3906 30.3281 17.9153 30.3281 18.5625C30.3281 19.2097 30.8528 19.7344 31.5 19.7344Z" fill="white"/>
<path d="M36.9688 20.5156C37.616 20.5156 38.1406 19.991 38.1406 19.3438C38.1406 18.6965 37.616 18.1719 36.9688 18.1719C36.3215 18.1719 35.7969 18.6965 35.7969 19.3438C35.7969 19.991 36.3215 20.5156 36.9688 20.5156Z" fill="white"/>
<path d="M26.0312 20.5156C26.6785 20.5156 27.2031 19.991 27.2031 19.3438C27.2031 18.6965 26.6785 18.1719 26.0312 18.1719C25.384 18.1719 24.8594 18.6965 24.8594 19.3438C24.8594 19.991 25.384 20.5156 26.0312 20.5156Z" fill="white"/>
<path d="M29.9808 29.86L32.1906 32.0698C32.2638 32.143 32.3632 32.1842 32.4668 32.1842C32.5703 32.1842 32.6697 32.143 32.7429 32.0698L35.7156 29.0972L36.4648 29.8464L37.1484 27.112L34.414 27.7956L35.1632 28.5448L32.4679 31.2401L30.257 29.0315C30.1837 28.9583 30.0844 28.9172 29.9808 28.9172C29.8772 28.9172 29.7779 28.9583 29.7047 29.0315L25.8375 32.8987L26.3898 33.4511L29.9808 29.86Z" fill="white"/>
</g>
<defs>
<clipPath id="clip0_0_1">
<rect width="25" height="25.7812" fill="white" transform="translate(19 17)"/>
</clipPath>
</defs>
</svg>
