<svg width="61" height="60" viewBox="0 0 61 60" fill="none" xmlns="http://www.w3.org/2000/svg">
<rect width="61" height="60" rx="15" fill="#80EECD"/>
<path d="M25 20.5C25 19.1214 23.8786 18 22.5 18C21.1214 18 20 19.1214 20 20.5C20 21.8786 21.1214 23 22.5 23C23.8786 23 25 21.8786 25 20.5ZM22.5 22.0385C22.0406 22.0385 21.0898 21.7629 21.0898 20.5C21.0898 20.0402 21.4759 19.0132 22.5 19.0132C22.9594 19.0132 23.9487 19.2403 23.9487 20.5C23.9487 20.9598 23.7195 22.0385 22.5 22.0385Z" fill="white"/>
<path d="M33 20.5C33 19.1214 31.8786 18 30.5 18C29.1214 18 28 19.1214 28 20.5C28 21.8786 29.1214 23 30.5 23C31.8786 23 33 21.8786 33 20.5ZM30.5 22.0385C30.0406 22.0385 29.0898 21.7629 29.0898 20.5C29.0898 20.0402 29.4759 19.0132 30.5 19.0132C30.9594 19.0132 31.9487 19.2403 31.9487 20.5C31.9487 20.9598 31.7195 22.0385 30.5 22.0385Z" fill="white"/>
<path d="M41 20.5C41 19.1214 39.8786 18 38.5 18C37.1214 18 36 19.1214 36 20.5C36 21.8786 37.1214 23 38.5 23C39.8786 23 41 21.8786 41 20.5ZM38.5 22.0385C38.0406 22.0385 37.0898 21.7629 37.0898 20.5C37.0898 20.0402 37.4759 19.0132 38.5 19.0132C38.9594 19.0132 39.9487 19.2403 39.9487 20.5C39.9487 20.9598 39.7195 22.0385 38.5 22.0385Z" fill="white"/>
<path d="M21.7154 24.8931H23.5725C25.0682 24.8931 25.1354 25.8437 25.1354 26.356H26.3583C26.3583 24.8199 25.1087 23.5703 23.5725 23.5703H22.644H21.7154C20.1793 23.5703 18.9297 24.8199 18.9297 26.356H20.2666C20.2666 25.8437 20.5 24.8931 21.7154 24.8931Z" fill="white"/>
<path d="M29.7857 24.8931H31.6429C33.1385 24.8931 33.2057 25.8437 33.2057 26.356H34.4286C34.4286 24.8199 33.179 23.5703 31.6429 23.5703H30.7143H29.7857C28.2496 23.5703 27 24.8199 27 26.356H28.3369C28.3369 25.8437 28.5703 24.8931 29.7857 24.8931Z" fill="white"/>
<path d="M37.7857 24.8931H39.6429C41.1385 24.8931 41.2057 25.8437 41.2057 26.356H42.4286C42.4286 24.8199 41.179 23.5703 39.6429 23.5703H38.7143H37.7857C36.2496 23.5703 35 24.8199 35 26.356H36.3369C36.3369 25.8437 36.5703 24.8931 37.7857 24.8931Z" fill="white"/>
<path d="M43.0714 27.2857H18.9286C18.4158 27.2857 18 27.701 18 28.2143V43.0714C18 43.5847 18.4158 44 18.9286 44H43.0714C43.5842 44 44 43.5847 44 43.0714V28.2143C44 27.701 43.5842 27.2857 43.0714 27.2857ZM43.0714 32.8571H30.4313L31 28.2143H43.0714V32.8571ZM27.6455 32.8571L28.7403 28.2143H30.0714L29.5 32.8571H27.6455ZM18.9286 28.2143L27.5 28.0005L26.5 32.8571H18.9286V28.2143ZM32.5 37.0005C33.5866 37.0005 35.0305 38.5005 35.0305 39.8831C34.5855 39.7465 34.0981 39.6389 33.5866 39.5563C33.504 39.0447 32.6366 37.4455 32.5 37.0005ZM32.5 39.3571C32.2812 39.3491 31.2196 39.3571 31 39.3571C30.7804 39.3571 29.7188 39.3491 29.5 39.3571C29.6989 38.4262 30.8074 37.2453 31 37.0005C31.1926 37.2453 32.3011 38.4262 32.5 39.3571ZM28.4134 39.5563C27.9018 39.6389 27.4145 39.7465 26.9695 39.8831C27 38.0005 28.7597 37.3887 29.5 37.0005C29.3634 37.4455 28.496 39.0447 28.4134 39.5563ZM26.5 42.5005C26 41.5005 27.5 40.0005 28.5 40.5005C28.492 40.7197 28.5 42.2806 28.5 42.5005H26.5ZM30 42.5005C30 42.1846 29.4838 40.7856 29.5 40.5005C29.7869 40.4841 30.6819 40.5005 31 40.5005C31.3181 40.5005 32.2131 40.4841 32.5 40.5005C32.5162 40.7856 32 42.1846 32 42.5005H30ZM33.5866 40.5005C35 40.5005 36 41.8583 36 42.5005H33.5C33.5 42.2806 33.5946 40.7197 33.5866 40.5005ZM43.0714 43.0714H37.5C37.5 39.4877 34.5842 35.6428 31 35.6428C27.4158 35.6428 24.5 39.4877 24.5 43.0714H18.9286V38.1124V34.0005H43.0714V43.0714Z" fill="white"/>
<path d="M21.7143 31.9286C22.2271 31.9286 22.6428 31.5128 22.6428 31C22.6428 30.4872 22.2271 30.0714 21.7143 30.0714C21.2014 30.0714 20.7857 30.4872 20.7857 31C20.7857 31.5128 21.2014 31.9286 21.7143 31.9286Z" fill="white"/>
<path d="M24.5 31.9286C25.0128 31.9286 25.4286 31.5128 25.4286 31C25.4286 30.4872 25.0128 30.0714 24.5 30.0714C23.9871 30.0714 23.5714 30.4872 23.5714 31C23.5714 31.5128 23.9871 31.9286 24.5 31.9286Z" fill="white"/>
</svg>
