<svg width="61" height="60" viewBox="0 0 61 60" fill="none" xmlns="http://www.w3.org/2000/svg">
<rect width="61" height="60" rx="15" fill="#9671FF"/>
<path d="M45.6236 20.7579H31.3727C31.1656 20.7579 30.9976 20.9259 30.9976 21.133C30.9976 21.3401 31.1656 21.508 31.3727 21.508H45.2486V24.4781H30.9976H30.6226C30.4155 24.4781 30.2476 24.6461 30.2476 24.8532C30.2476 25.0603 30.4155 25.2282 30.6226 25.2282H30.9976H45.2486V39.7791H30.9976C30.7905 39.7791 30.6226 39.947 30.6226 40.1541C30.6226 40.3612 30.7905 40.5291 30.9976 40.5291H45.6236C45.8307 40.5291 45.9986 40.3612 45.9986 40.1541V24.8532V21.133C45.9986 20.9259 45.8307 20.7579 45.6236 20.7579Z" fill="white"/>
<path d="M43.8215 22.9917C43.8215 22.4154 43.3586 21.9466 42.7897 21.9466C42.2207 21.9466 41.7578 22.4154 41.7578 22.9917C41.7578 23.5679 42.2207 24.0367 42.7897 24.0367C43.3586 24.0367 43.8215 23.5679 43.8215 22.9917ZM42.5079 22.9917C42.5079 22.8291 42.6342 22.6967 42.7897 22.6967C42.9451 22.6967 43.0715 22.8291 43.0715 22.9917C43.0715 23.1543 42.9451 23.2867 42.7897 23.2867C42.6342 23.2867 42.5079 23.1543 42.5079 22.9917Z" fill="white"/>
<path d="M41.26 22.9917C41.26 22.4154 40.7971 21.9466 40.2281 21.9466C39.6592 21.9466 39.1963 22.4154 39.1963 22.9917C39.1963 23.5679 39.6592 24.0367 40.2281 24.0367C40.7971 24.0367 41.26 23.5679 41.26 22.9917ZM39.9463 22.9917C39.9463 22.8291 40.0727 22.6967 40.2281 22.6967C40.3836 22.6967 40.5099 22.8291 40.5099 22.9917C40.5099 23.1543 40.3836 23.2867 40.2281 23.2867C40.0727 23.2867 39.9463 23.1543 39.9463 22.9917Z" fill="white"/>
<path d="M38.6901 22.9917C38.6901 22.4154 38.2272 21.9466 37.6582 21.9466C37.0893 21.9466 36.6263 22.4154 36.6263 22.9917C36.6263 23.5679 37.0893 24.0367 37.6582 24.0367C38.2272 24.0367 38.6901 23.5679 38.6901 22.9917ZM37.3764 22.9917C37.3764 22.8291 37.5027 22.6967 37.6582 22.6967C37.8137 22.6967 37.94 22.8291 37.94 22.9917C37.94 23.1543 37.8137 23.2867 37.6582 23.2867C37.5027 23.2867 37.3764 23.1543 37.3764 22.9917Z" fill="white"/>
<path d="M29.5045 39.0938H29.2794C29.2444 37.4667 28.9482 35.5341 27.3397 34.2993C27.0206 34.0552 26.6723 33.8382 26.3047 33.6543C26.3035 33.6538 26.3022 33.6531 26.3009 33.6525C26.2969 33.6505 26.2928 33.6485 26.2888 33.6466C25.5567 33.3022 25.1019 32.6377 25.1019 31.9122V31.4588C27.4516 30.771 28.8922 28.5666 29.385 24.9008C29.4987 24.0622 29.5604 23.1445 29.5743 22.1736C29.7468 22.1399 29.8796 21.995 29.8796 21.8127V19.375C29.8796 19.1679 29.7116 19 29.5045 19H16.375C16.1679 19 16 19.1679 16 19.375V21.8127C16 21.9935 16.1306 22.1374 16.301 22.1728C16.3495 25.7575 17.1209 28.2998 18.6594 29.9301C19.2489 30.5569 19.9594 31.0566 20.7741 31.4183V31.9122C20.7741 32.6371 20.3203 33.3018 19.59 33.6468C19.5842 33.6496 19.5787 33.6525 19.573 33.6554C19.1938 33.8472 18.8705 34.0468 18.5796 34.2689C18.5728 34.2735 18.5426 34.2943 18.536 34.2995C16.931 35.5284 16.6351 37.4627 16.6001 39.0938H16.375C16.1679 39.0938 16 39.2618 16 39.4689V41.9065C16 42.1136 16.1679 42.2815 16.375 42.2815H29.5045C29.7116 42.2815 29.8796 42.1136 29.8796 41.9065V39.4689C29.8796 39.2618 29.7116 39.0938 29.5045 39.0938ZM16.75 19.75H29.1295V21.4377H16.75V19.75ZM18.9953 34.8933C19.0022 34.8885 19.0341 34.8662 19.0407 34.8613C19.2895 34.6706 19.5745 34.4952 19.9119 34.3245C19.9132 34.3238 19.9145 34.3231 19.9158 34.3225C20.9079 33.8516 21.5241 32.9285 21.5241 31.9122V31.1696C21.5241 31.0165 21.4309 30.8786 21.2888 30.8217C20.4769 30.4956 19.7761 30.0228 19.2053 29.4157C17.8039 27.9306 17.0972 25.5638 17.0489 22.1877H28.8266C28.8127 23.1198 28.7506 23.9971 28.6417 24.8004C28.1746 28.2747 26.8288 30.2947 24.6417 30.8043C24.4719 30.844 24.3518 30.9953 24.3518 31.1696V31.9122C24.3518 32.9299 24.97 33.8534 25.9654 34.3233C25.9667 34.324 25.968 34.3245 25.9693 34.3253C26.2947 34.4879 26.6025 34.6796 26.8836 34.8946C27.9632 35.7236 28.4762 37.0264 28.5289 39.0938H17.3505C17.4016 36.9968 17.9 35.7313 18.9953 34.8933ZM29.1295 41.5315H28.4184C28.4139 41.5313 28.4102 41.5289 28.4057 41.5289H17.4717C17.4672 41.5289 17.4635 41.5313 17.459 41.5315H16.75V39.8439H16.9713H28.9083H29.1295V41.5315Z" fill="white"/>
<path d="M43.1237 31.2118C43.3308 31.2118 43.4987 31.0439 43.4987 30.8368V26.9843C43.4987 26.7772 43.3308 26.6093 43.1237 26.6093H40.4293C40.2222 26.6093 40.0543 26.7772 40.0543 26.9843V30.8368C40.0543 31.0439 40.2222 31.2118 40.4293 31.2118H43.1237ZM40.8043 27.3594H42.7487V30.4617H40.8043V27.3594Z" fill="white"/>
<path d="M37.7339 27.3594H38.5037C38.7108 27.3594 38.8787 27.1914 38.8787 26.9843C38.8787 26.7772 38.7108 26.6093 38.5037 26.6093H37.7339C37.5267 26.6093 37.3588 26.7772 37.3588 26.9843C37.3588 27.1914 37.5267 27.3594 37.7339 27.3594Z" fill="white"/>
<path d="M30.4175 27.3594H36.191C36.3981 27.3594 36.566 27.1914 36.566 26.9843C36.566 26.7772 36.3981 26.6093 36.191 26.6093H30.4175C30.2104 26.6093 30.0425 26.7772 30.0425 26.9843C30.0425 27.1914 30.2104 27.3594 30.4175 27.3594Z" fill="white"/>
<path d="M37.7339 31.2059H38.5037C38.7108 31.2059 38.8787 31.0379 38.8787 30.8308C38.8787 30.6237 38.7108 30.4558 38.5037 30.4558H37.7339C37.5267 30.4558 37.3588 30.6237 37.3588 30.8308C37.3588 31.0379 37.5267 31.2059 37.7339 31.2059Z" fill="white"/>
<path d="M30.4175 31.2059H36.191C36.3981 31.2059 36.566 31.0379 36.566 30.8308C36.566 30.6237 36.3981 30.4558 36.191 30.4558H30.4175C30.2104 30.4558 30.0425 30.6237 30.0425 30.8308C30.0425 31.0379 30.2104 31.2059 30.4175 31.2059Z" fill="white"/>
<path d="M37.7339 29.2805H38.5037C38.7108 29.2805 38.8787 29.1126 38.8787 28.9055C38.8787 28.6984 38.7108 28.5305 38.5037 28.5305H37.7339C37.5267 28.5305 37.3588 28.6984 37.3588 28.9055C37.3588 29.1126 37.5267 29.2805 37.7339 29.2805Z" fill="white"/>
<path d="M30.4175 29.2805H36.191C36.3981 29.2805 36.566 29.1126 36.566 28.9055C36.566 28.6984 36.3981 28.5305 36.191 28.5305H30.4175C30.2104 28.5305 30.0425 28.6984 30.0425 28.9055C30.0425 29.1126 30.2104 29.2805 30.4175 29.2805Z" fill="white"/>
<path d="M33.8716 36.9961C33.8716 36.789 33.7037 36.6211 33.4966 36.6211H30.4175C30.2104 36.6211 30.0425 36.789 30.0425 36.9961C30.0425 37.2033 30.2104 37.3712 30.4175 37.3712H33.4966C33.7037 37.3712 33.8716 37.2033 33.8716 36.9961Z" fill="white"/>
<path d="M40.812 36.6211H35.8085C35.6014 36.6211 35.4335 36.789 35.4335 36.9961C35.4335 37.2033 35.6014 37.3712 35.8085 37.3712H40.812C41.0191 37.3712 41.187 37.2033 41.187 36.9961C41.187 36.789 41.0191 36.6211 40.812 36.6211Z" fill="white"/>
<path d="M30.4175 34.6958C30.2104 34.6958 30.0425 34.8637 30.0425 35.0708C30.0425 35.2779 30.2104 35.4458 30.4175 35.4458H33.4966C33.7037 35.4458 33.8716 35.2779 33.8716 35.0708C33.8716 34.8637 33.7037 34.6958 33.4966 34.6958H30.4175Z" fill="white"/>
<path d="M40.812 34.6958H35.8085C35.6014 34.6958 35.4335 34.8637 35.4335 35.0708C35.4335 35.2779 35.6014 35.4458 35.8085 35.4458H40.812C41.0191 35.4458 41.187 35.2779 41.187 35.0708C41.187 34.8637 41.0191 34.6958 40.812 34.6958Z" fill="white"/>
<path d="M29.2723 32.7604C29.2723 32.9675 29.4403 33.1354 29.6474 33.1354H43.8884C44.0955 33.1354 44.2634 32.9675 44.2634 32.7604C44.2634 32.5533 44.0955 32.3853 43.8884 32.3853H29.6474C29.4403 32.3853 29.2723 32.5533 29.2723 32.7604Z" fill="white"/>
<path d="M28.2301 32.4937C28.1625 32.5649 28.1213 32.6623 28.1213 32.7599C28.1213 32.8573 28.1625 32.9549 28.2301 33.0262C28.3013 33.0937 28.3989 33.1349 28.4964 33.1349C28.5938 33.1349 28.6914 33.0937 28.7626 33.0262C28.8302 32.9549 28.8714 32.8573 28.8714 32.7599C28.8714 32.6623 28.8302 32.5649 28.7626 32.4937C28.6201 32.3549 28.3689 32.3549 28.2301 32.4937Z" fill="white"/>
<path d="M26.9561 32.3853C26.749 32.3853 26.5811 32.5533 26.5811 32.7604C26.5811 32.9675 26.749 33.1354 26.9561 33.1354H27.341C27.5481 33.1354 27.716 32.9675 27.716 32.7604C27.716 32.5533 27.5481 32.3853 27.341 32.3853H26.9561Z" fill="white"/>
</svg>
