<svg width="140" height="51" viewBox="0 0 140 51" fill="none" xmlns="http://www.w3.org/2000/svg">
<circle cx="81.0094" cy="10.6667" r="1.66667" fill="#00A6ED"/>
<line x1="81.1763" y1="11.6667" x2="81.1763" y2="51.0001" stroke="url(#paint0_linear_470_1538)"/>
<path d="M3.62161 43.543C7.51506 43.043 12.5513 36.0316 16.4447 35.5317C20.3382 35.0318 25.3744 28.0204 29.2678 27.5205C33.1613 27.0205 39.2311 28.0597 43.1246 27.5598C47.018 27.0599 54.1216 36.1497 58.015 35.6498C61.9085 35.1499 64.7625 11.1427 68.6559 10.6428C72.5494 10.1429 78.6193 11.1821 82.5127 10.6822C86.4062 10.1823 94.5434 27.3227 98.4368 26.8228C102.33 26.3229 108.745 30.0456 112.638 29.5457C116.532 29.0458 121.223 19.3508 125.117 18.8509C129.01 18.351 132.783 1.49991 136.676 1.00001" stroke="#00A6ED" stroke-linejoin="round" stroke-dasharray="2 2"/>
<defs>
<linearGradient id="paint0_linear_470_1538" x1="81.6762" y1="31.0001" x2="81.6762" y2="51.0001" gradientUnits="userSpaceOnUse">
<stop stop-color="#00A6ED"/>
<stop offset="1" stop-color="#00A6ED" stop-opacity="0.13"/>
</linearGradient>
</defs>
</svg>
