<svg width="77" height="78" viewBox="0 0 77 78" fill="none" xmlns="http://www.w3.org/2000/svg">
<path d="M65.1836 39C65.1836 32.2516 62.6565 25.7479 58.1001 20.77C53.5437 15.7921 47.2884 12.7009 40.5663 12.1053C33.8443 11.5098 27.1429 13.4531 21.7823 17.5524C16.4217 21.6518 12.7906 27.6099 11.6041 34.2531C10.4177 40.8964 11.762 47.7431 15.3723 53.4446C18.9826 59.146 24.597 63.2888 31.1096 65.0568C37.6223 66.8249 44.5609 66.09 50.5587 62.997C56.5565 59.904 61.1786 54.677 63.5145 48.3458L59.6048 46.9033C57.6294 52.2573 53.7207 56.6775 48.6487 59.2932C43.5766 61.9088 37.7089 62.5303 32.2015 61.0351C26.694 59.5399 21.9462 56.0365 18.8931 51.2151C15.8401 46.3937 14.7033 40.6037 15.7066 34.9858C16.7099 29.3679 19.7806 24.3294 24.3138 20.8628C28.847 17.3962 34.514 15.7528 40.1986 16.2564C45.8831 16.76 51.1729 19.3741 55.0261 23.5837C58.8792 27.7933 61.0163 33.2932 61.0163 39H65.1836Z" fill="#D9D9D9"/>
<path d="M52.2349 62.0555C57.6072 58.7814 61.6674 53.7339 63.7144 47.7849C65.7615 41.8359 65.6667 35.3588 63.4466 29.4721C61.2265 23.5855 57.0204 18.659 51.5547 15.5433C46.089 12.4277 39.7068 11.3185 33.5104 12.4074C27.314 13.4963 21.6924 16.7149 17.6164 21.5074C13.5404 26.2998 11.2659 32.3652 11.1858 38.656C11.1057 44.9469 13.2249 51.0682 17.1775 55.963C21.1301 60.8577 26.6679 64.2184 32.8346 65.4648L33.6602 61.38C28.4453 60.326 23.7623 57.484 20.4197 53.3448C17.0772 49.2056 15.285 44.029 15.3528 38.7091C15.4205 33.3892 17.344 28.26 20.7908 24.2073C24.2377 20.1545 28.9917 17.4327 34.2317 16.5119C39.4717 15.591 44.8688 16.529 49.4909 19.1637C54.113 21.7985 57.6699 25.9646 59.5474 30.9427C61.4248 35.9208 61.5049 41.3982 59.7739 46.429C58.0428 51.4598 54.6092 55.7282 50.0662 58.497L52.2349 62.0555Z" fill="#84D149"/>
</svg>
