<svg width="61" height="60" viewBox="0 0 61 60" fill="none" xmlns="http://www.w3.org/2000/svg">
<rect width="61" height="60" rx="15" fill="#FF595E" fill-opacity="0.6"/>
<path d="M30 20C24.477 20 20 24.477 20 30C20 35.523 24.477 40 30 40C35.523 40 40 35.523 40 30C40 24.477 35.523 20 30 20ZM36.918 26H33.703C33.5535 24.8748 33.3651 23.7551 33.138 22.643C34.7259 23.3269 36.0513 24.504 36.918 26ZM31.014 22.072C31.082 22.424 31.401 24.11 31.659 26H28.341C28.599 24.11 28.918 22.424 28.986 22.072C29.319 22.029 29.656 22 30 22C30.344 22 30.681 22.029 31.014 22.072ZM32 30C32 30.598 31.957 31.286 31.891 32H28.109C28.043 31.286 28 30.598 28 30C28 29.402 28.043 28.714 28.109 28H31.891C31.957 28.714 32 29.402 32 30ZM26.862 22.643C26.6349 23.7551 26.4465 24.8748 26.297 26H23.082C23.9487 24.504 25.2741 23.3269 26.862 22.643ZM22.263 28H26.084C26.033 28.668 26 29.344 26 30C26 30.656 26.033 31.332 26.085 32H22.263C22.097 31.359 22 30.692 22 30C22 29.308 22.098 28.641 22.263 28ZM23.082 34H26.297C26.485 35.424 26.717 36.65 26.862 37.357C25.2741 36.6731 23.9487 35.496 23.082 34ZM28.986 37.928C28.7373 36.6244 28.5222 35.3147 28.341 34H31.659C31.4773 35.3146 31.2623 36.6243 31.014 37.928C30.681 37.971 30.344 38 30 38C29.656 38 29.319 37.971 28.986 37.928ZM33.138 37.357C33.283 36.65 33.515 35.424 33.703 34H36.918C36.0513 35.496 34.7259 36.6731 33.138 37.357ZM37.737 32H33.916C33.967 31.332 34 30.656 34 30C34 29.344 33.967 28.668 33.915 28H37.736C37.902 28.641 38 29.308 38 30C38 30.692 37.903 31.359 37.737 32Z" fill="white"/>
</svg>
