<svg width="52" height="52" viewBox="0 0 52 52" fill="none" xmlns="http://www.w3.org/2000/svg">
<g clip-path="url(#clip0_59_2547)">
<path d="M34.7351 14.187C34.735 14.1868 34.7349 14.1866 34.7349 14.1866C34.7072 14.1416 34.664 14.106 34.6102 14.0884C34.61 14.0884 34.6098 14.0883 34.6097 14.0882C34.6091 14.088 34.6085 14.0878 34.6079 14.0876C34.603 14.0861 34.5982 14.0847 34.5933 14.0835C34.5412 14.0708 34.4886 14.0768 34.4429 14.0976C34.4264 14.1052 34.4107 14.1146 34.3962 14.1259C34.3771 14.1409 34.3602 14.1589 34.3465 14.1795C32.6924 16.5362 30.1136 18 27.6153 18C26.0391 18 24.5641 17.3589 23.3368 16.1433L24.317 15.1632C24.3778 15.1023 24.3997 15.0128 24.3738 14.9307C24.348 14.8486 24.2786 14.7877 24.1939 14.7728L24.1055 14.7573L25.0874 13.7789C25.1492 13.7173 25.171 13.6261 25.1437 13.5432C25.1163 13.4602 25.0445 13.3999 24.9581 13.3872L17.2499 12.2512C17.169 12.2392 17.0873 12.2713 17.036 12.3353L16.1274 13.4713C16.1268 13.4719 16.1265 13.4727 16.1261 13.4733C16.1178 13.4838 16.1107 13.495 16.1045 13.5067C16.1034 13.5087 16.1021 13.5108 16.1011 13.5128C16.0953 13.5244 16.0908 13.5364 16.087 13.5487C16.0862 13.5517 16.0854 13.5545 16.0846 13.5575C16.0814 13.5699 16.0789 13.5826 16.0778 13.5954C16.0777 13.597 16.0777 13.5986 16.0776 13.6002C16.0768 13.6122 16.077 13.6243 16.0782 13.6365C16.0784 13.6388 16.0785 13.6411 16.0788 13.6434C16.079 13.6449 16.079 13.6465 16.0792 13.6481L17.233 21.725C17.2454 21.8116 17.3056 21.8837 17.3885 21.9113C17.4715 21.939 17.5628 21.9173 17.6247 21.8555L19.2919 20.1884C21.5099 22.8223 23.7298 24 26.4615 24C31.1976 24 34.7692 20.4285 34.7692 15.6923V14.3128C34.7698 14.2842 34.7651 14.2561 34.7557 14.2298C34.7503 14.2148 34.7433 14.2005 34.7351 14.187ZM34.3076 15.6923C34.3076 20.1653 30.9345 23.5385 26.4615 23.5385C23.8141 23.5385 21.6628 22.3546 19.4861 19.6999C19.4448 19.6495 19.3841 19.6189 19.319 19.6157C19.3152 19.6155 19.3114 19.6154 19.3076 19.6154C19.2466 19.6154 19.1878 19.6396 19.1444 19.683L17.6246 21.2028L16.5811 13.898L23.584 15.1336L23.5842 15.1336L23.5881 15.1343L23.6773 15.1501L22.8492 15.9783C22.8489 15.9785 22.8486 15.9788 22.8483 15.9791L21.6828 17.1446C21.6392 17.1882 21.6149 17.2474 21.6153 17.3091C21.6157 17.3708 21.6407 17.4297 21.6848 17.4728C23.4977 19.2438 25.2352 20.0713 27.153 20.077C27.1624 20.077 27.1716 20.0771 27.1809 20.0771C28.9934 20.077 30.6515 19.544 31.9772 18.5347C32.9671 17.7811 33.7589 16.7735 34.3076 15.5795V15.6923Z" fill="white"/>
<path d="M19.5381 9.69231C20.1702 9.69231 20.6878 9.20971 20.7165 8.5939C20.7318 8.27527 20.6192 7.97285 20.3996 7.74242C20.1796 7.51165 19.8829 7.38456 19.5641 7.38456H16.3541C14.955 7.38456 13.7955 6.26792 13.7694 4.89537C13.7563 4.20871 14.0145 3.56019 14.4963 3.06917C14.9782 2.57815 15.6214 2.30769 16.3073 2.30769H27.8458C28.3547 2.30769 28.7689 2.72181 28.7689 3.23077V3.46154C28.7689 4.09777 29.2865 4.61538 29.9227 4.61538C30.2306 4.61538 30.5204 4.49556 30.7392 4.27754C30.9568 4.05929 31.0766 3.7695 31.0766 3.46154V3C31.0766 1.34579 29.7308 0 28.0766 0H16.3662C13.6874 0 11.487 2.1525 11.4612 4.79833C11.4486 6.10004 11.9473 7.32738 12.8653 8.25438C13.7836 9.18167 15.006 9.69231 16.3073 9.69231H19.5381Z" fill="white"/>
<path d="M29.6897 5.29524C29.6661 5.77507 29.4457 6.21919 29.0849 6.51353C28.9862 6.59407 28.9714 6.73946 29.052 6.83823C29.0976 6.89413 29.164 6.92309 29.2309 6.92309C29.2822 6.92309 29.3339 6.90607 29.3767 6.87111C29.8386 6.49421 30.1207 5.92807 30.1507 5.31786C30.157 5.19059 30.0589 5.0823 29.9316 5.07607C29.8045 5.06932 29.696 5.16792 29.6897 5.29524Z" fill="white"/>
<path d="M39.1341 1.43787C38.2158 0.510635 36.9934 0 35.6921 0H32.4613C31.8292 0 31.3116 0.482596 31.2829 1.0984C31.2676 1.41704 31.3802 1.71946 31.5999 1.94988C31.8198 2.18065 32.1165 2.30775 32.4354 2.30775H35.6454C37.0444 2.30775 38.2039 3.42438 38.23 4.79694C38.2431 5.4836 37.9849 6.13212 37.5031 6.62313C37.0213 7.11415 36.378 7.38462 35.6921 7.38462H24.1536C23.6447 7.38462 23.2305 6.9705 23.2305 6.46154V6.23077C23.2305 5.59454 22.7129 5.07692 22.0767 5.07692C21.7688 5.07692 21.479 5.19675 21.2602 5.41477C21.0426 5.63302 20.9229 5.92281 20.9229 6.23077V6.69231C20.9229 8.34652 22.2686 9.69231 23.9229 9.69231H35.6332C38.312 9.69231 40.5124 7.53981 40.5382 4.89398C40.5508 3.59227 40.0521 2.36487 39.1341 1.43787Z" fill="white"/>
<path d="M22.623 2.82123C22.1611 3.19813 21.879 3.76426 21.8489 4.37448C21.8427 4.50175 21.9408 4.61003 22.0681 4.61626C22.072 4.61644 22.0758 4.61655 22.0796 4.61655C22.2019 4.61655 22.3039 4.52055 22.3099 4.39709C22.3335 3.91727 22.554 3.47315 22.9148 3.1788C23.0135 3.09826 23.0283 2.95288 22.9477 2.85411C22.8671 2.75534 22.7217 2.74063 22.623 2.82123Z" fill="white"/>
</g>
<path d="M4.03125 45.0098H1.86914L1.85742 44.1016H3.82031C4.14453 44.1016 4.42773 44.0469 4.66992 43.9375C4.91211 43.8281 5.09961 43.6719 5.23242 43.4688C5.36914 43.2617 5.4375 43.0156 5.4375 42.7305C5.4375 42.418 5.37695 42.1641 5.25586 41.9688C5.13867 41.7695 4.95703 41.625 4.71094 41.5352C4.46875 41.4414 4.16016 41.3945 3.78516 41.3945H2.12109V49H0.990234V40.4688H3.78516C4.22266 40.4688 4.61328 40.5137 4.95703 40.6035C5.30078 40.6895 5.5918 40.8262 5.83008 41.0137C6.07227 41.1973 6.25586 41.4316 6.38086 41.7168C6.50586 42.002 6.56836 42.3438 6.56836 42.7422C6.56836 43.0938 6.47852 43.4121 6.29883 43.6973C6.11914 43.9785 5.86914 44.209 5.54883 44.3887C5.23242 44.5684 4.86133 44.6836 4.43555 44.7344L4.03125 45.0098ZM3.97852 49H1.42383L2.0625 48.0801H3.97852C4.33789 48.0801 4.64258 48.0176 4.89258 47.8926C5.14648 47.7676 5.33984 47.5918 5.47266 47.3652C5.60547 47.1348 5.67188 46.8633 5.67188 46.5508C5.67188 46.2344 5.61523 45.9609 5.50195 45.7305C5.38867 45.5 5.21094 45.3223 4.96875 45.1973C4.72656 45.0723 4.41406 45.0098 4.03125 45.0098H2.41992L2.43164 44.1016H4.63477L4.875 44.4297C5.28516 44.4648 5.63281 44.582 5.91797 44.7812C6.20312 44.9766 6.41992 45.2266 6.56836 45.5312C6.7207 45.8359 6.79688 46.1719 6.79688 46.5391C6.79688 47.0703 6.67969 47.5195 6.44531 47.8867C6.21484 48.25 5.88867 48.5273 5.4668 48.7188C5.04492 48.9062 4.54883 49 3.97852 49ZM12.041 47.916V44.6523C12.041 44.4023 11.9902 44.1855 11.8887 44.002C11.791 43.8145 11.6426 43.6699 11.4434 43.5684C11.2441 43.4668 10.998 43.416 10.7051 43.416C10.4316 43.416 10.1914 43.4629 9.98438 43.5566C9.78125 43.6504 9.62109 43.7734 9.50391 43.9258C9.39062 44.0781 9.33398 44.2422 9.33398 44.418H8.25C8.25 44.1914 8.30859 43.9668 8.42578 43.7441C8.54297 43.5215 8.71094 43.3203 8.92969 43.1406C9.15234 42.957 9.41797 42.8125 9.72656 42.707C10.0391 42.5977 10.3867 42.543 10.7695 42.543C11.2305 42.543 11.6367 42.6211 11.9883 42.7773C12.3438 42.9336 12.6211 43.1699 12.8203 43.4863C13.0234 43.7988 13.125 44.1914 13.125 44.6641V47.6172C13.125 47.8281 13.1426 48.0527 13.1777 48.291C13.2168 48.5293 13.2734 48.7344 13.3477 48.9062V49H12.2168C12.1621 48.875 12.1191 48.709 12.0879 48.502C12.0566 48.291 12.041 48.0957 12.041 47.916ZM12.2285 45.1562L12.2402 45.918H11.1445C10.8359 45.918 10.5605 45.9434 10.3184 45.9941C10.0762 46.041 9.87305 46.1133 9.70898 46.2109C9.54492 46.3086 9.41992 46.4316 9.33398 46.5801C9.24805 46.7246 9.20508 46.8945 9.20508 47.0898C9.20508 47.2891 9.25 47.4707 9.33984 47.6348C9.42969 47.7988 9.56445 47.9297 9.74414 48.0273C9.92773 48.1211 10.1523 48.168 10.418 48.168C10.75 48.168 11.043 48.0977 11.2969 47.957C11.5508 47.8164 11.752 47.6445 11.9004 47.4414C12.0527 47.2383 12.1348 47.041 12.1465 46.8496L12.6094 47.3711C12.582 47.5352 12.5078 47.7168 12.3867 47.916C12.2656 48.1152 12.1035 48.3066 11.9004 48.4902C11.7012 48.6699 11.4629 48.8203 11.1855 48.9414C10.9121 49.0586 10.6035 49.1172 10.2598 49.1172C9.83008 49.1172 9.45312 49.0332 9.12891 48.8652C8.80859 48.6973 8.55859 48.4727 8.37891 48.1914C8.20312 47.9062 8.11523 47.5879 8.11523 47.2363C8.11523 46.8965 8.18164 46.5977 8.31445 46.3398C8.44727 46.0781 8.63867 45.8613 8.88867 45.6895C9.13867 45.5137 9.43945 45.3809 9.79102 45.291C10.1426 45.2012 10.5352 45.1562 10.9688 45.1562H12.2285ZM17.3672 48.2266C17.625 48.2266 17.8633 48.1738 18.082 48.0684C18.3008 47.9629 18.4805 47.8184 18.6211 47.6348C18.7617 47.4473 18.8418 47.2344 18.8613 46.9961H19.8926C19.873 47.3711 19.7461 47.7207 19.5117 48.0449C19.2812 48.3652 18.9785 48.625 18.6035 48.8242C18.2285 49.0195 17.8164 49.1172 17.3672 49.1172C16.8906 49.1172 16.4746 49.0332 16.1191 48.8652C15.7676 48.6973 15.4746 48.4668 15.2402 48.1738C15.0098 47.8809 14.8359 47.5449 14.7188 47.166C14.6055 46.7832 14.5488 46.3789 14.5488 45.9531V45.707C14.5488 45.2812 14.6055 44.8789 14.7188 44.5C14.8359 44.1172 15.0098 43.7793 15.2402 43.4863C15.4746 43.1934 15.7676 42.9629 16.1191 42.7949C16.4746 42.627 16.8906 42.543 17.3672 42.543C17.8633 42.543 18.2969 42.6445 18.668 42.8477C19.0391 43.0469 19.3301 43.3203 19.541 43.668C19.7559 44.0117 19.873 44.4023 19.8926 44.8398H18.8613C18.8418 44.5781 18.7676 44.3418 18.6387 44.1309C18.5137 43.9199 18.3418 43.752 18.123 43.627C17.9082 43.498 17.6562 43.4336 17.3672 43.4336C17.0352 43.4336 16.7559 43.5 16.5293 43.6328C16.3066 43.7617 16.1289 43.9375 15.9961 44.1602C15.8672 44.3789 15.7734 44.623 15.7148 44.8926C15.6602 45.1582 15.6328 45.4297 15.6328 45.707V45.9531C15.6328 46.2305 15.6602 46.5039 15.7148 46.7734C15.7695 47.043 15.8613 47.2871 15.9902 47.5059C16.123 47.7246 16.3008 47.9004 16.5234 48.0332C16.75 48.1621 17.0312 48.2266 17.3672 48.2266ZM22.2012 40V49H21.1113V40H22.2012ZM26.0742 42.6602L23.3086 45.6191L21.7617 47.2246L21.6738 46.0703L22.7812 44.7461L24.75 42.6602H26.0742ZM25.084 49L22.8223 45.9766L23.3848 45.0098L26.3613 49H25.084ZM28.3711 40V49H27.2812V40H28.3711ZM31.2891 42.6602V49H30.1992V42.6602H31.2891ZM30.1172 40.9785C30.1172 40.8027 30.1699 40.6543 30.2754 40.5332C30.3848 40.4121 30.5449 40.3516 30.7559 40.3516C30.9629 40.3516 31.1211 40.4121 31.2305 40.5332C31.3438 40.6543 31.4004 40.8027 31.4004 40.9785C31.4004 41.1465 31.3438 41.291 31.2305 41.4121C31.1211 41.5293 30.9629 41.5879 30.7559 41.5879C30.5449 41.5879 30.3848 41.5293 30.2754 41.4121C30.1699 41.291 30.1172 41.1465 30.1172 40.9785ZM34.1133 44.0137V49H33.0293V42.6602H34.0547L34.1133 44.0137ZM33.8555 45.5898L33.4043 45.5723C33.4082 45.1387 33.4727 44.7383 33.5977 44.3711C33.7227 44 33.8984 43.6777 34.125 43.4043C34.3516 43.1309 34.6211 42.9199 34.9336 42.7715C35.25 42.6191 35.5996 42.543 35.9824 42.543C36.2949 42.543 36.5762 42.5859 36.8262 42.6719C37.0762 42.7539 37.2891 42.8867 37.4648 43.0703C37.6445 43.2539 37.7812 43.4922 37.875 43.7852C37.9688 44.0742 38.0156 44.4277 38.0156 44.8457V49H36.9258V44.834C36.9258 44.502 36.877 44.2363 36.7793 44.0371C36.6816 43.834 36.5391 43.6875 36.3516 43.5977C36.1641 43.5039 35.9336 43.457 35.6602 43.457C35.3906 43.457 35.1445 43.5137 34.9219 43.627C34.7031 43.7402 34.5137 43.8965 34.3535 44.0957C34.1973 44.2949 34.0742 44.5234 33.9844 44.7812C33.8984 45.0352 33.8555 45.3047 33.8555 45.5898ZM40.752 40V49H39.6621V40H40.752ZM44.625 42.6602L41.8594 45.6191L40.3125 47.2246L40.2246 46.0703L41.332 44.7461L43.3008 42.6602H44.625ZM43.6348 49L41.373 45.9766L41.9355 45.0098L44.9121 49H43.6348ZM49.4355 47.3184C49.4355 47.1621 49.4004 47.0176 49.3301 46.8848C49.2637 46.748 49.125 46.625 48.9141 46.5156C48.707 46.4023 48.3945 46.3047 47.9766 46.2227C47.625 46.1484 47.3066 46.0605 47.0215 45.959C46.7402 45.8574 46.5 45.7344 46.3008 45.5898C46.1055 45.4453 45.9551 45.2754 45.8496 45.0801C45.7441 44.8848 45.6914 44.6562 45.6914 44.3945C45.6914 44.1445 45.7461 43.9082 45.8555 43.6855C45.9688 43.4629 46.127 43.2656 46.3301 43.0938C46.5371 42.9219 46.7852 42.7871 47.0742 42.6895C47.3633 42.5918 47.6855 42.543 48.041 42.543C48.5488 42.543 48.9824 42.6328 49.3418 42.8125C49.7012 42.9922 49.9766 43.2324 50.168 43.5332C50.3594 43.8301 50.4551 44.1602 50.4551 44.5234H49.3711C49.3711 44.3477 49.3184 44.1777 49.2129 44.0137C49.1113 43.8457 48.9609 43.707 48.7617 43.5977C48.5664 43.4883 48.3262 43.4336 48.041 43.4336C47.7402 43.4336 47.4961 43.4805 47.3086 43.5742C47.125 43.6641 46.9902 43.7793 46.9043 43.9199C46.8223 44.0605 46.7812 44.209 46.7812 44.3652C46.7812 44.4824 46.8008 44.5879 46.8398 44.6816C46.8828 44.7715 46.957 44.8555 47.0625 44.9336C47.168 45.0078 47.3164 45.0781 47.5078 45.1445C47.6992 45.2109 47.9434 45.2773 48.2402 45.3438C48.7598 45.4609 49.1875 45.6016 49.5234 45.7656C49.8594 45.9297 50.1094 46.1309 50.2734 46.3691C50.4375 46.6074 50.5195 46.8965 50.5195 47.2363C50.5195 47.5137 50.4609 47.7676 50.3438 47.998C50.2305 48.2285 50.0645 48.4277 49.8457 48.5957C49.6309 48.7598 49.373 48.8887 49.0723 48.9824C48.7754 49.0723 48.4414 49.1172 48.0703 49.1172C47.5117 49.1172 47.0391 49.0176 46.6523 48.8184C46.2656 48.6191 45.9727 48.3613 45.7734 48.0449C45.5742 47.7285 45.4746 47.3945 45.4746 47.043H46.5645C46.5801 47.3398 46.666 47.5762 46.8223 47.752C46.9785 47.9238 47.1699 48.0469 47.3965 48.1211C47.623 48.1914 47.8477 48.2266 48.0703 48.2266C48.3672 48.2266 48.6152 48.1875 48.8145 48.1094C49.0176 48.0312 49.1719 47.9238 49.2773 47.7871C49.3828 47.6504 49.4355 47.4941 49.4355 47.3184Z" fill="#FCFEFF"/>
<defs>
<clipPath id="clip0_59_2547">
<rect width="29.0774" height="30" fill="white" transform="translate(11.4609)"/>
</clipPath>
</defs>
</svg>
