<svg width="20" height="15" viewBox="0 0 20 15" fill="none" xmlns="http://www.w3.org/2000/svg">
<path d="M4.86887 14.9946C3.24714 14.9946 1.68225 14.9946 0 14.9946C0.292686 14.5593 0.521813 14.2056 0.763778 13.8607C3.61299 9.79964 6.46573 5.74103 9.31397 1.67931C10.4866 0.00714948 12.7248 -0.492665 14.5456 0.52745C15.927 1.30133 17.3026 2.08515 18.6814 2.8635C19.0897 3.09396 19.5 3.32088 20 3.60002C19.7817 3.62383 19.6638 3.64769 19.5458 3.6479C18.1066 3.65046 16.6673 3.6443 15.2281 3.65431C14.9664 3.65613 14.7762 3.60469 14.5909 3.39525C14.3039 3.07084 13.8976 3.0786 13.5917 3.35695C13.3122 3.61133 13.2977 4.1035 13.5618 4.37075C13.8405 4.65276 14.301 4.69824 14.5646 4.38945C14.7961 4.11813 15.0475 4.0927 15.3571 4.09447C16.7205 4.10231 18.0841 4.09786 19.4476 4.09786C19.593 4.09786 19.7383 4.09786 19.8837 4.09786C19.8948 4.1243 19.9059 4.15075 19.917 4.17719C19.7535 4.28125 19.5946 4.39343 19.4257 4.48804C18.3734 5.07754 17.3196 5.6646 16.2642 6.24872C16.0571 6.36335 15.8839 6.4744 15.9231 6.76164C16.1108 8.13764 15.8147 9.44021 15.2464 10.6845C14.2163 12.9401 12.4705 14.3305 10.0166 14.8182C9.52072 14.9167 9.01001 14.9765 8.50477 14.9868C7.3122 15.011 6.1188 14.9946 4.86887 14.9946Z" fill="white"/>
</svg>
