<svg width="86" height="52" viewBox="0 0 86 52" fill="none" xmlns="http://www.w3.org/2000/svg">
<path d="M39.3125 11.25H36.825V7.49999H39.3125V5.03749H36.825V3.78749C36.825 2.39999 37.9375 1.29999 39.3125 1.29999H46.7875V9.99999L49.875 8.12499L53 9.99999V1.29999H54.25C55.5625 1.29999 56.75 2.49999 56.75 3.78749V21.25C56.75 22.5375 55.5625 23.75 54.25 23.75H39.3125C38 23.75 36.825 22.5625 36.825 21.25V20H39.3125V17.5H36.825V13.75H39.3125V11.25ZM29.25 22.5H31.75V18.75H29.25V16.25H31.75V12.5H29.25V9.99999H31.75V6.24999H34.25V9.99999H31.75V12.5H34.25V16.25H31.75V18.75H34.25V22.5H31.75V25H34.25V26.25H54.25V28.75H34.25C33.587 28.75 32.9511 28.4866 32.4822 28.0178C32.0134 27.5489 31.75 26.913 31.75 26.25V25H29.25V22.5Z" fill="#F8F8F8"/>
<path d="M6.22656 46.2871H7.35156C7.29297 46.8262 7.13867 47.3086 6.88867 47.7344C6.63867 48.1602 6.28516 48.498 5.82812 48.748C5.37109 48.9941 4.80078 49.1172 4.11719 49.1172C3.61719 49.1172 3.16211 49.0234 2.75195 48.8359C2.3457 48.6484 1.99609 48.3828 1.70312 48.0391C1.41016 47.6914 1.18359 47.2754 1.02344 46.791C0.867188 46.3027 0.789062 45.7598 0.789062 45.1621V44.3125C0.789062 43.7148 0.867188 43.1738 1.02344 42.6895C1.18359 42.2012 1.41211 41.7832 1.70898 41.4355C2.00977 41.0879 2.37109 40.8203 2.79297 40.6328C3.21484 40.4453 3.68945 40.3516 4.2168 40.3516C4.86133 40.3516 5.40625 40.4727 5.85156 40.7148C6.29688 40.957 6.64258 41.293 6.88867 41.7227C7.13867 42.1484 7.29297 42.6426 7.35156 43.2051H6.22656C6.17188 42.8066 6.07031 42.4648 5.92188 42.1797C5.77344 41.8906 5.5625 41.668 5.28906 41.5117C5.01562 41.3555 4.6582 41.2773 4.2168 41.2773C3.83789 41.2773 3.50391 41.3496 3.21484 41.4941C2.92969 41.6387 2.68945 41.8438 2.49414 42.1094C2.30273 42.375 2.1582 42.6934 2.06055 43.0645C1.96289 43.4355 1.91406 43.8477 1.91406 44.3008V45.1621C1.91406 45.5801 1.95703 45.9727 2.04297 46.3398C2.13281 46.707 2.26758 47.0293 2.44727 47.3066C2.62695 47.584 2.85547 47.8027 3.13281 47.9629C3.41016 48.1191 3.73828 48.1973 4.11719 48.1973C4.59766 48.1973 4.98047 48.1211 5.26562 47.9688C5.55078 47.8164 5.76562 47.5977 5.91016 47.3125C6.05859 47.0273 6.16406 46.6855 6.22656 46.2871ZM8.44141 45.9004V45.7656C8.44141 45.3086 8.50781 44.8848 8.64062 44.4941C8.77344 44.0996 8.96484 43.7578 9.21484 43.4688C9.46484 43.1758 9.76758 42.9492 10.123 42.7891C10.4785 42.625 10.877 42.543 11.3184 42.543C11.7637 42.543 12.1641 42.625 12.5195 42.7891C12.8789 42.9492 13.1836 43.1758 13.4336 43.4688C13.6875 43.7578 13.8809 44.0996 14.0137 44.4941C14.1465 44.8848 14.2129 45.3086 14.2129 45.7656V45.9004C14.2129 46.3574 14.1465 46.7812 14.0137 47.1719C13.8809 47.5625 13.6875 47.9043 13.4336 48.1973C13.1836 48.4863 12.8809 48.7129 12.5254 48.877C12.1738 49.0371 11.7754 49.1172 11.3301 49.1172C10.8848 49.1172 10.4844 49.0371 10.1289 48.877C9.77344 48.7129 9.46875 48.4863 9.21484 48.1973C8.96484 47.9043 8.77344 47.5625 8.64062 47.1719C8.50781 46.7812 8.44141 46.3574 8.44141 45.9004ZM9.52539 45.7656V45.9004C9.52539 46.2168 9.5625 46.5156 9.63672 46.7969C9.71094 47.0742 9.82227 47.3203 9.9707 47.5352C10.123 47.75 10.3125 47.9199 10.5391 48.0449C10.7656 48.166 11.0293 48.2266 11.3301 48.2266C11.627 48.2266 11.8867 48.166 12.1094 48.0449C12.3359 47.9199 12.5234 47.75 12.6719 47.5352C12.8203 47.3203 12.9316 47.0742 13.0059 46.7969C13.084 46.5156 13.123 46.2168 13.123 45.9004V45.7656C13.123 45.4531 13.084 45.1582 13.0059 44.8809C12.9316 44.5996 12.8184 44.3516 12.666 44.1367C12.5176 43.918 12.3301 43.7461 12.1035 43.6211C11.8809 43.4961 11.6191 43.4336 11.3184 43.4336C11.0215 43.4336 10.7598 43.4961 10.5332 43.6211C10.3105 43.7461 10.123 43.918 9.9707 44.1367C9.82227 44.3516 9.71094 44.5996 9.63672 44.8809C9.5625 45.1582 9.52539 45.4531 9.52539 45.7656ZM16.6562 44.0137V49H15.5723V42.6602H16.5977L16.6562 44.0137ZM16.3984 45.5898L15.9473 45.5723C15.9512 45.1387 16.0156 44.7383 16.1406 44.3711C16.2656 44 16.4414 43.6777 16.668 43.4043C16.8945 43.1309 17.1641 42.9199 17.4766 42.7715C17.793 42.6191 18.1426 42.543 18.5254 42.543C18.8379 42.543 19.1191 42.5859 19.3691 42.6719C19.6191 42.7539 19.832 42.8867 20.0078 43.0703C20.1875 43.2539 20.3242 43.4922 20.418 43.7852C20.5117 44.0742 20.5586 44.4277 20.5586 44.8457V49H19.4688V44.834C19.4688 44.502 19.4199 44.2363 19.3223 44.0371C19.2246 43.834 19.082 43.6875 18.8945 43.5977C18.707 43.5039 18.4766 43.457 18.2031 43.457C17.9336 43.457 17.6875 43.5137 17.4648 43.627C17.2461 43.7402 17.0566 43.8965 16.8965 44.0957C16.7402 44.2949 16.6172 44.5234 16.5273 44.7812C16.4414 45.0352 16.3984 45.3047 16.3984 45.5898ZM24.8594 42.6602V43.4922H21.4316V42.6602H24.8594ZM22.5918 41.1191H23.6758V47.4297C23.6758 47.6445 23.709 47.8066 23.7754 47.916C23.8418 48.0254 23.9277 48.0977 24.0332 48.1328C24.1387 48.168 24.252 48.1855 24.373 48.1855C24.4629 48.1855 24.5566 48.1777 24.6543 48.1621C24.7559 48.1426 24.832 48.127 24.8828 48.1152L24.8887 49C24.8027 49.0273 24.6895 49.0527 24.5488 49.0762C24.4121 49.1035 24.2461 49.1172 24.0508 49.1172C23.7852 49.1172 23.541 49.0645 23.3184 48.959C23.0957 48.8535 22.918 48.6777 22.7852 48.4316C22.6562 48.1816 22.5918 47.8457 22.5918 47.4238V41.1191ZM28.7617 49.1172C28.3203 49.1172 27.9199 49.043 27.5605 48.8945C27.2051 48.7422 26.8984 48.5293 26.6406 48.2559C26.3867 47.9824 26.1914 47.6582 26.0547 47.2832C25.918 46.9082 25.8496 46.498 25.8496 46.0527V45.8066C25.8496 45.291 25.9258 44.832 26.0781 44.4297C26.2305 44.0234 26.4375 43.6797 26.6992 43.3984C26.9609 43.1172 27.2578 42.9043 27.5898 42.7598C27.9219 42.6152 28.2656 42.543 28.6211 42.543C29.0742 42.543 29.4648 42.6211 29.793 42.7773C30.125 42.9336 30.3965 43.1523 30.6074 43.4336C30.8184 43.7109 30.9746 44.0391 31.0762 44.418C31.1777 44.793 31.2285 45.2031 31.2285 45.6484V46.1348H26.4941V45.25H30.1445V45.168C30.1289 44.8867 30.0703 44.6133 29.9688 44.3477C29.8711 44.082 29.7148 43.8633 29.5 43.6914C29.2852 43.5195 28.9922 43.4336 28.6211 43.4336C28.375 43.4336 28.1484 43.4863 27.9414 43.5918C27.7344 43.6934 27.5566 43.8457 27.4082 44.0488C27.2598 44.252 27.1445 44.5 27.0625 44.793C26.9805 45.0859 26.9395 45.4238 26.9395 45.8066V46.0527C26.9395 46.3535 26.9805 46.6367 27.0625 46.9023C27.1484 47.1641 27.2715 47.3945 27.4316 47.5938C27.5957 47.793 27.793 47.9492 28.0234 48.0625C28.2578 48.1758 28.5234 48.2324 28.8203 48.2324C29.2031 48.2324 29.5273 48.1543 29.793 47.998C30.0586 47.8418 30.291 47.6328 30.4902 47.3711L31.1465 47.8926C31.0098 48.0996 30.8359 48.2969 30.625 48.4844C30.4141 48.6719 30.1543 48.8242 29.8457 48.9414C29.541 49.0586 29.1797 49.1172 28.7617 49.1172ZM33.5781 44.0137V49H32.4941V42.6602H33.5195L33.5781 44.0137ZM33.3203 45.5898L32.8691 45.5723C32.873 45.1387 32.9375 44.7383 33.0625 44.3711C33.1875 44 33.3633 43.6777 33.5898 43.4043C33.8164 43.1309 34.0859 42.9199 34.3984 42.7715C34.7148 42.6191 35.0645 42.543 35.4473 42.543C35.7598 42.543 36.041 42.5859 36.291 42.6719C36.541 42.7539 36.7539 42.8867 36.9297 43.0703C37.1094 43.2539 37.2461 43.4922 37.3398 43.7852C37.4336 44.0742 37.4805 44.4277 37.4805 44.8457V49H36.3906V44.834C36.3906 44.502 36.3418 44.2363 36.2441 44.0371C36.1465 43.834 36.0039 43.6875 35.8164 43.5977C35.6289 43.5039 35.3984 43.457 35.125 43.457C34.8555 43.457 34.6094 43.5137 34.3867 43.627C34.168 43.7402 33.9785 43.8965 33.8184 44.0957C33.6621 44.2949 33.5391 44.5234 33.4492 44.7812C33.3633 45.0352 33.3203 45.3047 33.3203 45.5898ZM41.7812 42.6602V43.4922H38.3535V42.6602H41.7812ZM39.5137 41.1191H40.5977V47.4297C40.5977 47.6445 40.6309 47.8066 40.6973 47.916C40.7637 48.0254 40.8496 48.0977 40.9551 48.1328C41.0605 48.168 41.1738 48.1855 41.2949 48.1855C41.3848 48.1855 41.4785 48.1777 41.5762 48.1621C41.6777 48.1426 41.7539 48.127 41.8047 48.1152L41.8105 49C41.7246 49.0273 41.6113 49.0527 41.4707 49.0762C41.334 49.1035 41.168 49.1172 40.9727 49.1172C40.707 49.1172 40.4629 49.0645 40.2402 48.959C40.0176 48.8535 39.8398 48.6777 39.707 48.4316C39.5781 48.1816 39.5137 47.8457 39.5137 47.4238V41.1191ZM49.3398 45.6543H47.0605V44.7344H49.3398C49.7812 44.7344 50.1387 44.6641 50.4121 44.5234C50.6855 44.3828 50.8848 44.1875 51.0098 43.9375C51.1387 43.6875 51.2031 43.4023 51.2031 43.082C51.2031 42.7891 51.1387 42.5137 51.0098 42.2559C50.8848 41.998 50.6855 41.791 50.4121 41.6348C50.1387 41.4746 49.7812 41.3945 49.3398 41.3945H47.3242V49H46.1934V40.4688H49.3398C49.9844 40.4688 50.5293 40.5801 50.9746 40.8027C51.4199 41.0254 51.7578 41.334 51.9883 41.7285C52.2188 42.1191 52.334 42.5664 52.334 43.0703C52.334 43.6172 52.2188 44.084 51.9883 44.4707C51.7578 44.8574 51.4199 45.1523 50.9746 45.3555C50.5293 45.5547 49.9844 45.6543 49.3398 45.6543ZM54.7773 40V49H53.6875V40H54.7773ZM60.2559 47.916V44.6523C60.2559 44.4023 60.2051 44.1855 60.1035 44.002C60.0059 43.8145 59.8574 43.6699 59.6582 43.5684C59.459 43.4668 59.2129 43.416 58.9199 43.416C58.6465 43.416 58.4062 43.4629 58.1992 43.5566C57.9961 43.6504 57.8359 43.7734 57.7188 43.9258C57.6055 44.0781 57.5488 44.2422 57.5488 44.418H56.4648C56.4648 44.1914 56.5234 43.9668 56.6406 43.7441C56.7578 43.5215 56.9258 43.3203 57.1445 43.1406C57.3672 42.957 57.6328 42.8125 57.9414 42.707C58.2539 42.5977 58.6016 42.543 58.9844 42.543C59.4453 42.543 59.8516 42.6211 60.2031 42.7773C60.5586 42.9336 60.8359 43.1699 61.0352 43.4863C61.2383 43.7988 61.3398 44.1914 61.3398 44.6641V47.6172C61.3398 47.8281 61.3574 48.0527 61.3926 48.291C61.4316 48.5293 61.4883 48.7344 61.5625 48.9062V49H60.4316C60.377 48.875 60.334 48.709 60.3027 48.502C60.2715 48.291 60.2559 48.0957 60.2559 47.916ZM60.4434 45.1562L60.4551 45.918H59.3594C59.0508 45.918 58.7754 45.9434 58.5332 45.9941C58.291 46.041 58.0879 46.1133 57.9238 46.2109C57.7598 46.3086 57.6348 46.4316 57.5488 46.5801C57.4629 46.7246 57.4199 46.8945 57.4199 47.0898C57.4199 47.2891 57.4648 47.4707 57.5547 47.6348C57.6445 47.7988 57.7793 47.9297 57.959 48.0273C58.1426 48.1211 58.3672 48.168 58.6328 48.168C58.9648 48.168 59.2578 48.0977 59.5117 47.957C59.7656 47.8164 59.9668 47.6445 60.1152 47.4414C60.2676 47.2383 60.3496 47.041 60.3613 46.8496L60.8242 47.3711C60.7969 47.5352 60.7227 47.7168 60.6016 47.916C60.4805 48.1152 60.3184 48.3066 60.1152 48.4902C59.916 48.6699 59.6777 48.8203 59.4004 48.9414C59.127 49.0586 58.8184 49.1172 58.4746 49.1172C58.0449 49.1172 57.668 49.0332 57.3438 48.8652C57.0234 48.6973 56.7734 48.4727 56.5938 48.1914C56.418 47.9062 56.3301 47.5879 56.3301 47.2363C56.3301 46.8965 56.3965 46.5977 56.5293 46.3398C56.6621 46.0781 56.8535 45.8613 57.1035 45.6895C57.3535 45.5137 57.6543 45.3809 58.0059 45.291C58.3574 45.2012 58.75 45.1562 59.1836 45.1562H60.4434ZM64.1289 44.0137V49H63.0449V42.6602H64.0703L64.1289 44.0137ZM63.8711 45.5898L63.4199 45.5723C63.4238 45.1387 63.4883 44.7383 63.6133 44.3711C63.7383 44 63.9141 43.6777 64.1406 43.4043C64.3672 43.1309 64.6367 42.9199 64.9492 42.7715C65.2656 42.6191 65.6152 42.543 65.998 42.543C66.3105 42.543 66.5918 42.5859 66.8418 42.6719C67.0918 42.7539 67.3047 42.8867 67.4805 43.0703C67.6602 43.2539 67.7969 43.4922 67.8906 43.7852C67.9844 44.0742 68.0312 44.4277 68.0312 44.8457V49H66.9414V44.834C66.9414 44.502 66.8926 44.2363 66.7949 44.0371C66.6973 43.834 66.5547 43.6875 66.3672 43.5977C66.1797 43.5039 65.9492 43.457 65.6758 43.457C65.4062 43.457 65.1602 43.5137 64.9375 43.627C64.7188 43.7402 64.5293 43.8965 64.3691 44.0957C64.2129 44.2949 64.0898 44.5234 64 44.7812C63.9141 45.0352 63.8711 45.3047 63.8711 45.5898ZM70.7617 44.0137V49H69.6777V42.6602H70.7031L70.7617 44.0137ZM70.5039 45.5898L70.0527 45.5723C70.0566 45.1387 70.1211 44.7383 70.2461 44.3711C70.3711 44 70.5469 43.6777 70.7734 43.4043C71 43.1309 71.2695 42.9199 71.582 42.7715C71.8984 42.6191 72.248 42.543 72.6309 42.543C72.9434 42.543 73.2246 42.5859 73.4746 42.6719C73.7246 42.7539 73.9375 42.8867 74.1133 43.0703C74.293 43.2539 74.4297 43.4922 74.5234 43.7852C74.6172 44.0742 74.6641 44.4277 74.6641 44.8457V49H73.5742V44.834C73.5742 44.502 73.5254 44.2363 73.4277 44.0371C73.3301 43.834 73.1875 43.6875 73 43.5977C72.8125 43.5039 72.582 43.457 72.3086 43.457C72.0391 43.457 71.793 43.5137 71.5703 43.627C71.3516 43.7402 71.1621 43.8965 71.002 44.0957C70.8457 44.2949 70.7227 44.5234 70.6328 44.7812C70.5469 45.0352 70.5039 45.3047 70.5039 45.5898ZM78.9414 49.1172C78.5 49.1172 78.0996 49.043 77.7402 48.8945C77.3848 48.7422 77.0781 48.5293 76.8203 48.2559C76.5664 47.9824 76.3711 47.6582 76.2344 47.2832C76.0977 46.9082 76.0293 46.498 76.0293 46.0527V45.8066C76.0293 45.291 76.1055 44.832 76.2578 44.4297C76.4102 44.0234 76.6172 43.6797 76.8789 43.3984C77.1406 43.1172 77.4375 42.9043 77.7695 42.7598C78.1016 42.6152 78.4453 42.543 78.8008 42.543C79.2539 42.543 79.6445 42.6211 79.9727 42.7773C80.3047 42.9336 80.5762 43.1523 80.7871 43.4336C80.998 43.7109 81.1543 44.0391 81.2559 44.418C81.3574 44.793 81.4082 45.2031 81.4082 45.6484V46.1348H76.6738V45.25H80.3242V45.168C80.3086 44.8867 80.25 44.6133 80.1484 44.3477C80.0508 44.082 79.8945 43.8633 79.6797 43.6914C79.4648 43.5195 79.1719 43.4336 78.8008 43.4336C78.5547 43.4336 78.3281 43.4863 78.1211 43.5918C77.9141 43.6934 77.7363 43.8457 77.5879 44.0488C77.4395 44.252 77.3242 44.5 77.2422 44.793C77.1602 45.0859 77.1191 45.4238 77.1191 45.8066V46.0527C77.1191 46.3535 77.1602 46.6367 77.2422 46.9023C77.3281 47.1641 77.4512 47.3945 77.6113 47.5938C77.7754 47.793 77.9727 47.9492 78.2031 48.0625C78.4375 48.1758 78.7031 48.2324 79 48.2324C79.3828 48.2324 79.707 48.1543 79.9727 47.998C80.2383 47.8418 80.4707 47.6328 80.6699 47.3711L81.3262 47.8926C81.1895 48.0996 81.0156 48.2969 80.8047 48.4844C80.5938 48.6719 80.334 48.8242 80.0254 48.9414C79.7207 49.0586 79.3594 49.1172 78.9414 49.1172ZM83.7578 43.6562V49H82.6738V42.6602H83.7285L83.7578 43.6562ZM85.7383 42.625L85.7324 43.6328C85.6426 43.6133 85.5566 43.6016 85.4746 43.5977C85.3965 43.5898 85.3066 43.5859 85.2051 43.5859C84.9551 43.5859 84.7344 43.625 84.543 43.7031C84.3516 43.7812 84.1895 43.8906 84.0566 44.0312C83.9238 44.1719 83.8184 44.3398 83.7402 44.5352C83.666 44.7266 83.6172 44.9375 83.5938 45.168L83.2891 45.3438C83.2891 44.9609 83.3262 44.6016 83.4004 44.2656C83.4785 43.9297 83.5977 43.6328 83.7578 43.375C83.918 43.1133 84.1211 42.9102 84.3672 42.7656C84.6172 42.6172 84.9141 42.543 85.2578 42.543C85.3359 42.543 85.4258 42.5527 85.5273 42.5723C85.6289 42.5879 85.6992 42.6055 85.7383 42.625Z" fill="#FCFEFF"/>
</svg>
