<svg width="59" height="44" viewBox="0 0 59 44" fill="none" xmlns="http://www.w3.org/2000/svg">
<path d="M3.3457 41H1.52344L1.53516 39.834H3.3457C3.87305 39.834 4.31445 39.7188 4.66992 39.4883C5.0293 39.2578 5.29883 38.9277 5.47852 38.498C5.66211 38.0684 5.75391 37.5566 5.75391 36.9629V36.5C5.75391 36.0391 5.70117 35.6309 5.5957 35.2754C5.49414 34.9199 5.3418 34.6211 5.13867 34.3789C4.93945 34.1367 4.69336 33.9531 4.40039 33.8281C4.11133 33.7031 3.77734 33.6406 3.39844 33.6406H1.48828V32.4688H3.39844C3.96484 32.4688 4.48242 32.5645 4.95117 32.7559C5.41992 32.9434 5.82422 33.2148 6.16406 33.5703C6.50781 33.9258 6.77148 34.3516 6.95508 34.8477C7.13867 35.3438 7.23047 35.8984 7.23047 36.5117V36.9629C7.23047 37.5762 7.13867 38.1309 6.95508 38.627C6.77148 39.123 6.50781 39.5488 6.16406 39.9043C5.82031 40.2559 5.41016 40.5273 4.93359 40.7188C4.46094 40.9062 3.93164 41 3.3457 41ZM2.33789 32.4688V41H0.867188V32.4688H2.33789ZM12.1406 39.7285V36.7051C12.1406 36.4785 12.0996 36.2832 12.0176 36.1191C11.9355 35.9551 11.8105 35.8281 11.6426 35.7383C11.4785 35.6484 11.2715 35.6035 11.0215 35.6035C10.791 35.6035 10.5918 35.6426 10.4238 35.7207C10.2559 35.7988 10.125 35.9043 10.0312 36.0371C9.9375 36.1699 9.89062 36.3203 9.89062 36.4883H8.48438C8.48438 36.2383 8.54492 35.9961 8.66602 35.7617C8.78711 35.5273 8.96289 35.3184 9.19336 35.1348C9.42383 34.9512 9.69922 34.8066 10.0195 34.7012C10.3398 34.5957 10.6992 34.543 11.0977 34.543C11.5742 34.543 11.9961 34.623 12.3633 34.7832C12.7344 34.9434 13.0254 35.1855 13.2363 35.5098C13.4512 35.8301 13.5586 36.2324 13.5586 36.7168V39.5352C13.5586 39.8242 13.5781 40.084 13.6172 40.3145C13.6602 40.541 13.7207 40.7383 13.7988 40.9062V41H12.3516C12.2852 40.8477 12.2324 40.6543 12.1934 40.4199C12.1582 40.1816 12.1406 39.9512 12.1406 39.7285ZM12.3457 37.1445L12.3574 38.0176H11.3438C11.082 38.0176 10.8516 38.043 10.6523 38.0938C10.4531 38.1406 10.2871 38.2109 10.1543 38.3047C10.0215 38.3984 9.92188 38.5117 9.85547 38.6445C9.78906 38.7773 9.75586 38.9277 9.75586 39.0957C9.75586 39.2637 9.79492 39.418 9.87305 39.5586C9.95117 39.6953 10.0645 39.8027 10.2129 39.8809C10.3652 39.959 10.5488 39.998 10.7637 39.998C11.0527 39.998 11.3047 39.9395 11.5195 39.8223C11.7383 39.7012 11.9102 39.5547 12.0352 39.3828C12.1602 39.207 12.2266 39.041 12.2344 38.8848L12.6914 39.5117C12.6445 39.6719 12.5645 39.8438 12.4512 40.0273C12.3379 40.2109 12.1895 40.3867 12.0059 40.5547C11.8262 40.7188 11.6094 40.8535 11.3555 40.959C11.1055 41.0645 10.8164 41.1172 10.4883 41.1172C10.0742 41.1172 9.70508 41.0352 9.38086 40.8711C9.05664 40.7031 8.80273 40.4785 8.61914 40.1973C8.43555 39.9121 8.34375 39.5898 8.34375 39.2305C8.34375 38.8945 8.40625 38.5977 8.53125 38.3398C8.66016 38.0781 8.84766 37.8594 9.09375 37.6836C9.34375 37.5078 9.64844 37.375 10.0078 37.2852C10.3672 37.1914 10.7773 37.1445 11.2383 37.1445H12.3457ZM18.5918 39.2832C18.5918 39.1426 18.5566 39.0156 18.4863 38.9023C18.416 38.7852 18.2812 38.6797 18.082 38.5859C17.8867 38.4922 17.5977 38.4062 17.2148 38.3281C16.8789 38.2539 16.5703 38.166 16.2891 38.0645C16.0117 37.959 15.7734 37.832 15.5742 37.6836C15.375 37.5352 15.2207 37.3594 15.1113 37.1562C15.002 36.9531 14.9473 36.7188 14.9473 36.4531C14.9473 36.1953 15.0039 35.9512 15.1172 35.7207C15.2305 35.4902 15.3926 35.2871 15.6035 35.1113C15.8145 34.9355 16.0703 34.7969 16.3711 34.6953C16.6758 34.5938 17.0156 34.543 17.3906 34.543C17.9219 34.543 18.377 34.6328 18.7559 34.8125C19.1387 34.9883 19.4316 35.2285 19.6348 35.5332C19.8379 35.834 19.9395 36.1738 19.9395 36.5527H18.5273C18.5273 36.3848 18.4844 36.2285 18.3984 36.084C18.3164 35.9355 18.1914 35.8164 18.0234 35.7266C17.8555 35.6328 17.6445 35.5859 17.3906 35.5859C17.1484 35.5859 16.9473 35.625 16.7871 35.7031C16.6309 35.7773 16.5137 35.875 16.4355 35.9961C16.3613 36.1172 16.3242 36.25 16.3242 36.3945C16.3242 36.5 16.3438 36.5957 16.3828 36.6816C16.4258 36.7637 16.4961 36.8398 16.5938 36.9102C16.6914 36.9766 16.8242 37.0391 16.9922 37.0977C17.1641 37.1562 17.3789 37.2129 17.6367 37.2676C18.1211 37.3691 18.5371 37.5 18.8848 37.6602C19.2363 37.8164 19.5059 38.0195 19.6934 38.2695C19.8809 38.5156 19.9746 38.8281 19.9746 39.207C19.9746 39.4883 19.9141 39.7461 19.793 39.9805C19.6758 40.2109 19.5039 40.4121 19.2773 40.584C19.0508 40.752 18.7793 40.8828 18.4629 40.9766C18.1504 41.0703 17.7988 41.1172 17.4082 41.1172C16.834 41.1172 16.3477 41.0156 15.9492 40.8125C15.5508 40.6055 15.248 40.3418 15.041 40.0215C14.8379 39.6973 14.7363 39.3613 14.7363 39.0137H16.1016C16.1172 39.2754 16.1895 39.4844 16.3184 39.6406C16.4512 39.793 16.6152 39.9043 16.8105 39.9746C17.0098 40.041 17.2148 40.0742 17.4258 40.0742C17.6797 40.0742 17.8926 40.041 18.0645 39.9746C18.2363 39.9043 18.3672 39.8105 18.457 39.6934C18.5469 39.5723 18.5918 39.4355 18.5918 39.2832ZM22.6055 32V41H21.1992V32H22.6055ZM22.3594 37.5957L21.9023 37.5898C21.9062 37.1523 21.9668 36.748 22.084 36.377C22.2051 36.0059 22.373 35.6836 22.5879 35.4102C22.8066 35.1328 23.0684 34.9199 23.373 34.7715C23.6777 34.6191 24.0156 34.543 24.3867 34.543C24.6992 34.543 24.9805 34.5859 25.2305 34.6719C25.4844 34.7578 25.7031 34.8965 25.8867 35.0879C26.0703 35.2754 26.209 35.5215 26.3027 35.8262C26.4004 36.127 26.4492 36.4941 26.4492 36.9277V41H25.0312V36.916C25.0312 36.6113 24.9863 36.3691 24.8965 36.1895C24.8105 36.0098 24.6836 35.8809 24.5156 35.8027C24.3477 35.7207 24.1426 35.6797 23.9004 35.6797C23.6465 35.6797 23.4219 35.7305 23.2266 35.832C23.0352 35.9336 22.875 36.0723 22.7461 36.248C22.6172 36.4238 22.5195 36.627 22.4531 36.8574C22.3906 37.0879 22.3594 37.334 22.3594 37.5957ZM27.8848 32H29.2969V39.6465L29.1621 41H27.8848V32ZM33.4336 37.7715V37.8945C33.4336 38.3633 33.3809 38.7949 33.2754 39.1895C33.1738 39.5801 33.0176 39.9199 32.8066 40.209C32.5996 40.498 32.3418 40.7227 32.0332 40.8828C31.7285 41.0391 31.375 41.1172 30.9727 41.1172C30.5781 41.1172 30.2344 41.043 29.9414 40.8945C29.6484 40.7461 29.4023 40.5352 29.2031 40.2617C29.0078 39.9883 28.8496 39.6621 28.7285 39.2832C28.6074 38.9043 28.5215 38.4863 28.4707 38.0293V37.6367C28.5215 37.1758 28.6074 36.7578 28.7285 36.3828C28.8496 36.0039 29.0078 35.6777 29.2031 35.4043C29.4023 35.127 29.6465 34.9141 29.9355 34.7656C30.2285 34.6172 30.5703 34.543 30.9609 34.543C31.3672 34.543 31.7246 34.6211 32.0332 34.7773C32.3457 34.9336 32.6055 35.1562 32.8125 35.4453C33.0195 35.7305 33.1738 36.0703 33.2754 36.4648C33.3809 36.8594 33.4336 37.2949 33.4336 37.7715ZM32.0215 37.8945V37.7715C32.0215 37.4863 31.998 37.2188 31.9512 36.9688C31.9043 36.7148 31.8262 36.4922 31.7168 36.3008C31.6113 36.1094 31.4668 35.959 31.2832 35.8496C31.1035 35.7363 30.8789 35.6797 30.6094 35.6797C30.3594 35.6797 30.1445 35.7227 29.9648 35.8086C29.7852 35.8945 29.6348 36.0117 29.5137 36.1602C29.3926 36.3086 29.2969 36.4805 29.2266 36.6758C29.1602 36.8711 29.1152 37.082 29.0918 37.3086V38.3691C29.127 38.6621 29.2012 38.9316 29.3145 39.1777C29.4316 39.4199 29.5957 39.6152 29.8066 39.7637C30.0176 39.9082 30.2891 39.9805 30.6211 39.9805C30.8828 39.9805 31.1035 39.9277 31.2832 39.8223C31.4629 39.7168 31.6055 39.5703 31.7109 39.3828C31.8203 39.1914 31.8984 38.9688 31.9453 38.7148C31.9961 38.4609 32.0215 38.1875 32.0215 37.8945ZM34.3594 37.9004V37.7656C34.3594 37.3086 34.4258 36.8848 34.5586 36.4941C34.6914 36.0996 34.8828 35.7578 35.1328 35.4688C35.3867 35.1758 35.6953 34.9492 36.0586 34.7891C36.4258 34.625 36.8398 34.543 37.3008 34.543C37.7656 34.543 38.1797 34.625 38.543 34.7891C38.9102 34.9492 39.2207 35.1758 39.4746 35.4688C39.7285 35.7578 39.9219 36.0996 40.0547 36.4941C40.1875 36.8848 40.2539 37.3086 40.2539 37.7656V37.9004C40.2539 38.3574 40.1875 38.7812 40.0547 39.1719C39.9219 39.5625 39.7285 39.9043 39.4746 40.1973C39.2207 40.4863 38.9121 40.7129 38.5488 40.877C38.1855 41.0371 37.7734 41.1172 37.3125 41.1172C36.8477 41.1172 36.4316 41.0371 36.0645 40.877C35.7012 40.7129 35.3926 40.4863 35.1387 40.1973C34.8848 39.9043 34.6914 39.5625 34.5586 39.1719C34.4258 38.7812 34.3594 38.3574 34.3594 37.9004ZM35.7715 37.7656V37.9004C35.7715 38.1855 35.8008 38.4551 35.8594 38.709C35.918 38.9629 36.0098 39.1855 36.1348 39.377C36.2598 39.5684 36.4199 39.7188 36.6152 39.8281C36.8105 39.9375 37.043 39.9922 37.3125 39.9922C37.5742 39.9922 37.8008 39.9375 37.9922 39.8281C38.1875 39.7188 38.3477 39.5684 38.4727 39.377C38.5977 39.1855 38.6895 38.9629 38.748 38.709C38.8105 38.4551 38.8418 38.1855 38.8418 37.9004V37.7656C38.8418 37.4844 38.8105 37.2188 38.748 36.9688C38.6895 36.7148 38.5957 36.4902 38.4668 36.2949C38.3418 36.0996 38.1816 35.9473 37.9863 35.8379C37.7949 35.7246 37.5664 35.668 37.3008 35.668C37.0352 35.668 36.8047 35.7246 36.6094 35.8379C36.418 35.9473 36.2598 36.0996 36.1348 36.2949C36.0098 36.4902 35.918 36.7148 35.8594 36.9688C35.8008 37.2188 35.7715 37.4844 35.7715 37.7656ZM45.0117 39.7285V36.7051C45.0117 36.4785 44.9707 36.2832 44.8887 36.1191C44.8066 35.9551 44.6816 35.8281 44.5137 35.7383C44.3496 35.6484 44.1426 35.6035 43.8926 35.6035C43.6621 35.6035 43.4629 35.6426 43.2949 35.7207C43.127 35.7988 42.9961 35.9043 42.9023 36.0371C42.8086 36.1699 42.7617 36.3203 42.7617 36.4883H41.3555C41.3555 36.2383 41.416 35.9961 41.5371 35.7617C41.6582 35.5273 41.834 35.3184 42.0645 35.1348C42.2949 34.9512 42.5703 34.8066 42.8906 34.7012C43.2109 34.5957 43.5703 34.543 43.9688 34.543C44.4453 34.543 44.8672 34.623 45.2344 34.7832C45.6055 34.9434 45.8965 35.1855 46.1074 35.5098C46.3223 35.8301 46.4297 36.2324 46.4297 36.7168V39.5352C46.4297 39.8242 46.4492 40.084 46.4883 40.3145C46.5312 40.541 46.5918 40.7383 46.6699 40.9062V41H45.2227C45.1562 40.8477 45.1035 40.6543 45.0645 40.4199C45.0293 40.1816 45.0117 39.9512 45.0117 39.7285ZM45.2168 37.1445L45.2285 38.0176H44.2148C43.9531 38.0176 43.7227 38.043 43.5234 38.0938C43.3242 38.1406 43.1582 38.2109 43.0254 38.3047C42.8926 38.3984 42.793 38.5117 42.7266 38.6445C42.6602 38.7773 42.627 38.9277 42.627 39.0957C42.627 39.2637 42.666 39.418 42.7441 39.5586C42.8223 39.6953 42.9355 39.8027 43.084 39.8809C43.2363 39.959 43.4199 39.998 43.6348 39.998C43.9238 39.998 44.1758 39.9395 44.3906 39.8223C44.6094 39.7012 44.7812 39.5547 44.9062 39.3828C45.0312 39.207 45.0977 39.041 45.1055 38.8848L45.5625 39.5117C45.5156 39.6719 45.4355 39.8438 45.3223 40.0273C45.209 40.2109 45.0605 40.3867 44.877 40.5547C44.6973 40.7188 44.4805 40.8535 44.2266 40.959C43.9766 41.0645 43.6875 41.1172 43.3594 41.1172C42.9453 41.1172 42.5762 41.0352 42.252 40.8711C41.9277 40.7031 41.6738 40.4785 41.4902 40.1973C41.3066 39.9121 41.2148 39.5898 41.2148 39.2305C41.2148 38.8945 41.2773 38.5977 41.4023 38.3398C41.5312 38.0781 41.7188 37.8594 41.9648 37.6836C42.2148 37.5078 42.5195 37.375 42.8789 37.2852C43.2383 37.1914 43.6484 37.1445 44.1094 37.1445H45.2168ZM49.3242 35.8672V41H47.9121V34.6602H49.2598L49.3242 35.8672ZM51.2637 34.6191L51.252 35.9316C51.166 35.916 51.0723 35.9043 50.9707 35.8965C50.873 35.8887 50.7754 35.8848 50.6777 35.8848C50.4355 35.8848 50.2227 35.9199 50.0391 35.9902C49.8555 36.0566 49.7012 36.1543 49.5762 36.2832C49.4551 36.4082 49.3613 36.5605 49.2949 36.7402C49.2285 36.9199 49.1895 37.1211 49.1777 37.3438L48.8555 37.3672C48.8555 36.9688 48.8945 36.5996 48.9727 36.2598C49.0508 35.9199 49.168 35.6211 49.3242 35.3633C49.4844 35.1055 49.6836 34.9043 49.9219 34.7598C50.1641 34.6152 50.4434 34.543 50.7598 34.543C50.8457 34.543 50.9375 34.5508 51.0352 34.5664C51.1367 34.582 51.2129 34.5996 51.2637 34.6191ZM55.8984 39.6875V32H57.3164V41H56.0332L55.8984 39.6875ZM51.7734 37.9004V37.7773C51.7734 37.2969 51.8301 36.8594 51.9434 36.4648C52.0566 36.0664 52.2207 35.7246 52.4355 35.4395C52.6504 35.1504 52.9121 34.9297 53.2207 34.7773C53.5293 34.6211 53.877 34.543 54.2637 34.543C54.6465 34.543 54.9824 34.6172 55.2715 34.7656C55.5605 34.9141 55.8066 35.127 56.0098 35.4043C56.2129 35.6777 56.375 36.0059 56.4961 36.3887C56.6172 36.7676 56.7031 37.1895 56.7539 37.6543V38.0469C56.7031 38.5 56.6172 38.9141 56.4961 39.2891C56.375 39.6641 56.2129 39.9883 56.0098 40.2617C55.8066 40.5352 55.5586 40.7461 55.2656 40.8945C54.9766 41.043 54.6387 41.1172 54.252 41.1172C53.8691 41.1172 53.5234 41.0371 53.2148 40.877C52.9102 40.7168 52.6504 40.4922 52.4355 40.2031C52.2207 39.9141 52.0566 39.5742 51.9434 39.1836C51.8301 38.7891 51.7734 38.3613 51.7734 37.9004ZM53.1855 37.7773V37.9004C53.1855 38.1895 53.2109 38.459 53.2617 38.709C53.3164 38.959 53.4004 39.1797 53.5137 39.3711C53.627 39.5586 53.7734 39.707 53.9531 39.8164C54.1367 39.9219 54.3555 39.9746 54.6094 39.9746C54.9297 39.9746 55.1934 39.9043 55.4004 39.7637C55.6074 39.623 55.7695 39.4336 55.8867 39.1953C56.0078 38.9531 56.0898 38.6836 56.1328 38.3867V37.3262C56.1094 37.0957 56.0605 36.8809 55.9863 36.6816C55.916 36.4824 55.8203 36.3086 55.6992 36.1602C55.5781 36.0078 55.4277 35.8906 55.248 35.8086C55.0723 35.7227 54.8633 35.6797 54.6211 35.6797C54.3633 35.6797 54.1445 35.7344 53.9648 35.8438C53.7852 35.9531 53.6367 36.1035 53.5195 36.2949C53.4062 36.4863 53.3223 36.709 53.2676 36.9629C53.2129 37.2168 53.1855 37.4883 53.1855 37.7773Z" fill="#00235B"/>
<path d="M36.9477 0H23.0814C22.6728 0 22.2809 0.162323 21.992 0.45126C21.703 0.740197 21.5407 1.13208 21.5407 1.5407V4.62209H20V6.16279H21.5407V10.0145H20V11.5552H21.5407V15.407H20V16.9477H21.5407V20.0291C21.5407 20.4377 21.703 20.8296 21.992 21.1185C22.2809 21.4074 22.6728 21.5698 23.0814 21.5698H36.9477C37.3563 21.5698 37.7482 21.4074 38.0371 21.1185C38.326 20.8296 38.4884 20.4377 38.4884 20.0291V1.5407C38.4884 1.13208 38.326 0.740197 38.0371 0.45126C37.7482 0.162323 37.3563 0 36.9477 0ZM36.9477 20.0291H23.0814V16.9477H24.6221V15.407H23.0814V11.5552H24.6221V10.0145H23.0814V6.16279H24.6221V4.62209H23.0814V1.5407H36.9477V20.0291Z" fill="#00235B"/>
<path d="M27.7031 4.62305H33.8659V6.16374H27.7031V4.62305ZM27.7031 10.0155H33.8659V11.5562H27.7031V10.0155ZM27.7031 15.4079H33.8659V16.9486H27.7031V15.4079Z" fill="#00235B"/>
</svg>
