<svg width="19" height="19" viewBox="0 0 19 19" fill="none" xmlns="http://www.w3.org/2000/svg">
<path d="M16.951 0.482178H2.04902C1.50559 0.482178 0.98441 0.704807 0.600144 1.10109C0.215878 1.49737 0 2.03485 0 2.59528V13.3529C0 13.9133 0.215878 14.4508 0.600144 14.8471C0.98441 15.2434 1.50559 15.466 2.04902 15.466H8.94118V17.387H6.51961C6.3714 17.387 6.22926 17.4477 6.12446 17.5558C6.01966 17.6639 5.96078 17.8104 5.96078 17.9633C5.96078 18.1161 6.01966 18.2627 6.12446 18.3708C6.22926 18.4789 6.3714 18.5396 6.51961 18.5396H12.4804C12.6286 18.5396 12.7707 18.4789 12.8755 18.3708C12.9803 18.2627 13.0392 18.1161 13.0392 17.9633C13.0392 17.8104 12.9803 17.6639 12.8755 17.5558C12.7707 17.4477 12.6286 17.387 12.4804 17.387H10.0588V15.466H16.951C17.4944 15.466 18.0156 15.2434 18.3999 14.8471C18.7841 14.4508 19 13.9133 19 13.3529V2.59528C19 2.03485 18.7841 1.49737 18.3999 1.10109C18.0156 0.704807 17.4944 0.482178 16.951 0.482178ZM2.04902 1.63478H16.951C17.198 1.63478 17.4349 1.73597 17.6096 1.9161C17.7842 2.09623 17.8824 2.34054 17.8824 2.59528V10.4714H1.11765V2.59528C1.11765 2.34054 1.21577 2.09623 1.39044 1.9161C1.56511 1.73597 1.802 1.63478 2.04902 1.63478ZM16.951 14.3134H2.04902C1.802 14.3134 1.56511 14.2122 1.39044 14.0321C1.21577 13.8519 1.11765 13.6076 1.11765 13.3529V11.624H17.8824V13.3529C17.8824 13.6076 17.7842 13.8519 17.6096 14.0321C17.4349 14.2122 17.198 14.3134 16.951 14.3134Z" fill="#333333"/>
</svg>
