<svg width="28" height="52" viewBox="0 0 28 52" fill="none" xmlns="http://www.w3.org/2000/svg">
<path d="M22 14C22 11.8783 21.1571 9.84344 19.6569 8.34315C18.1566 6.84285 16.1217 6 14 6C11.8783 6 9.84344 6.84285 8.34315 8.34315C6.84285 9.84344 6 11.8783 6 14" stroke="#F8F8F8" stroke-width="1.5" stroke-linecap="round" stroke-linejoin="round"/>
<path d="M22 21V21.5C22 22.0304 21.7893 22.5391 21.4142 22.9142C21.0391 23.2893 20.5304 23.5 20 23.5H16.5M4 18.438V16.562C4.00007 16.116 4.1492 15.6828 4.4237 15.3313C4.69821 14.9798 5.08232 14.7301 5.515 14.622L7.255 14.186C7.34342 14.164 7.43569 14.1624 7.52481 14.1813C7.61393 14.2003 7.69757 14.2393 7.76937 14.2954C7.84118 14.3515 7.89926 14.4232 7.93922 14.5051C7.97918 14.587 7.99997 14.6769 8 14.768V20.231C8.00016 20.3223 7.97947 20.4124 7.93952 20.4946C7.89957 20.5767 7.84141 20.6486 7.76946 20.7048C7.69752 20.761 7.61369 20.8001 7.52436 20.819C7.43503 20.8379 7.34257 20.8362 7.254 20.814L5.514 20.379C5.08151 20.2707 4.69762 20.0209 4.42331 19.6694C4.149 19.3179 4.00001 18.8849 4 18.439V18.438ZM24 18.438V16.562C23.9999 16.116 23.8508 15.6828 23.5763 15.3313C23.3018 14.9798 22.9177 14.7301 22.485 14.622L20.745 14.186C20.6566 14.164 20.5643 14.1624 20.4752 14.1813C20.3861 14.2003 20.3024 14.2393 20.2306 14.2954C20.1588 14.3515 20.1007 14.4232 20.0608 14.5051C20.0208 14.587 20 14.6769 20 14.768V20.231C19.9999 20.3222 20.0206 20.4122 20.0604 20.4942C20.1003 20.5763 20.1584 20.6481 20.2302 20.7043C20.3021 20.7605 20.3857 20.7996 20.4749 20.8186C20.5641 20.8376 20.6565 20.836 20.745 20.814L22.485 20.379C22.9177 20.2708 23.3018 20.0212 23.5763 19.6697C23.8508 19.3182 23.9999 18.885 24 18.439V18.438Z" stroke="#F8F8F8" stroke-width="1.5"/>
<path d="M15.5 25H12.5C12.1022 25 11.7206 24.842 11.4393 24.5607C11.158 24.2794 11 23.8978 11 23.5C11 23.1022 11.158 22.7206 11.4393 22.4393C11.7206 22.158 12.1022 22 12.5 22H15.5C15.8978 22 16.2794 22.158 16.5607 22.4393C16.842 22.7206 17 23.1022 17 23.5C17 23.8978 16.842 24.2794 16.5607 24.5607C16.2794 24.842 15.8978 25 15.5 25Z" stroke="#F8F8F8" stroke-width="1.5"/>
<path d="M2.19336 40.4688V49H1.0625V40.4688H2.19336ZM5.76758 44.3066V45.2324H1.94727V44.3066H5.76758ZM6.34766 40.4688V41.3945H1.94727V40.4688H6.34766ZM9.85742 41.2246L7.0332 49H5.87891L9.13086 40.4688H9.875L9.85742 41.2246ZM12.2246 49L9.39453 41.2246L9.37695 40.4688H10.1211L13.3848 49H12.2246ZM12.0781 45.8418V46.7676H7.28516V45.8418H12.0781ZM18.834 48.0215L21.002 49.7383L20.2402 50.4414L18.1074 48.748L18.834 48.0215ZM20.9727 44.4648V45.0039C20.9727 45.6445 20.8926 46.2188 20.7324 46.7266C20.5723 47.2344 20.3418 47.666 20.041 48.0215C19.7402 48.377 19.3789 48.6484 18.957 48.8359C18.5391 49.0234 18.0703 49.1172 17.5508 49.1172C17.0469 49.1172 16.584 49.0234 16.1621 48.8359C15.7441 48.6484 15.3809 48.377 15.0723 48.0215C14.7676 47.666 14.5312 47.2344 14.3633 46.7266C14.1953 46.2188 14.1113 45.6445 14.1113 45.0039V44.4648C14.1113 43.8242 14.1934 43.252 14.3574 42.748C14.5254 42.2402 14.7617 41.8086 15.0664 41.4531C15.3711 41.0938 15.7324 40.8203 16.1504 40.6328C16.5723 40.4453 17.0352 40.3516 17.5391 40.3516C18.0586 40.3516 18.5293 40.4453 18.9512 40.6328C19.373 40.8203 19.7344 41.0938 20.0352 41.4531C20.3359 41.8086 20.5664 42.2402 20.7266 42.748C20.8906 43.252 20.9727 43.8242 20.9727 44.4648ZM19.8535 45.0039V44.4531C19.8535 43.9453 19.8008 43.4961 19.6953 43.1055C19.5938 42.7148 19.4434 42.3867 19.2441 42.1211C19.0449 41.8555 18.8027 41.6543 18.5176 41.5176C18.2324 41.3809 17.9062 41.3125 17.5391 41.3125C17.1914 41.3125 16.875 41.3809 16.5898 41.5176C16.3086 41.6543 16.0664 41.8555 15.8633 42.1211C15.6602 42.3867 15.5039 42.7148 15.3945 43.1055C15.2852 43.4961 15.2305 43.9453 15.2305 44.4531V45.0039C15.2305 45.5156 15.2852 45.9688 15.3945 46.3633C15.5039 46.7539 15.6602 47.084 15.8633 47.3535C16.0703 47.6191 16.3164 47.8203 16.6016 47.957C16.8867 48.0938 17.2031 48.1621 17.5508 48.1621C17.918 48.1621 18.2441 48.0938 18.5293 47.957C18.8145 47.8203 19.0547 47.6191 19.25 47.3535C19.4492 47.084 19.5996 46.7539 19.7012 46.3633C19.8027 45.9688 19.8535 45.5156 19.8535 45.0039ZM26.2461 47.3184C26.2461 47.1621 26.2109 47.0176 26.1406 46.8848C26.0742 46.748 25.9355 46.625 25.7246 46.5156C25.5176 46.4023 25.2051 46.3047 24.7871 46.2227C24.4355 46.1484 24.1172 46.0605 23.832 45.959C23.5508 45.8574 23.3105 45.7344 23.1113 45.5898C22.916 45.4453 22.7656 45.2754 22.6602 45.0801C22.5547 44.8848 22.502 44.6562 22.502 44.3945C22.502 44.1445 22.5566 43.9082 22.666 43.6855C22.7793 43.4629 22.9375 43.2656 23.1406 43.0938C23.3477 42.9219 23.5957 42.7871 23.8848 42.6895C24.1738 42.5918 24.4961 42.543 24.8516 42.543C25.3594 42.543 25.793 42.6328 26.1523 42.8125C26.5117 42.9922 26.7871 43.2324 26.9785 43.5332C27.1699 43.8301 27.2656 44.1602 27.2656 44.5234H26.1816C26.1816 44.3477 26.1289 44.1777 26.0234 44.0137C25.9219 43.8457 25.7715 43.707 25.5723 43.5977C25.377 43.4883 25.1367 43.4336 24.8516 43.4336C24.5508 43.4336 24.3066 43.4805 24.1191 43.5742C23.9355 43.6641 23.8008 43.7793 23.7148 43.9199C23.6328 44.0605 23.5918 44.209 23.5918 44.3652C23.5918 44.4824 23.6113 44.5879 23.6504 44.6816C23.6934 44.7715 23.7676 44.8555 23.873 44.9336C23.9785 45.0078 24.127 45.0781 24.3184 45.1445C24.5098 45.2109 24.7539 45.2773 25.0508 45.3438C25.5703 45.4609 25.998 45.6016 26.334 45.7656C26.6699 45.9297 26.9199 46.1309 27.084 46.3691C27.248 46.6074 27.3301 46.8965 27.3301 47.2363C27.3301 47.5137 27.2715 47.7676 27.1543 47.998C27.041 48.2285 26.875 48.4277 26.6562 48.5957C26.4414 48.7598 26.1836 48.8887 25.8828 48.9824C25.5859 49.0723 25.252 49.1172 24.8809 49.1172C24.3223 49.1172 23.8496 49.0176 23.4629 48.8184C23.0762 48.6191 22.7832 48.3613 22.584 48.0449C22.3848 47.7285 22.2852 47.3945 22.2852 47.043H23.375C23.3906 47.3398 23.4766 47.5762 23.6328 47.752C23.7891 47.9238 23.9805 48.0469 24.207 48.1211C24.4336 48.1914 24.6582 48.2266 24.8809 48.2266C25.1777 48.2266 25.4258 48.1875 25.625 48.1094C25.8281 48.0312 25.9824 47.9238 26.0879 47.7871C26.1934 47.6504 26.2461 47.4941 26.2461 47.3184Z" fill="#FCFEFF"/>
</svg>
