<svg width="30" height="25" viewBox="0 0 30 25" fill="none" xmlns="http://www.w3.org/2000/svg">
<path d="M23.7351 14.7569C23.735 14.7568 23.7349 14.7566 23.7349 14.7566C23.7072 14.7116 23.664 14.6759 23.6102 14.6583C23.61 14.6584 23.6098 14.6583 23.6097 14.6581C23.6091 14.658 23.6085 14.6577 23.6079 14.6576C23.603 14.6561 23.5982 14.6547 23.5933 14.6535C23.5412 14.6407 23.4886 14.6468 23.4429 14.6675C23.4264 14.6751 23.4107 14.6846 23.3962 14.6959C23.3771 14.7108 23.3602 14.7288 23.3465 14.7495C21.6924 17.1061 19.1136 18.57 16.6153 18.57C15.0391 18.57 13.5641 17.9289 12.3368 16.7133L13.317 15.7331C13.3778 15.6723 13.3997 15.5827 13.3738 15.5006C13.348 15.4186 13.2786 15.3577 13.1939 15.3428L13.1055 15.3272L14.0874 14.3489C14.1492 14.2873 14.171 14.196 14.1437 14.1131C14.1163 14.0302 14.0445 13.9699 13.9581 13.9571L6.24988 12.8212C6.16899 12.8091 6.0873 12.8413 6.03601 12.9053L5.12736 14.0412C5.12684 14.0419 5.12655 14.0426 5.12609 14.0433C5.11784 14.0538 5.11074 14.0649 5.10451 14.0766C5.10342 14.0787 5.10215 14.0807 5.10111 14.0828C5.09534 14.0943 5.09078 14.1064 5.08703 14.1187C5.08617 14.1216 5.08536 14.1245 5.08461 14.1274C5.08138 14.1399 5.0789 14.1525 5.0778 14.1654C5.07768 14.1669 5.07774 14.1686 5.07763 14.1701C5.07682 14.1821 5.07705 14.1942 5.0782 14.2064C5.07843 14.2087 5.07849 14.211 5.07878 14.2133C5.07895 14.2149 5.07895 14.2164 5.07918 14.2181L6.23303 22.295C6.24538 22.3815 6.30561 22.4536 6.38851 22.4813C6.47147 22.5089 6.5628 22.4873 6.6247 22.4255L8.2919 20.7584C10.5099 23.3923 12.7298 24.57 15.4615 24.57C20.1976 24.57 23.7692 20.9985 23.7692 16.2623V14.8828C23.7698 14.8542 23.7651 14.8261 23.7557 14.7998C23.7503 14.7848 23.7433 14.7704 23.7351 14.7569ZM23.3076 16.2623C23.3076 20.7353 19.9345 24.1084 15.4615 24.1084C12.8141 24.1084 10.6628 22.9245 8.48609 20.2698C8.44478 20.2194 8.38409 20.1889 8.31901 20.1856C8.3152 20.1855 8.3114 20.1854 8.30765 20.1854C8.24661 20.1854 8.18782 20.2096 8.14443 20.253L6.62465 21.7728L5.58111 14.4679L12.584 15.7035L12.5842 15.7036L12.5881 15.7043L12.6773 15.7201L11.8492 16.5482C11.8489 16.5484 11.8486 16.5487 11.8483 16.549L10.6828 17.7145C10.6392 17.7581 10.6149 17.8173 10.6153 17.879C10.6157 17.9408 10.6407 17.9997 10.6848 18.0428C12.4977 19.8138 14.2352 20.6412 16.153 20.6469C16.1624 20.6469 16.1716 20.647 16.1809 20.647C17.9934 20.6469 19.6515 20.1139 20.9772 19.1047C21.9671 18.351 22.7589 17.3434 23.3076 16.1495V16.2623Z" fill="white"/>
<path d="M8.53858 10.2623C9.17072 10.2623 9.68833 9.77966 9.717 9.16385C9.73229 8.84522 9.61968 8.54279 9.40004 8.31237C9.18006 8.0816 8.88335 7.9545 8.56454 7.9545H5.35454C3.9555 7.9545 2.796 6.83787 2.76987 5.46531C2.75683 4.77866 3.015 4.13014 3.49679 3.63912C3.97864 3.1481 4.62185 2.87764 5.30781 2.87764H16.8463C17.3552 2.87764 17.7694 3.29175 17.7694 3.80072V4.03148C17.7694 4.66772 18.287 5.18533 18.9232 5.18533C19.2311 5.18533 19.5209 5.0655 19.7397 4.84748C19.9573 4.62923 20.077 4.33945 20.077 4.03148V3.56995C20.077 1.91573 18.7313 0.569946 17.077 0.569946H5.36666C2.68789 0.569946 0.487504 2.72245 0.461658 5.36827C0.449081 6.66998 0.947773 7.89733 1.86583 8.82433C2.78412 9.75162 4.0065 10.2623 5.30781 10.2623H8.53858Z" fill="white"/>
<path d="M18.6897 5.86519C18.6661 6.34502 18.4457 6.78913 18.0849 7.08348C17.9862 7.16402 17.9714 7.3094 18.052 7.40817C18.0976 7.46408 18.164 7.49304 18.2309 7.49304C18.2822 7.49304 18.3339 7.47602 18.3767 7.44106C18.8386 7.06415 19.1207 6.49802 19.1507 5.88781C19.157 5.76054 19.0589 5.65225 18.9316 5.64602C18.8045 5.63927 18.696 5.73786 18.6897 5.86519Z" fill="white"/>
<path d="M28.1346 2.00781C27.2163 1.08058 25.9939 0.569946 24.6926 0.569946H21.4618C20.8297 0.569946 20.3121 1.05254 20.2834 1.66835C20.2681 1.98698 20.3807 2.28941 20.6003 2.51983C20.8203 2.7506 21.117 2.8777 21.4358 2.8777H24.6458C26.0449 2.8777 27.2044 3.99433 27.2305 5.36689C27.2436 6.05354 26.9854 6.70206 26.5036 7.19308C26.0217 7.6841 25.3785 7.95456 24.6926 7.95456H13.1541C12.6451 7.95456 12.231 7.54045 12.231 7.03148V6.80072C12.231 6.16448 11.7134 5.64687 11.0772 5.64687C10.7693 5.64687 10.4795 5.7667 10.2607 5.98472C10.0431 6.20297 9.92334 6.49275 9.92334 6.80072V7.26225C9.92334 8.91647 11.2691 10.2623 12.9233 10.2623H24.6337C27.3125 10.2623 29.5129 8.10975 29.5387 5.46393C29.5513 4.16222 29.0526 2.93481 28.1346 2.00781Z" fill="white"/>
<path d="M11.6235 3.39117C11.1616 3.76808 10.8795 4.33421 10.8494 4.94442C10.8432 5.07169 10.9412 5.17998 11.0686 5.18621C11.0724 5.18638 11.0762 5.1865 11.0801 5.1865C11.2024 5.1865 11.3044 5.0905 11.3104 4.96704C11.334 4.48721 11.5545 4.0431 11.9153 3.74875C12.014 3.66821 12.0287 3.52283 11.9482 3.42406C11.8676 3.32529 11.7222 3.31058 11.6235 3.39117Z" fill="white"/>
</svg>
