<svg width="18" height="17" viewBox="0 0 18 17" fill="none" xmlns="http://www.w3.org/2000/svg">
<path d="M16.1901 15.0763V7.43689C16.1901 7.29736 16.1576 7.15975 16.0952 7.03496C16.0328 6.91016 15.9422 6.80161 15.8306 6.71789L9.53931 1.99945C9.38374 1.88277 9.19452 1.8197 9.00006 1.8197C8.8056 1.8197 8.61638 1.88277 8.46081 1.99945L2.16956 6.71789C2.05794 6.80161 1.96734 6.91016 1.90494 7.03496C1.84254 7.15975 1.81006 7.29736 1.81006 7.43689V15.0763C1.81006 15.3146 1.90475 15.5432 2.0733 15.7118C2.24184 15.8803 2.47045 15.975 2.70881 15.975H6.30381C6.54217 15.975 6.77077 15.8803 6.93932 15.7118C7.10787 15.5432 7.20256 15.3146 7.20256 15.0763V12.38C7.20256 12.1417 7.29725 11.9131 7.4658 11.7445C7.63434 11.576 7.86295 11.4813 8.10131 11.4813H9.89881C10.1372 11.4813 10.3658 11.576 10.5343 11.7445C10.7029 11.9131 10.7976 12.1417 10.7976 12.38V15.0763C10.7976 15.3146 10.8922 15.5432 11.0608 15.7118C11.2293 15.8803 11.4579 15.975 11.6963 15.975H15.2913C15.5297 15.975 15.7583 15.8803 15.9268 15.7118C16.0954 15.5432 16.1901 15.3146 16.1901 15.0763Z" stroke="white" stroke-width="2" stroke-linecap="round" stroke-linejoin="round"/>
</svg>
