<svg width="34" height="52" viewBox="0 0 34 52" fill="none" xmlns="http://www.w3.org/2000/svg">
<path d="M27 23.75V13.125C27 12.9309 26.9548 12.7396 26.868 12.566C26.7812 12.3924 26.6552 12.2414 26.5 12.125L17.75 5.5625C17.5336 5.40022 17.2705 5.3125 17 5.3125C16.7295 5.3125 16.4664 5.40022 16.25 5.5625L7.5 12.125C7.34476 12.2414 7.21875 12.3924 7.13197 12.566C7.04518 12.7396 7 12.9309 7 13.125V23.75C7 24.0815 7.1317 24.3995 7.36612 24.6339C7.60054 24.8683 7.91848 25 8.25 25H13.25C13.5815 25 13.8995 24.8683 14.1339 24.6339C14.3683 24.3995 14.5 24.0815 14.5 23.75V20C14.5 19.6685 14.6317 19.3505 14.8661 19.1161C15.1005 18.8817 15.4185 18.75 15.75 18.75H18.25C18.5815 18.75 18.8995 18.8817 19.1339 19.1161C19.3683 19.3505 19.5 19.6685 19.5 20V23.75C19.5 24.0815 19.6317 24.3995 19.8661 24.6339C20.1005 24.8683 20.4185 25 20.75 25H25.75C26.0815 25 26.3995 24.8683 26.6339 24.6339C26.8683 24.3995 27 24.0815 27 23.75Z" stroke="#00235B" stroke-width="2" stroke-linecap="round" stroke-linejoin="round"/>
<path d="M7.00391 44.0312V45.1973H2.47461V44.0312H7.00391ZM2.83789 40.4688V49H1.36719V40.4688H2.83789ZM8.13477 40.4688V49H6.66992V40.4688H8.13477ZM9.47656 45.9004V45.7656C9.47656 45.3086 9.54297 44.8848 9.67578 44.4941C9.80859 44.0996 10 43.7578 10.25 43.4688C10.5039 43.1758 10.8125 42.9492 11.1758 42.7891C11.543 42.625 11.957 42.543 12.418 42.543C12.8828 42.543 13.2969 42.625 13.6602 42.7891C14.0273 42.9492 14.3379 43.1758 14.5918 43.4688C14.8457 43.7578 15.0391 44.0996 15.1719 44.4941C15.3047 44.8848 15.3711 45.3086 15.3711 45.7656V45.9004C15.3711 46.3574 15.3047 46.7812 15.1719 47.1719C15.0391 47.5625 14.8457 47.9043 14.5918 48.1973C14.3379 48.4863 14.0293 48.7129 13.666 48.877C13.3027 49.0371 12.8906 49.1172 12.4297 49.1172C11.9648 49.1172 11.5488 49.0371 11.1816 48.877C10.8184 48.7129 10.5098 48.4863 10.2559 48.1973C10.002 47.9043 9.80859 47.5625 9.67578 47.1719C9.54297 46.7812 9.47656 46.3574 9.47656 45.9004ZM10.8887 45.7656V45.9004C10.8887 46.1855 10.918 46.4551 10.9766 46.709C11.0352 46.9629 11.127 47.1855 11.252 47.377C11.377 47.5684 11.5371 47.7188 11.7324 47.8281C11.9277 47.9375 12.1602 47.9922 12.4297 47.9922C12.6914 47.9922 12.918 47.9375 13.1094 47.8281C13.3047 47.7188 13.4648 47.5684 13.5898 47.377C13.7148 47.1855 13.8066 46.9629 13.8652 46.709C13.9277 46.4551 13.959 46.1855 13.959 45.9004V45.7656C13.959 45.4844 13.9277 45.2188 13.8652 44.9688C13.8066 44.7148 13.7129 44.4902 13.584 44.2949C13.459 44.0996 13.2988 43.9473 13.1035 43.8379C12.9121 43.7246 12.6836 43.668 12.418 43.668C12.1523 43.668 11.9219 43.7246 11.7266 43.8379C11.5352 43.9473 11.377 44.0996 11.252 44.2949C11.127 44.4902 11.0352 44.7148 10.9766 44.9688C10.918 45.2188 10.8887 45.4844 10.8887 45.7656ZM17.9668 43.9492V49H16.5547V42.6602H17.8848L17.9668 43.9492ZM17.7383 45.5957L17.2578 45.5898C17.2578 45.1523 17.3125 44.748 17.4219 44.377C17.5312 44.0059 17.6914 43.6836 17.9023 43.4102C18.1133 43.1328 18.375 42.9199 18.6875 42.7715C19.0039 42.6191 19.3691 42.543 19.7832 42.543C20.0723 42.543 20.3359 42.5859 20.5742 42.6719C20.8164 42.7539 21.0254 42.8848 21.2012 43.0645C21.3809 43.2441 21.5176 43.4746 21.6113 43.7559C21.709 44.0371 21.7578 44.377 21.7578 44.7754V49H20.3457V44.8984C20.3457 44.5898 20.2988 44.3477 20.2051 44.1719C20.1152 43.9961 19.9844 43.8711 19.8125 43.7969C19.6445 43.7188 19.4434 43.6797 19.209 43.6797C18.9434 43.6797 18.7168 43.7305 18.5293 43.832C18.3457 43.9336 18.1953 44.0723 18.0781 44.248C17.9609 44.4238 17.875 44.627 17.8203 44.8574C17.7656 45.0879 17.7383 45.334 17.7383 45.5957ZM21.6699 45.2207L21.0078 45.3672C21.0078 44.9844 21.0605 44.623 21.166 44.2832C21.2754 43.9395 21.4336 43.6387 21.6406 43.3809C21.8516 43.1191 22.1113 42.9141 22.4199 42.7656C22.7285 42.6172 23.082 42.543 23.4805 42.543C23.8047 42.543 24.0938 42.5879 24.3477 42.6777C24.6055 42.7637 24.8242 42.9004 25.0039 43.0879C25.1836 43.2754 25.3203 43.5195 25.4141 43.8203C25.5078 44.1172 25.5547 44.4766 25.5547 44.8984V49H24.1367V44.8926C24.1367 44.5723 24.0898 44.3242 23.9961 44.1484C23.9062 43.9727 23.7773 43.8516 23.6094 43.7852C23.4414 43.7148 23.2402 43.6797 23.0059 43.6797C22.7871 43.6797 22.5938 43.7207 22.4258 43.8027C22.2617 43.8809 22.123 43.9922 22.0098 44.1367C21.8965 44.2773 21.8105 44.4395 21.752 44.623C21.6973 44.8066 21.6699 45.0059 21.6699 45.2207ZM29.8027 49.1172C29.334 49.1172 28.9102 49.041 28.5312 48.8887C28.1562 48.7324 27.8359 48.5156 27.5703 48.2383C27.3086 47.9609 27.1074 47.6348 26.9668 47.2598C26.8262 46.8848 26.7559 46.4805 26.7559 46.0469V45.8125C26.7559 45.3164 26.8281 44.8672 26.9727 44.4648C27.1172 44.0625 27.3184 43.7188 27.5762 43.4336C27.834 43.1445 28.1387 42.9238 28.4902 42.7715C28.8418 42.6191 29.2227 42.543 29.6328 42.543C30.0859 42.543 30.4824 42.6191 30.8223 42.7715C31.1621 42.9238 31.4434 43.1387 31.666 43.416C31.8926 43.6895 32.0605 44.0156 32.1699 44.3945C32.2832 44.7734 32.3398 45.1914 32.3398 45.6484V46.252H27.4414V45.2383H30.9453V45.127C30.9375 44.873 30.8867 44.6348 30.793 44.4121C30.7031 44.1895 30.5645 44.0098 30.377 43.873C30.1895 43.7363 29.9395 43.668 29.627 43.668C29.3926 43.668 29.1836 43.7188 29 43.8203C28.8203 43.918 28.6699 44.0605 28.5488 44.248C28.4277 44.4355 28.334 44.6621 28.2676 44.9277C28.2051 45.1895 28.1738 45.4844 28.1738 45.8125V46.0469C28.1738 46.3242 28.2109 46.582 28.2852 46.8203C28.3633 47.0547 28.4766 47.2598 28.625 47.4355C28.7734 47.6113 28.9531 47.75 29.1641 47.8516C29.375 47.9492 29.6152 47.998 29.8848 47.998C30.2246 47.998 30.5273 47.9297 30.793 47.793C31.0586 47.6562 31.2891 47.4629 31.4844 47.2129L32.2285 47.9336C32.0918 48.1328 31.9141 48.3242 31.6953 48.5078C31.4766 48.6875 31.209 48.834 30.8926 48.9473C30.5801 49.0605 30.2168 49.1172 29.8027 49.1172Z" fill="#00235B"/>
</svg>
