<svg width="34" height="44" viewBox="0 0 34 44" fill="none" xmlns="http://www.w3.org/2000/svg">
<path d="M24.1905 17.0764V9.43701C24.1905 9.29749 24.1581 9.15988 24.0957 9.03508C24.0333 8.91028 23.9427 8.80173 23.831 8.71801L17.5398 3.99957C17.3842 3.8829 17.195 3.81982 17.0005 3.81982C16.8061 3.81982 16.6169 3.8829 16.4613 3.99957L10.17 8.71801C10.0584 8.80173 9.96783 8.91028 9.90543 9.03508C9.84303 9.15988 9.81055 9.29749 9.81055 9.43701V17.0764C9.81055 17.3148 9.90524 17.5434 10.0738 17.7119C10.2423 17.8804 10.4709 17.9751 10.7093 17.9751H14.3043C14.5427 17.9751 14.7713 17.8804 14.9398 17.7119C15.1084 17.5434 15.203 17.3148 15.203 17.0764V14.3801C15.203 14.1418 15.2977 13.9132 15.4663 13.7446C15.6348 13.5761 15.8634 13.4814 16.1018 13.4814H17.8993C18.1377 13.4814 18.3663 13.5761 18.5348 13.7446C18.7034 13.9132 18.798 14.1418 18.798 14.3801V17.0764C18.798 17.3148 18.8927 17.5434 19.0613 17.7119C19.2298 17.8804 19.4584 17.9751 19.6968 17.9751H23.2918C23.5302 17.9751 23.7588 17.8804 23.9273 17.7119C24.0959 17.5434 24.1905 17.3148 24.1905 17.0764Z" stroke="white" stroke-width="2" stroke-linecap="round" stroke-linejoin="round"/>
<path d="M7.0625 35.7065V36.6265H2.44531V35.7065H7.0625ZM2.62109 32.0386V40.5698H1.49023V32.0386H2.62109ZM8.04688 32.0386V40.5698H6.92188V32.0386H8.04688ZM9.60547 37.4702V37.3354C9.60547 36.8784 9.67188 36.4546 9.80469 36.064C9.9375 35.6694 10.1289 35.3276 10.3789 35.0386C10.6289 34.7456 10.9316 34.519 11.2871 34.3589C11.6426 34.1948 12.041 34.1128 12.4824 34.1128C12.9277 34.1128 13.3281 34.1948 13.6836 34.3589C14.043 34.519 14.3477 34.7456 14.5977 35.0386C14.8516 35.3276 15.0449 35.6694 15.1777 36.064C15.3105 36.4546 15.377 36.8784 15.377 37.3354V37.4702C15.377 37.9272 15.3105 38.3511 15.1777 38.7417C15.0449 39.1323 14.8516 39.4741 14.5977 39.7671C14.3477 40.0562 14.0449 40.2827 13.6895 40.4468C13.3379 40.6069 12.9395 40.687 12.4941 40.687C12.0488 40.687 11.6484 40.6069 11.293 40.4468C10.9375 40.2827 10.6328 40.0562 10.3789 39.7671C10.1289 39.4741 9.9375 39.1323 9.80469 38.7417C9.67188 38.3511 9.60547 37.9272 9.60547 37.4702ZM10.6895 37.3354V37.4702C10.6895 37.7866 10.7266 38.0854 10.8008 38.3667C10.875 38.644 10.9863 38.8901 11.1348 39.105C11.2871 39.3198 11.4766 39.4897 11.7031 39.6147C11.9297 39.7358 12.1934 39.7964 12.4941 39.7964C12.791 39.7964 13.0508 39.7358 13.2734 39.6147C13.5 39.4897 13.6875 39.3198 13.8359 39.105C13.9844 38.8901 14.0957 38.644 14.1699 38.3667C14.248 38.0854 14.2871 37.7866 14.2871 37.4702V37.3354C14.2871 37.0229 14.248 36.728 14.1699 36.4507C14.0957 36.1694 13.9824 35.9214 13.8301 35.7065C13.6816 35.4878 13.4941 35.3159 13.2676 35.1909C13.0449 35.0659 12.7832 35.0034 12.4824 35.0034C12.1855 35.0034 11.9238 35.0659 11.6973 35.1909C11.4746 35.3159 11.2871 35.4878 11.1348 35.7065C10.9863 35.9214 10.875 36.1694 10.8008 36.4507C10.7266 36.728 10.6895 37.0229 10.6895 37.3354ZM17.8145 35.4897V40.5698H16.7246V34.23H17.7559L17.8145 35.4897ZM17.5918 37.1597L17.0879 37.1421C17.0918 36.7085 17.1484 36.3081 17.2578 35.9409C17.3672 35.5698 17.5293 35.2476 17.7441 34.9741C17.959 34.7007 18.2266 34.4897 18.5469 34.3413C18.8672 34.189 19.2383 34.1128 19.6602 34.1128C19.957 34.1128 20.2305 34.1558 20.4805 34.2417C20.7305 34.3237 20.9473 34.4546 21.1309 34.6343C21.3145 34.814 21.457 35.0444 21.5586 35.3257C21.6602 35.6069 21.7109 35.9468 21.7109 36.3452V40.5698H20.627V36.3979C20.627 36.0659 20.5703 35.8003 20.457 35.6011C20.3477 35.4019 20.1914 35.2573 19.9883 35.1675C19.7852 35.0737 19.5469 35.0269 19.2734 35.0269C18.9531 35.0269 18.6855 35.0835 18.4707 35.1968C18.2559 35.3101 18.084 35.4663 17.9551 35.6655C17.8262 35.8647 17.7324 36.0933 17.6738 36.3511C17.6191 36.605 17.5918 36.8745 17.5918 37.1597ZM21.6992 36.562L20.9727 36.7847C20.9766 36.437 21.0332 36.103 21.1426 35.7827C21.2559 35.4624 21.418 35.1772 21.6289 34.9272C21.8438 34.6772 22.1074 34.48 22.4199 34.3354C22.7324 34.187 23.0898 34.1128 23.4922 34.1128C23.832 34.1128 24.1328 34.1577 24.3945 34.2476C24.6602 34.3374 24.8828 34.4761 25.0625 34.6636C25.2461 34.8472 25.3848 35.0835 25.4785 35.3726C25.5723 35.6616 25.6191 36.0054 25.6191 36.4038V40.5698H24.5293V36.3921C24.5293 36.0366 24.4727 35.7612 24.3594 35.5659C24.25 35.3667 24.0938 35.228 23.8906 35.1499C23.6914 35.0679 23.4531 35.0269 23.1758 35.0269C22.9375 35.0269 22.7266 35.0679 22.543 35.1499C22.3594 35.2319 22.2051 35.3452 22.0801 35.4897C21.9551 35.6304 21.8594 35.7925 21.793 35.9761C21.7305 36.1597 21.6992 36.355 21.6992 36.562ZM29.8906 40.687C29.4492 40.687 29.0488 40.6128 28.6895 40.4644C28.334 40.312 28.0273 40.0991 27.7695 39.8257C27.5156 39.5522 27.3203 39.228 27.1836 38.853C27.0469 38.478 26.9785 38.0679 26.9785 37.6226V37.3765C26.9785 36.8608 27.0547 36.4019 27.207 35.9995C27.3594 35.5933 27.5664 35.2495 27.8281 34.9683C28.0898 34.687 28.3867 34.4741 28.7188 34.3296C29.0508 34.1851 29.3945 34.1128 29.75 34.1128C30.2031 34.1128 30.5938 34.1909 30.9219 34.3472C31.2539 34.5034 31.5254 34.7222 31.7363 35.0034C31.9473 35.2808 32.1035 35.6089 32.2051 35.9878C32.3066 36.3628 32.3574 36.7729 32.3574 37.2183V37.7046H27.623V36.8198H31.2734V36.7378C31.2578 36.4565 31.1992 36.1831 31.0977 35.9175C31 35.6519 30.8438 35.4331 30.6289 35.2612C30.4141 35.0894 30.1211 35.0034 29.75 35.0034C29.5039 35.0034 29.2773 35.0562 29.0703 35.1616C28.8633 35.2632 28.6855 35.4155 28.5371 35.6187C28.3887 35.8218 28.2734 36.0698 28.1914 36.3628C28.1094 36.6558 28.0684 36.9937 28.0684 37.3765V37.6226C28.0684 37.9233 28.1094 38.2065 28.1914 38.4722C28.2773 38.7339 28.4004 38.9644 28.5605 39.1636C28.7246 39.3628 28.9219 39.519 29.1523 39.6323C29.3867 39.7456 29.6523 39.8022 29.9492 39.8022C30.332 39.8022 30.6562 39.7241 30.9219 39.5679C31.1875 39.4116 31.4199 39.2026 31.6191 38.9409L32.2754 39.4624C32.1387 39.6694 31.9648 39.8667 31.7539 40.0542C31.543 40.2417 31.2832 40.394 30.9746 40.5112C30.6699 40.6284 30.3086 40.687 29.8906 40.687Z" fill="white"/>
</svg>
