<svg width="78" height="66" viewBox="0 0 78 66" fill="none" xmlns="http://www.w3.org/2000/svg">
<path d="M31.5 20.625H26.5V4.375H51.5V20.625H31.5Z" stroke="#F8F8F8" stroke-width="2" stroke-linejoin="round"/>
<path d="M34 13.75V16.25M39 20.625V24.375M39 11.25V16.25M44 8.75V16.25M31.5 25.625H46.5" stroke="#F8F8F8" stroke-width="2" stroke-linecap="round" stroke-linejoin="round"/>
<path d="M19.5645 40.4688V49H18.4336V40.4688H19.5645ZM22.541 44.0137V49H21.457V42.6602H22.4824L22.541 44.0137ZM22.2832 45.5898L21.832 45.5723C21.8359 45.1387 21.9004 44.7383 22.0254 44.3711C22.1504 44 22.3262 43.6777 22.5527 43.4043C22.7793 43.1309 23.0488 42.9199 23.3613 42.7715C23.6777 42.6191 24.0273 42.543 24.4102 42.543C24.7227 42.543 25.0039 42.5859 25.2539 42.6719C25.5039 42.7539 25.7168 42.8867 25.8926 43.0703C26.0723 43.2539 26.209 43.4922 26.3027 43.7852C26.3965 44.0742 26.4434 44.4277 26.4434 44.8457V49H25.3535V44.834C25.3535 44.502 25.3047 44.2363 25.207 44.0371C25.1094 43.834 24.9668 43.6875 24.7793 43.5977C24.5918 43.5039 24.3613 43.457 24.0879 43.457C23.8184 43.457 23.5723 43.5137 23.3496 43.627C23.1309 43.7402 22.9414 43.8965 22.7812 44.0957C22.625 44.2949 22.502 44.5234 22.4121 44.7812C22.3262 45.0352 22.2832 45.3047 22.2832 45.5898ZM32.0859 47.7695V40H33.1758V49H32.1797L32.0859 47.7695ZM27.8203 45.9004V45.7773C27.8203 45.293 27.8789 44.8535 27.9961 44.459C28.1172 44.0605 28.2871 43.7188 28.5059 43.4336C28.7285 43.1484 28.9922 42.9297 29.2969 42.7773C29.6055 42.6211 29.9492 42.543 30.3281 42.543C30.7266 42.543 31.0742 42.6133 31.3711 42.7539C31.6719 42.8906 31.9258 43.0918 32.1328 43.3574C32.3438 43.6191 32.5098 43.9355 32.6309 44.3066C32.752 44.6777 32.8359 45.0977 32.8828 45.5664V46.1055C32.8398 46.5703 32.7559 46.9883 32.6309 47.3594C32.5098 47.7305 32.3438 48.0469 32.1328 48.3086C31.9258 48.5703 31.6719 48.7715 31.3711 48.9121C31.0703 49.0488 30.7188 49.1172 30.3164 49.1172C29.9453 49.1172 29.6055 49.0371 29.2969 48.877C28.9922 48.7168 28.7285 48.4922 28.5059 48.2031C28.2871 47.9141 28.1172 47.5742 27.9961 47.1836C27.8789 46.7891 27.8203 46.3613 27.8203 45.9004ZM28.9102 45.7773V45.9004C28.9102 46.2168 28.9414 46.5137 29.0039 46.791C29.0703 47.0684 29.1719 47.3125 29.3086 47.5234C29.4453 47.7344 29.6191 47.9004 29.8301 48.0215C30.041 48.1387 30.293 48.1973 30.5859 48.1973C30.9453 48.1973 31.2402 48.1211 31.4707 47.9688C31.7051 47.8164 31.8926 47.6152 32.0332 47.3652C32.1738 47.1152 32.2832 46.8438 32.3613 46.5508V45.1387C32.3145 44.9238 32.2461 44.7168 32.1562 44.5176C32.0703 44.3145 31.957 44.1348 31.8164 43.9785C31.6797 43.8184 31.5098 43.6914 31.3066 43.5977C31.1074 43.5039 30.8711 43.457 30.5977 43.457C30.3008 43.457 30.0449 43.5195 29.8301 43.6445C29.6191 43.7656 29.4453 43.9336 29.3086 44.1484C29.1719 44.3594 29.0703 44.6055 29.0039 44.8867C28.9414 45.1641 28.9102 45.4609 28.9102 45.7773ZM38.7422 47.5352V42.6602H39.832V49H38.7949L38.7422 47.5352ZM38.9473 46.1992L39.3984 46.1875C39.3984 46.6094 39.3535 47 39.2637 47.3594C39.1777 47.7148 39.0371 48.0234 38.8418 48.2852C38.6465 48.5469 38.3906 48.752 38.0742 48.9004C37.7578 49.0449 37.373 49.1172 36.9199 49.1172C36.6113 49.1172 36.3281 49.0723 36.0703 48.9824C35.8164 48.8926 35.5977 48.7539 35.4141 48.5664C35.2305 48.3789 35.0879 48.1348 34.9863 47.834C34.8887 47.5332 34.8398 47.1719 34.8398 46.75V42.6602H35.9238V46.7617C35.9238 47.0469 35.9551 47.2832 36.0176 47.4707C36.084 47.6543 36.1719 47.8008 36.2812 47.9102C36.3945 48.0156 36.5195 48.0898 36.6562 48.1328C36.7969 48.1758 36.9414 48.1973 37.0898 48.1973C37.5508 48.1973 37.916 48.1094 38.1855 47.9336C38.4551 47.7539 38.6484 47.5137 38.7656 47.2129C38.8867 46.9082 38.9473 46.5703 38.9473 46.1992ZM45.1758 47.3184C45.1758 47.1621 45.1406 47.0176 45.0703 46.8848C45.0039 46.748 44.8652 46.625 44.6543 46.5156C44.4473 46.4023 44.1348 46.3047 43.7168 46.2227C43.3652 46.1484 43.0469 46.0605 42.7617 45.959C42.4805 45.8574 42.2402 45.7344 42.041 45.5898C41.8457 45.4453 41.6953 45.2754 41.5898 45.0801C41.4844 44.8848 41.4316 44.6562 41.4316 44.3945C41.4316 44.1445 41.4863 43.9082 41.5957 43.6855C41.709 43.4629 41.8672 43.2656 42.0703 43.0938C42.2773 42.9219 42.5254 42.7871 42.8145 42.6895C43.1035 42.5918 43.4258 42.543 43.7812 42.543C44.2891 42.543 44.7227 42.6328 45.082 42.8125C45.4414 42.9922 45.7168 43.2324 45.9082 43.5332C46.0996 43.8301 46.1953 44.1602 46.1953 44.5234H45.1113C45.1113 44.3477 45.0586 44.1777 44.9531 44.0137C44.8516 43.8457 44.7012 43.707 44.502 43.5977C44.3066 43.4883 44.0664 43.4336 43.7812 43.4336C43.4805 43.4336 43.2363 43.4805 43.0488 43.5742C42.8652 43.6641 42.7305 43.7793 42.6445 43.9199C42.5625 44.0605 42.5215 44.209 42.5215 44.3652C42.5215 44.4824 42.541 44.5879 42.5801 44.6816C42.623 44.7715 42.6973 44.8555 42.8027 44.9336C42.9082 45.0078 43.0566 45.0781 43.248 45.1445C43.4395 45.2109 43.6836 45.2773 43.9805 45.3438C44.5 45.4609 44.9277 45.6016 45.2637 45.7656C45.5996 45.9297 45.8496 46.1309 46.0137 46.3691C46.1777 46.6074 46.2598 46.8965 46.2598 47.2363C46.2598 47.5137 46.2012 47.7676 46.084 47.998C45.9707 48.2285 45.8047 48.4277 45.5859 48.5957C45.3711 48.7598 45.1133 48.8887 44.8125 48.9824C44.5156 49.0723 44.1816 49.1172 43.8105 49.1172C43.252 49.1172 42.7793 49.0176 42.3926 48.8184C42.0059 48.6191 41.7129 48.3613 41.5137 48.0449C41.3145 47.7285 41.2148 47.3945 41.2148 47.043H42.3047C42.3203 47.3398 42.4062 47.5762 42.5625 47.752C42.7188 47.9238 42.9102 48.0469 43.1367 48.1211C43.3633 48.1914 43.5879 48.2266 43.8105 48.2266C44.1074 48.2266 44.3555 48.1875 44.5547 48.1094C44.7578 48.0312 44.9121 47.9238 45.0176 47.7871C45.123 47.6504 45.1758 47.4941 45.1758 47.3184ZM50.3379 42.6602V43.4922H46.9102V42.6602H50.3379ZM48.0703 41.1191H49.1543V47.4297C49.1543 47.6445 49.1875 47.8066 49.2539 47.916C49.3203 48.0254 49.4062 48.0977 49.5117 48.1328C49.6172 48.168 49.7305 48.1855 49.8516 48.1855C49.9414 48.1855 50.0352 48.1777 50.1328 48.1621C50.2344 48.1426 50.3105 48.127 50.3613 48.1152L50.3672 49C50.2812 49.0273 50.168 49.0527 50.0273 49.0762C49.8906 49.1035 49.7246 49.1172 49.5293 49.1172C49.2637 49.1172 49.0195 49.0645 48.7969 48.959C48.5742 48.8535 48.3965 48.6777 48.2637 48.4316C48.1348 48.1816 48.0703 47.8457 48.0703 47.4238V41.1191ZM52.6934 43.6562V49H51.6094V42.6602H52.6641L52.6934 43.6562ZM54.6738 42.625L54.668 43.6328C54.5781 43.6133 54.4922 43.6016 54.4102 43.5977C54.332 43.5898 54.2422 43.5859 54.1406 43.5859C53.8906 43.5859 53.6699 43.625 53.4785 43.7031C53.2871 43.7812 53.125 43.8906 52.9922 44.0312C52.8594 44.1719 52.7539 44.3398 52.6758 44.5352C52.6016 44.7266 52.5527 44.9375 52.5293 45.168L52.2246 45.3438C52.2246 44.9609 52.2617 44.6016 52.3359 44.2656C52.4141 43.9297 52.5332 43.6328 52.6934 43.375C52.8535 43.1133 53.0566 42.9102 53.3027 42.7656C53.5527 42.6172 53.8496 42.543 54.1934 42.543C54.2715 42.543 54.3613 42.5527 54.4629 42.5723C54.5645 42.5879 54.6348 42.6055 54.6738 42.625ZM57.5625 48.3438L59.3262 42.6602H60.4863L57.9434 49.9785C57.8848 50.1348 57.8066 50.3027 57.709 50.4824C57.6152 50.666 57.4941 50.8398 57.3457 51.0039C57.1973 51.168 57.0176 51.3008 56.8066 51.4023C56.5996 51.5078 56.3516 51.5605 56.0625 51.5605C55.9766 51.5605 55.8672 51.5488 55.7344 51.5254C55.6016 51.502 55.5078 51.4824 55.4531 51.4668L55.4473 50.5879C55.4785 50.5918 55.5273 50.5957 55.5938 50.5996C55.6641 50.6074 55.7129 50.6113 55.7402 50.6113C55.9863 50.6113 56.1953 50.5781 56.3672 50.5117C56.5391 50.4492 56.6836 50.3418 56.8008 50.1895C56.9219 50.041 57.0254 49.8359 57.1113 49.5742L57.5625 48.3438ZM56.2676 42.6602L57.9141 47.582L58.1953 48.7246L57.416 49.123L55.084 42.6602H56.2676ZM4.60547 59.0098H2.44336L2.43164 58.1016H4.39453C4.71875 58.1016 5.00195 58.0469 5.24414 57.9375C5.48633 57.8281 5.67383 57.6719 5.80664 57.4688C5.94336 57.2617 6.01172 57.0156 6.01172 56.7305C6.01172 56.418 5.95117 56.1641 5.83008 55.9688C5.71289 55.7695 5.53125 55.625 5.28516 55.5352C5.04297 55.4414 4.73438 55.3945 4.35938 55.3945H2.69531V63H1.56445V54.4688H4.35938C4.79688 54.4688 5.1875 54.5137 5.53125 54.6035C5.875 54.6895 6.16602 54.8262 6.4043 55.0137C6.64648 55.1973 6.83008 55.4316 6.95508 55.7168C7.08008 56.002 7.14258 56.3438 7.14258 56.7422C7.14258 57.0938 7.05273 57.4121 6.87305 57.6973C6.69336 57.9785 6.44336 58.209 6.12305 58.3887C5.80664 58.5684 5.43555 58.6836 5.00977 58.7344L4.60547 59.0098ZM4.55273 63H1.99805L2.63672 62.0801H4.55273C4.91211 62.0801 5.2168 62.0176 5.4668 61.8926C5.7207 61.7676 5.91406 61.5918 6.04688 61.3652C6.17969 61.1348 6.24609 60.8633 6.24609 60.5508C6.24609 60.2344 6.18945 59.9609 6.07617 59.7305C5.96289 59.5 5.78516 59.3223 5.54297 59.1973C5.30078 59.0723 4.98828 59.0098 4.60547 59.0098H2.99414L3.00586 58.1016H5.20898L5.44922 58.4297C5.85938 58.4648 6.20703 58.582 6.49219 58.7812C6.77734 58.9766 6.99414 59.2266 7.14258 59.5312C7.29492 59.8359 7.37109 60.1719 7.37109 60.5391C7.37109 61.0703 7.25391 61.5195 7.01953 61.8867C6.78906 62.25 6.46289 62.5273 6.04102 62.7188C5.61914 62.9062 5.12305 63 4.55273 63ZM11.5078 63.1172C11.0664 63.1172 10.666 63.043 10.3066 62.8945C9.95117 62.7422 9.64453 62.5293 9.38672 62.2559C9.13281 61.9824 8.9375 61.6582 8.80078 61.2832C8.66406 60.9082 8.5957 60.498 8.5957 60.0527V59.8066C8.5957 59.291 8.67188 58.832 8.82422 58.4297C8.97656 58.0234 9.18359 57.6797 9.44531 57.3984C9.70703 57.1172 10.0039 56.9043 10.3359 56.7598C10.668 56.6152 11.0117 56.543 11.3672 56.543C11.8203 56.543 12.2109 56.6211 12.5391 56.7773C12.8711 56.9336 13.1426 57.1523 13.3535 57.4336C13.5645 57.7109 13.7207 58.0391 13.8223 58.418C13.9238 58.793 13.9746 59.2031 13.9746 59.6484V60.1348H9.24023V59.25H12.8906V59.168C12.875 58.8867 12.8164 58.6133 12.7148 58.3477C12.6172 58.082 12.4609 57.8633 12.2461 57.6914C12.0312 57.5195 11.7383 57.4336 11.3672 57.4336C11.1211 57.4336 10.8945 57.4863 10.6875 57.5918C10.4805 57.6934 10.3027 57.8457 10.1543 58.0488C10.0059 58.252 9.89062 58.5 9.80859 58.793C9.72656 59.0859 9.68555 59.4238 9.68555 59.8066V60.0527C9.68555 60.3535 9.72656 60.6367 9.80859 60.9023C9.89453 61.1641 10.0176 61.3945 10.1777 61.5938C10.3418 61.793 10.5391 61.9492 10.7695 62.0625C11.0039 62.1758 11.2695 62.2324 11.5664 62.2324C11.9492 62.2324 12.2734 62.1543 12.5391 61.998C12.8047 61.8418 13.0371 61.6328 13.2363 61.3711L13.8926 61.8926C13.7559 62.0996 13.582 62.2969 13.3711 62.4844C13.1602 62.6719 12.9004 62.8242 12.5918 62.9414C12.2871 63.0586 11.9258 63.1172 11.5078 63.1172ZM16.3242 58.0137V63H15.2402V56.6602H16.2656L16.3242 58.0137ZM16.0664 59.5898L15.6152 59.5723C15.6191 59.1387 15.6836 58.7383 15.8086 58.3711C15.9336 58 16.1094 57.6777 16.3359 57.4043C16.5625 57.1309 16.832 56.9199 17.1445 56.7715C17.4609 56.6191 17.8105 56.543 18.1934 56.543C18.5059 56.543 18.7871 56.5859 19.0371 56.6719C19.2871 56.7539 19.5 56.8867 19.6758 57.0703C19.8555 57.2539 19.9922 57.4922 20.0859 57.7852C20.1797 58.0742 20.2266 58.4277 20.2266 58.8457V63H19.1367V58.834C19.1367 58.502 19.0879 58.2363 18.9902 58.0371C18.8926 57.834 18.75 57.6875 18.5625 57.5977C18.375 57.5039 18.1445 57.457 17.8711 57.457C17.6016 57.457 17.3555 57.5137 17.1328 57.627C16.9141 57.7402 16.7246 57.8965 16.5645 58.0957C16.4082 58.2949 16.2852 58.5234 16.1953 58.7812C16.1094 59.0352 16.0664 59.3047 16.0664 59.5898ZM24.4102 62.2266C24.668 62.2266 24.9062 62.1738 25.125 62.0684C25.3438 61.9629 25.5234 61.8184 25.6641 61.6348C25.8047 61.4473 25.8848 61.2344 25.9043 60.9961H26.9355C26.916 61.3711 26.7891 61.7207 26.5547 62.0449C26.3242 62.3652 26.0215 62.625 25.6465 62.8242C25.2715 63.0195 24.8594 63.1172 24.4102 63.1172C23.9336 63.1172 23.5176 63.0332 23.1621 62.8652C22.8105 62.6973 22.5176 62.4668 22.2832 62.1738C22.0527 61.8809 21.8789 61.5449 21.7617 61.166C21.6484 60.7832 21.5918 60.3789 21.5918 59.9531V59.707C21.5918 59.2812 21.6484 58.8789 21.7617 58.5C21.8789 58.1172 22.0527 57.7793 22.2832 57.4863C22.5176 57.1934 22.8105 56.9629 23.1621 56.7949C23.5176 56.627 23.9336 56.543 24.4102 56.543C24.9062 56.543 25.3398 56.6445 25.7109 56.8477C26.082 57.0469 26.373 57.3203 26.584 57.668C26.7988 58.0117 26.916 58.4023 26.9355 58.8398H25.9043C25.8848 58.5781 25.8105 58.3418 25.6816 58.1309C25.5566 57.9199 25.3848 57.752 25.166 57.627C24.9512 57.498 24.6992 57.4336 24.4102 57.4336C24.0781 57.4336 23.7988 57.5 23.5723 57.6328C23.3496 57.7617 23.1719 57.9375 23.0391 58.1602C22.9102 58.3789 22.8164 58.623 22.7578 58.8926C22.7031 59.1582 22.6758 59.4297 22.6758 59.707V59.9531C22.6758 60.2305 22.7031 60.5039 22.7578 60.7734C22.8125 61.043 22.9043 61.2871 23.0332 61.5059C23.166 61.7246 23.3438 61.9004 23.5664 62.0332C23.793 62.1621 24.0742 62.2266 24.4102 62.2266ZM29.2383 54V63H28.1543V54H29.2383ZM28.9805 59.5898L28.5293 59.5723C28.5332 59.1387 28.5977 58.7383 28.7227 58.3711C28.8477 58 29.0234 57.6777 29.25 57.4043C29.4766 57.1309 29.7461 56.9199 30.0586 56.7715C30.375 56.6191 30.7246 56.543 31.1074 56.543C31.4199 56.543 31.7012 56.5859 31.9512 56.6719C32.2012 56.7539 32.4141 56.8867 32.5898 57.0703C32.7695 57.2539 32.9062 57.4922 33 57.7852C33.0938 58.0742 33.1406 58.4277 33.1406 58.8457V63H32.0508V58.834C32.0508 58.502 32.002 58.2363 31.9043 58.0371C31.8066 57.834 31.6641 57.6875 31.4766 57.5977C31.2891 57.5039 31.0586 57.457 30.7852 57.457C30.5156 57.457 30.2695 57.5137 30.0469 57.627C29.8281 57.7402 29.6387 57.8965 29.4785 58.0957C29.3223 58.2949 29.1992 58.5234 29.1094 58.7812C29.0234 59.0352 28.9805 59.3047 28.9805 59.5898ZM35.8418 57.9199V63H34.752V56.6602H35.7832L35.8418 57.9199ZM35.6191 59.5898L35.1152 59.5723C35.1191 59.1387 35.1758 58.7383 35.2852 58.3711C35.3945 58 35.5566 57.6777 35.7715 57.4043C35.9863 57.1309 36.2539 56.9199 36.5742 56.7715C36.8945 56.6191 37.2656 56.543 37.6875 56.543C37.9844 56.543 38.2578 56.5859 38.5078 56.6719C38.7578 56.7539 38.9746 56.8848 39.1582 57.0645C39.3418 57.2441 39.4844 57.4746 39.5859 57.7559C39.6875 58.0371 39.7383 58.377 39.7383 58.7754V63H38.6543V58.8281C38.6543 58.4961 38.5977 58.2305 38.4844 58.0312C38.375 57.832 38.2188 57.6875 38.0156 57.5977C37.8125 57.5039 37.5742 57.457 37.3008 57.457C36.9805 57.457 36.7129 57.5137 36.498 57.627C36.2832 57.7402 36.1113 57.8965 35.9824 58.0957C35.8535 58.2949 35.7598 58.5234 35.7012 58.7812C35.6465 59.0352 35.6191 59.3047 35.6191 59.5898ZM39.7266 58.9922L39 59.2148C39.0039 58.8672 39.0605 58.5332 39.1699 58.2129C39.2832 57.8926 39.4453 57.6074 39.6562 57.3574C39.8711 57.1074 40.1348 56.9102 40.4473 56.7656C40.7598 56.6172 41.1172 56.543 41.5195 56.543C41.8594 56.543 42.1602 56.5879 42.4219 56.6777C42.6875 56.7676 42.9102 56.9062 43.0898 57.0938C43.2734 57.2773 43.4121 57.5137 43.5059 57.8027C43.5996 58.0918 43.6465 58.4355 43.6465 58.834V63H42.5566V58.8223C42.5566 58.4668 42.5 58.1914 42.3867 57.9961C42.2773 57.7969 42.1211 57.6582 41.918 57.5801C41.7188 57.498 41.4805 57.457 41.2031 57.457C40.9648 57.457 40.7539 57.498 40.5703 57.5801C40.3867 57.6621 40.2324 57.7754 40.1074 57.9199C39.9824 58.0605 39.8867 58.2227 39.8203 58.4062C39.7578 58.5898 39.7266 58.7852 39.7266 58.9922ZM49.0254 61.916V58.6523C49.0254 58.4023 48.9746 58.1855 48.873 58.002C48.7754 57.8145 48.627 57.6699 48.4277 57.5684C48.2285 57.4668 47.9824 57.416 47.6895 57.416C47.416 57.416 47.1758 57.4629 46.9688 57.5566C46.7656 57.6504 46.6055 57.7734 46.4883 57.9258C46.375 58.0781 46.3184 58.2422 46.3184 58.418H45.2344C45.2344 58.1914 45.293 57.9668 45.4102 57.7441C45.5273 57.5215 45.6953 57.3203 45.9141 57.1406C46.1367 56.957 46.4023 56.8125 46.7109 56.707C47.0234 56.5977 47.3711 56.543 47.7539 56.543C48.2148 56.543 48.6211 56.6211 48.9727 56.7773C49.3281 56.9336 49.6055 57.1699 49.8047 57.4863C50.0078 57.7988 50.1094 58.1914 50.1094 58.6641V61.6172C50.1094 61.8281 50.127 62.0527 50.1621 62.291C50.2012 62.5293 50.2578 62.7344 50.332 62.9062V63H49.2012C49.1465 62.875 49.1035 62.709 49.0723 62.502C49.041 62.291 49.0254 62.0957 49.0254 61.916ZM49.2129 59.1562L49.2246 59.918H48.1289C47.8203 59.918 47.5449 59.9434 47.3027 59.9941C47.0605 60.041 46.8574 60.1133 46.6934 60.2109C46.5293 60.3086 46.4043 60.4316 46.3184 60.5801C46.2324 60.7246 46.1895 60.8945 46.1895 61.0898C46.1895 61.2891 46.2344 61.4707 46.3242 61.6348C46.4141 61.7988 46.5488 61.9297 46.7285 62.0273C46.9121 62.1211 47.1367 62.168 47.4023 62.168C47.7344 62.168 48.0273 62.0977 48.2812 61.957C48.5352 61.8164 48.7363 61.6445 48.8848 61.4414C49.0371 61.2383 49.1191 61.041 49.1309 60.8496L49.5938 61.3711C49.5664 61.5352 49.4922 61.7168 49.3711 61.916C49.25 62.1152 49.0879 62.3066 48.8848 62.4902C48.6855 62.6699 48.4473 62.8203 48.1699 62.9414C47.8965 63.0586 47.5879 63.1172 47.2441 63.1172C46.8145 63.1172 46.4375 63.0332 46.1133 62.8652C45.793 62.6973 45.543 62.4727 45.3633 62.1914C45.1875 61.9062 45.0996 61.5879 45.0996 61.2363C45.0996 60.8965 45.166 60.5977 45.2988 60.3398C45.4316 60.0781 45.623 59.8613 45.873 59.6895C46.123 59.5137 46.4238 59.3809 46.7754 59.291C47.127 59.2012 47.5195 59.1562 47.9531 59.1562H49.2129ZM52.8984 57.6562V63H51.8145V56.6602H52.8691L52.8984 57.6562ZM54.8789 56.625L54.873 57.6328C54.7832 57.6133 54.6973 57.6016 54.6152 57.5977C54.5371 57.5898 54.4473 57.5859 54.3457 57.5859C54.0957 57.5859 53.875 57.625 53.6836 57.7031C53.4922 57.7812 53.3301 57.8906 53.1973 58.0312C53.0645 58.1719 52.959 58.3398 52.8809 58.5352C52.8066 58.7266 52.7578 58.9375 52.7344 59.168L52.4297 59.3438C52.4297 58.9609 52.4668 58.6016 52.541 58.2656C52.6191 57.9297 52.7383 57.6328 52.8984 57.375C53.0586 57.1133 53.2617 56.9102 53.5078 56.7656C53.7578 56.6172 54.0547 56.543 54.3984 56.543C54.4766 56.543 54.5664 56.5527 54.668 56.5723C54.7695 56.5879 54.8398 56.6055 54.8789 56.625ZM56.9707 54V63H55.8809V54H56.9707ZM60.8438 56.6602L58.0781 59.6191L56.5312 61.2246L56.4434 60.0703L57.5508 58.7461L59.5195 56.6602H60.8438ZM59.8535 63L57.5918 59.9766L58.1543 59.0098L61.1309 63H59.8535ZM63.1406 56.6602V63H62.0508V56.6602H63.1406ZM61.9688 54.9785C61.9688 54.8027 62.0215 54.6543 62.127 54.5332C62.2363 54.4121 62.3965 54.3516 62.6074 54.3516C62.8145 54.3516 62.9727 54.4121 63.082 54.5332C63.1953 54.6543 63.252 54.8027 63.252 54.9785C63.252 55.1465 63.1953 55.291 63.082 55.4121C62.9727 55.5293 62.8145 55.5879 62.6074 55.5879C62.3965 55.5879 62.2363 55.5293 62.127 55.4121C62.0215 55.291 61.9688 55.1465 61.9688 54.9785ZM65.9648 58.0137V63H64.8809V56.6602H65.9062L65.9648 58.0137ZM65.707 59.5898L65.2559 59.5723C65.2598 59.1387 65.3242 58.7383 65.4492 58.3711C65.5742 58 65.75 57.6777 65.9766 57.4043C66.2031 57.1309 66.4727 56.9199 66.7852 56.7715C67.1016 56.6191 67.4512 56.543 67.834 56.543C68.1465 56.543 68.4277 56.5859 68.6777 56.6719C68.9277 56.7539 69.1406 56.8867 69.3164 57.0703C69.4961 57.2539 69.6328 57.4922 69.7266 57.7852C69.8203 58.0742 69.8672 58.4277 69.8672 58.8457V63H68.7773V58.834C68.7773 58.502 68.7285 58.2363 68.6309 58.0371C68.5332 57.834 68.3906 57.6875 68.2031 57.5977C68.0156 57.5039 67.7852 57.457 67.5117 57.457C67.2422 57.457 66.9961 57.5137 66.7734 57.627C66.5547 57.7402 66.3652 57.8965 66.2051 58.0957C66.0488 58.2949 65.9258 58.5234 65.8359 58.7812C65.75 59.0352 65.707 59.3047 65.707 59.5898ZM75.6211 56.6602H76.6055V62.8652C76.6055 63.4238 76.4922 63.9004 76.2656 64.2949C76.0391 64.6895 75.7227 64.9883 75.3164 65.1914C74.9141 65.3984 74.4492 65.502 73.9219 65.502C73.7031 65.502 73.4453 65.4668 73.1484 65.3965C72.8555 65.3301 72.5664 65.2148 72.2812 65.0508C72 64.8906 71.7637 64.6738 71.5723 64.4004L72.1406 63.7559C72.4062 64.0762 72.6836 64.2988 72.9727 64.4238C73.2656 64.5488 73.5547 64.6113 73.8398 64.6113C74.1836 64.6113 74.4805 64.5469 74.7305 64.418C74.9805 64.2891 75.1738 64.0977 75.3105 63.8438C75.4512 63.5938 75.5215 63.2852 75.5215 62.918V58.0547L75.6211 56.6602ZM71.2559 59.9004V59.7773C71.2559 59.293 71.3125 58.8535 71.4258 58.459C71.543 58.0605 71.709 57.7188 71.9238 57.4336C72.1426 57.1484 72.4062 56.9297 72.7148 56.7773C73.0234 56.6211 73.3711 56.543 73.7578 56.543C74.1562 56.543 74.5039 56.6133 74.8008 56.7539C75.1016 56.8906 75.3555 57.0918 75.5625 57.3574C75.7734 57.6191 75.9395 57.9355 76.0605 58.3066C76.1816 58.6777 76.2656 59.0977 76.3125 59.5664V60.1055C76.2695 60.5703 76.1855 60.9883 76.0605 61.3594C75.9395 61.7305 75.7734 62.0469 75.5625 62.3086C75.3555 62.5703 75.1016 62.7715 74.8008 62.9121C74.5 63.0488 74.1484 63.1172 73.7461 63.1172C73.3672 63.1172 73.0234 63.0371 72.7148 62.877C72.4102 62.7168 72.1484 62.4922 71.9297 62.2031C71.7109 61.9141 71.543 61.5742 71.4258 61.1836C71.3125 60.7891 71.2559 60.3613 71.2559 59.9004ZM72.3398 59.7773V59.9004C72.3398 60.2168 72.3711 60.5137 72.4336 60.791C72.5 61.0684 72.5996 61.3125 72.7324 61.5234C72.8691 61.7344 73.043 61.9004 73.2539 62.0215C73.4648 62.1387 73.7168 62.1973 74.0098 62.1973C74.3691 62.1973 74.666 62.1211 74.9004 61.9688C75.1348 61.8164 75.3203 61.6152 75.457 61.3652C75.5977 61.1152 75.707 60.8438 75.7852 60.5508V59.1387C75.7422 58.9238 75.6758 58.7168 75.5859 58.5176C75.5 58.3145 75.3867 58.1348 75.2461 57.9785C75.1094 57.8184 74.9395 57.6914 74.7363 57.5977C74.5332 57.5039 74.2949 57.457 74.0215 57.457C73.7246 57.457 73.4688 57.5195 73.2539 57.6445C73.043 57.7656 72.8691 57.9336 72.7324 58.1484C72.5996 58.3594 72.5 58.6055 72.4336 58.8867C72.3711 59.1641 72.3398 59.4609 72.3398 59.7773Z" fill="#FCFEFF"/>
</svg>
