<svg width="64" height="52" viewBox="0 0 64 52" fill="none" xmlns="http://www.w3.org/2000/svg">
<path d="M19.57 24.3937L27.18 16.7062L31.2925 20.6437L36.3187 16.25L39.1187 18.98M44.5 6.875C44.5 6.37772 44.3025 5.90081 43.9508 5.54917C43.5992 5.19754 43.1223 5 42.625 5H21.375C20.8777 5 20.4008 5.19754 20.0492 5.54917C19.6975 5.90081 19.5 6.37772 19.5 6.875V12.5H44.5V6.875Z" stroke="#F8F8F8" stroke-width="2" stroke-linecap="round" stroke-linejoin="round"/>
<path d="M44.5 11.25V23.125C44.5 23.6223 44.3025 24.0992 43.9508 24.4508C43.5992 24.8025 43.1223 25 42.625 25H24.5M28.945 8.75H40.195M23.9437 8.75H25.1937M19.5 11.25V16.875" stroke="#F8F8F8" stroke-width="2" stroke-linecap="round" stroke-linejoin="round"/>
<path d="M2.62109 40.4688V49H1.49023V40.4688H2.62109ZM7.77148 40.4688L4.22656 44.4473L2.23438 46.5156L2.04688 45.3086L3.54688 43.6562L6.41211 40.4688H7.77148ZM6.68164 49L3.52344 44.8398L4.19727 43.9434L8.0293 49H6.68164ZM11.3398 49.1172C10.8984 49.1172 10.498 49.043 10.1387 48.8945C9.7832 48.7422 9.47656 48.5293 9.21875 48.2559C8.96484 47.9824 8.76953 47.6582 8.63281 47.2832C8.49609 46.9082 8.42773 46.498 8.42773 46.0527V45.8066C8.42773 45.291 8.50391 44.832 8.65625 44.4297C8.80859 44.0234 9.01562 43.6797 9.27734 43.3984C9.53906 43.1172 9.83594 42.9043 10.168 42.7598C10.5 42.6152 10.8438 42.543 11.1992 42.543C11.6523 42.543 12.043 42.6211 12.3711 42.7773C12.7031 42.9336 12.9746 43.1523 13.1855 43.4336C13.3965 43.7109 13.5527 44.0391 13.6543 44.418C13.7559 44.793 13.8066 45.2031 13.8066 45.6484V46.1348H9.07227V45.25H12.7227V45.168C12.707 44.8867 12.6484 44.6133 12.5469 44.3477C12.4492 44.082 12.293 43.8633 12.0781 43.6914C11.8633 43.5195 11.5703 43.4336 11.1992 43.4336C10.9531 43.4336 10.7266 43.4863 10.5195 43.5918C10.3125 43.6934 10.1348 43.8457 9.98633 44.0488C9.83789 44.252 9.72266 44.5 9.64062 44.793C9.55859 45.0859 9.51758 45.4238 9.51758 45.8066V46.0527C9.51758 46.3535 9.55859 46.6367 9.64062 46.9023C9.72656 47.1641 9.84961 47.3945 10.0098 47.5938C10.1738 47.793 10.3711 47.9492 10.6016 48.0625C10.8359 48.1758 11.1016 48.2324 11.3984 48.2324C11.7812 48.2324 12.1055 48.1543 12.3711 47.998C12.6367 47.8418 12.8691 47.6328 13.0684 47.3711L13.7246 47.8926C13.5879 48.0996 13.4141 48.2969 13.2031 48.4844C12.9922 48.6719 12.7324 48.8242 12.4238 48.9414C12.1191 49.0586 11.7578 49.1172 11.3398 49.1172ZM16.7715 48.3438L18.5352 42.6602H19.6953L17.1523 49.9785C17.0938 50.1348 17.0156 50.3027 16.918 50.4824C16.8242 50.666 16.7031 50.8398 16.5547 51.0039C16.4062 51.168 16.2266 51.3008 16.0156 51.4023C15.8086 51.5078 15.5605 51.5605 15.2715 51.5605C15.1855 51.5605 15.0762 51.5488 14.9434 51.5254C14.8105 51.502 14.7168 51.4824 14.6621 51.4668L14.6562 50.5879C14.6875 50.5918 14.7363 50.5957 14.8027 50.5996C14.873 50.6074 14.9219 50.6113 14.9492 50.6113C15.1953 50.6113 15.4043 50.5781 15.5762 50.5117C15.748 50.4492 15.8926 50.3418 16.0098 50.1895C16.1309 50.041 16.2344 49.8359 16.3203 49.5742L16.7715 48.3438ZM15.4766 42.6602L17.123 47.582L17.4043 48.7246L16.625 49.123L14.293 42.6602H15.4766ZM24.1719 40.4688H25.2676L28.0625 47.4238L30.8516 40.4688H31.9531L28.4844 49H27.6289L24.1719 40.4688ZM23.8145 40.4688H24.7812L24.9395 45.6719V49H23.8145V40.4688ZM31.3379 40.4688H32.3047V49H31.1797V45.6719L31.3379 40.4688ZM36.7578 49.1172C36.3164 49.1172 35.916 49.043 35.5566 48.8945C35.2012 48.7422 34.8945 48.5293 34.6367 48.2559C34.3828 47.9824 34.1875 47.6582 34.0508 47.2832C33.9141 46.9082 33.8457 46.498 33.8457 46.0527V45.8066C33.8457 45.291 33.9219 44.832 34.0742 44.4297C34.2266 44.0234 34.4336 43.6797 34.6953 43.3984C34.957 43.1172 35.2539 42.9043 35.5859 42.7598C35.918 42.6152 36.2617 42.543 36.6172 42.543C37.0703 42.543 37.4609 42.6211 37.7891 42.7773C38.1211 42.9336 38.3926 43.1523 38.6035 43.4336C38.8145 43.7109 38.9707 44.0391 39.0723 44.418C39.1738 44.793 39.2246 45.2031 39.2246 45.6484V46.1348H34.4902V45.25H38.1406V45.168C38.125 44.8867 38.0664 44.6133 37.9648 44.3477C37.8672 44.082 37.7109 43.8633 37.4961 43.6914C37.2812 43.5195 36.9883 43.4336 36.6172 43.4336C36.3711 43.4336 36.1445 43.4863 35.9375 43.5918C35.7305 43.6934 35.5527 43.8457 35.4043 44.0488C35.2559 44.252 35.1406 44.5 35.0586 44.793C34.9766 45.0859 34.9355 45.4238 34.9355 45.8066V46.0527C34.9355 46.3535 34.9766 46.6367 35.0586 46.9023C35.1445 47.1641 35.2676 47.3945 35.4277 47.5938C35.5918 47.793 35.7891 47.9492 36.0195 48.0625C36.2539 48.1758 36.5195 48.2324 36.8164 48.2324C37.1992 48.2324 37.5234 48.1543 37.7891 47.998C38.0547 47.8418 38.2871 47.6328 38.4863 47.3711L39.1426 47.8926C39.0059 48.0996 38.832 48.2969 38.6211 48.4844C38.4102 48.6719 38.1504 48.8242 37.8418 48.9414C37.5371 49.0586 37.1758 49.1172 36.7578 49.1172ZM43.1445 42.6602V43.4922H39.7168V42.6602H43.1445ZM40.877 41.1191H41.9609V47.4297C41.9609 47.6445 41.9941 47.8066 42.0605 47.916C42.127 48.0254 42.2129 48.0977 42.3184 48.1328C42.4238 48.168 42.5371 48.1855 42.6582 48.1855C42.748 48.1855 42.8418 48.1777 42.9395 48.1621C43.041 48.1426 43.1172 48.127 43.168 48.1152L43.1738 49C43.0879 49.0273 42.9746 49.0527 42.834 49.0762C42.6973 49.1035 42.5312 49.1172 42.3359 49.1172C42.0703 49.1172 41.8262 49.0645 41.6035 48.959C41.3809 48.8535 41.2031 48.6777 41.0703 48.4316C40.9414 48.1816 40.877 47.8457 40.877 47.4238V41.1191ZM45.5 43.6562V49H44.416V42.6602H45.4707L45.5 43.6562ZM47.4805 42.625L47.4746 43.6328C47.3848 43.6133 47.2988 43.6016 47.2168 43.5977C47.1387 43.5898 47.0488 43.5859 46.9473 43.5859C46.6973 43.5859 46.4766 43.625 46.2852 43.7031C46.0938 43.7812 45.9316 43.8906 45.7988 44.0312C45.666 44.1719 45.5605 44.3398 45.4824 44.5352C45.4082 44.7266 45.3594 44.9375 45.3359 45.168L45.0312 45.3438C45.0312 44.9609 45.0684 44.6016 45.1426 44.2656C45.2207 43.9297 45.3398 43.6328 45.5 43.375C45.6602 43.1133 45.8633 42.9102 46.1094 42.7656C46.3594 42.6172 46.6562 42.543 47 42.543C47.0781 42.543 47.168 42.5527 47.2695 42.5723C47.3711 42.5879 47.4414 42.6055 47.4805 42.625ZM49.6602 42.6602V49H48.5703V42.6602H49.6602ZM48.4883 40.9785C48.4883 40.8027 48.541 40.6543 48.6465 40.5332C48.7559 40.4121 48.916 40.3516 49.127 40.3516C49.334 40.3516 49.4922 40.4121 49.6016 40.5332C49.7148 40.6543 49.7715 40.8027 49.7715 40.9785C49.7715 41.1465 49.7148 41.291 49.6016 41.4121C49.4922 41.5293 49.334 41.5879 49.127 41.5879C48.916 41.5879 48.7559 41.5293 48.6465 41.4121C48.541 41.291 48.4883 41.1465 48.4883 40.9785ZM53.9375 48.2266C54.1953 48.2266 54.4336 48.1738 54.6523 48.0684C54.8711 47.9629 55.0508 47.8184 55.1914 47.6348C55.332 47.4473 55.4121 47.2344 55.4316 46.9961H56.4629C56.4434 47.3711 56.3164 47.7207 56.082 48.0449C55.8516 48.3652 55.5488 48.625 55.1738 48.8242C54.7988 49.0195 54.3867 49.1172 53.9375 49.1172C53.4609 49.1172 53.0449 49.0332 52.6895 48.8652C52.3379 48.6973 52.0449 48.4668 51.8105 48.1738C51.5801 47.8809 51.4062 47.5449 51.2891 47.166C51.1758 46.7832 51.1191 46.3789 51.1191 45.9531V45.707C51.1191 45.2812 51.1758 44.8789 51.2891 44.5C51.4062 44.1172 51.5801 43.7793 51.8105 43.4863C52.0449 43.1934 52.3379 42.9629 52.6895 42.7949C53.0449 42.627 53.4609 42.543 53.9375 42.543C54.4336 42.543 54.8672 42.6445 55.2383 42.8477C55.6094 43.0469 55.9004 43.3203 56.1113 43.668C56.3262 44.0117 56.4434 44.4023 56.4629 44.8398H55.4316C55.4121 44.5781 55.3379 44.3418 55.209 44.1309C55.084 43.9199 54.9121 43.752 54.6934 43.627C54.4785 43.498 54.2266 43.4336 53.9375 43.4336C53.6055 43.4336 53.3262 43.5 53.0996 43.6328C52.877 43.7617 52.6992 43.9375 52.5664 44.1602C52.4375 44.3789 52.3438 44.623 52.2852 44.8926C52.2305 45.1582 52.2031 45.4297 52.2031 45.707V45.9531C52.2031 46.2305 52.2305 46.5039 52.2852 46.7734C52.3398 47.043 52.4316 47.2871 52.5605 47.5059C52.6934 47.7246 52.8711 47.9004 53.0938 48.0332C53.3203 48.1621 53.6016 48.2266 53.9375 48.2266ZM61.373 47.3184C61.373 47.1621 61.3379 47.0176 61.2676 46.8848C61.2012 46.748 61.0625 46.625 60.8516 46.5156C60.6445 46.4023 60.332 46.3047 59.9141 46.2227C59.5625 46.1484 59.2441 46.0605 58.959 45.959C58.6777 45.8574 58.4375 45.7344 58.2383 45.5898C58.043 45.4453 57.8926 45.2754 57.7871 45.0801C57.6816 44.8848 57.6289 44.6562 57.6289 44.3945C57.6289 44.1445 57.6836 43.9082 57.793 43.6855C57.9062 43.4629 58.0645 43.2656 58.2676 43.0938C58.4746 42.9219 58.7227 42.7871 59.0117 42.6895C59.3008 42.5918 59.623 42.543 59.9785 42.543C60.4863 42.543 60.9199 42.6328 61.2793 42.8125C61.6387 42.9922 61.9141 43.2324 62.1055 43.5332C62.2969 43.8301 62.3926 44.1602 62.3926 44.5234H61.3086C61.3086 44.3477 61.2559 44.1777 61.1504 44.0137C61.0488 43.8457 60.8984 43.707 60.6992 43.5977C60.5039 43.4883 60.2637 43.4336 59.9785 43.4336C59.6777 43.4336 59.4336 43.4805 59.2461 43.5742C59.0625 43.6641 58.9277 43.7793 58.8418 43.9199C58.7598 44.0605 58.7188 44.209 58.7188 44.3652C58.7188 44.4824 58.7383 44.5879 58.7773 44.6816C58.8203 44.7715 58.8945 44.8555 59 44.9336C59.1055 45.0078 59.2539 45.0781 59.4453 45.1445C59.6367 45.2109 59.8809 45.2773 60.1777 45.3438C60.6973 45.4609 61.125 45.6016 61.4609 45.7656C61.7969 45.9297 62.0469 46.1309 62.2109 46.3691C62.375 46.6074 62.457 46.8965 62.457 47.2363C62.457 47.5137 62.3984 47.7676 62.2812 47.998C62.168 48.2285 62.002 48.4277 61.7832 48.5957C61.5684 48.7598 61.3105 48.8887 61.0098 48.9824C60.7129 49.0723 60.3789 49.1172 60.0078 49.1172C59.4492 49.1172 58.9766 49.0176 58.5898 48.8184C58.2031 48.6191 57.9102 48.3613 57.7109 48.0449C57.5117 47.7285 57.4121 47.3945 57.4121 47.043H58.502C58.5176 47.3398 58.6035 47.5762 58.7598 47.752C58.916 47.9238 59.1074 48.0469 59.334 48.1211C59.5605 48.1914 59.7852 48.2266 60.0078 48.2266C60.3047 48.2266 60.5527 48.1875 60.752 48.1094C60.9551 48.0312 61.1094 47.9238 61.2148 47.7871C61.3203 47.6504 61.373 47.4941 61.373 47.3184Z" fill="#FCFEFF"/>
</svg>
