<svg width="54" height="52" viewBox="0 0 54 52" fill="none" xmlns="http://www.w3.org/2000/svg">
<path d="M37.875 21.5625H33.0938C32.8608 21.5625 32.6719 21.7514 32.6719 21.9844V22.875C32.6719 23.108 32.8608 23.2969 33.0938 23.2969H37.875C38.108 23.2969 38.2969 23.108 38.2969 22.875V21.9844C38.2969 21.7514 38.108 21.5625 37.875 21.5625Z" fill="white"/>
<path d="M37.875 13.2188H34.2656C34.0326 13.2188 33.8438 13.4076 33.8438 13.6406V14.5312C33.8438 14.7642 34.0326 14.9531 34.2656 14.9531H37.875C38.108 14.9531 38.2969 14.7642 38.2969 14.5312V13.6406C38.2969 13.4076 38.108 13.2188 37.875 13.2188Z" fill="white"/>
<path d="M37.875 17.3906H36.3281C36.0951 17.3906 35.9062 17.5795 35.9062 17.8125V18.7031C35.9062 18.9361 36.0951 19.125 36.3281 19.125H37.875C38.108 19.125 38.2969 18.9361 38.2969 18.7031V17.8125C38.2969 17.5795 38.108 17.3906 37.875 17.3906Z" fill="white"/>
<path d="M21.1875 21.5625H16.125C15.892 21.5625 15.7031 21.7514 15.7031 21.9844V22.875C15.7031 23.108 15.892 23.2969 16.125 23.2969H21.1875C21.4205 23.2969 21.6094 23.108 21.6094 22.875V21.9844C21.6094 21.7514 21.4205 21.5625 21.1875 21.5625Z" fill="white"/>
<path d="M19.4062 13.2188H16.125C15.892 13.2188 15.7031 13.4076 15.7031 13.6406V14.5312C15.7031 14.7642 15.892 14.9531 16.125 14.9531H19.4062C19.6392 14.9531 19.8281 14.7642 19.8281 14.5312V13.6406C19.8281 13.4076 19.6392 13.2188 19.4062 13.2188Z" fill="white"/>
<path d="M28.8281 21.5625H24.4688C24.2358 21.5625 24.0469 21.7514 24.0469 21.9844V22.875C24.0469 23.108 24.2358 23.2969 24.4688 23.2969H28.8281C29.0611 23.2969 29.25 23.108 29.25 22.875V21.9844C29.25 21.7514 29.0611 21.5625 28.8281 21.5625Z" fill="white"/>
<path d="M30.4219 13.2188H23.2031C22.9701 13.2188 22.7812 13.4076 22.7812 13.6406V14.5312C22.7812 14.7642 22.9701 14.9531 23.2031 14.9531H30.4219C30.6549 14.9531 30.8438 14.7642 30.8438 14.5312V13.6406C30.8438 13.4076 30.6549 13.2188 30.4219 13.2188Z" fill="white"/>
<path d="M24.5625 17.3906H19.9219C19.6889 17.3906 19.5 17.5795 19.5 17.8125V18.7031C19.5 18.9361 19.6889 19.125 19.9219 19.125H24.5625C24.7955 19.125 24.9844 18.9361 24.9844 18.7031V17.8125C24.9844 17.5795 24.7955 17.3906 24.5625 17.3906Z" fill="white"/>
<path d="M17.1436 5.15109V6.70781C17.1436 7.03688 17.4112 7.30453 17.7403 7.30453H18.7645C18.9778 7.30453 19.1507 7.47797 19.1507 7.69078V9.04266C19.1507 9.37172 19.4184 9.63937 19.7475 9.63937H20.362C20.6911 9.63937 20.9587 9.37172 20.9587 9.04266V7.69078C20.9587 7.4775 21.1321 7.30453 21.345 7.30453H22.5332C22.7465 7.30453 22.9195 7.47797 22.9195 7.69078V8.10047C22.9195 8.42953 23.1871 8.69719 23.5162 8.69719H24.1307C24.4598 8.69719 24.7275 8.42953 24.7275 8.10047V7.69078C24.7275 7.4775 24.9009 7.30453 25.1137 7.30453H26.2992C26.4651 7.30453 26.6123 7.41047 26.6653 7.56797C27.3759 9.71391 29.3704 11.1558 31.6284 11.1558C34.5103 11.1558 36.855 8.81109 36.855 5.92922C36.855 3.04734 34.5117 0.703125 31.6298 0.703125C29.3723 0.703125 27.3778 2.14453 26.6671 4.28953C26.6142 4.44797 26.467 4.55438 26.3006 4.55438H17.7407C17.4117 4.55438 17.144 4.82203 17.144 5.15109H17.1436ZM31.6293 3.37172C33.0398 3.37172 34.1873 4.51922 34.1873 5.92969C34.1873 7.34016 33.0398 8.48766 31.6293 8.48766C30.2189 8.48766 29.0714 7.34016 29.0714 5.92969C29.0714 4.51922 30.2189 3.37172 31.6293 3.37172Z" fill="white"/>
<path d="M17.0625 17.3906H16.125C15.892 17.3906 15.7031 17.5795 15.7031 17.8125V18.7031C15.7031 18.9361 15.892 19.125 16.125 19.125H17.0625C17.2955 19.125 17.4844 18.9361 17.4844 18.7031V17.8125C17.4844 17.5795 17.2955 17.3906 17.0625 17.3906Z" fill="white"/>
<path d="M32.9531 17.3906H28.2188C27.9858 17.3906 27.7969 17.5795 27.7969 17.8125V18.7031C27.7969 18.9361 27.9858 19.125 28.2188 19.125H32.9531C33.1861 19.125 33.375 18.9361 33.375 18.7031V17.8125C33.375 17.5795 33.1861 17.3906 32.9531 17.3906Z" fill="white"/>
<path d="M31.6302 8.20639C32.8876 8.20639 33.907 7.18707 33.907 5.92967C33.907 4.67228 32.8876 3.65295 31.6302 3.65295C30.3728 3.65295 29.3535 4.67228 29.3535 5.92967C29.3535 7.18707 30.3728 8.20639 31.6302 8.20639Z" fill="white"/>
<path d="M2.62109 40.4688V49H1.49023V40.4688H2.62109ZM7.77148 40.4688L4.22656 44.4473L2.23438 46.5156L2.04688 45.3086L3.54688 43.6562L6.41211 40.4688H7.77148ZM6.68164 49L3.52344 44.8398L4.19727 43.9434L8.0293 49H6.68164ZM11.3398 49.1172C10.8984 49.1172 10.498 49.043 10.1387 48.8945C9.7832 48.7422 9.47656 48.5293 9.21875 48.2559C8.96484 47.9824 8.76953 47.6582 8.63281 47.2832C8.49609 46.9082 8.42773 46.498 8.42773 46.0527V45.8066C8.42773 45.291 8.50391 44.832 8.65625 44.4297C8.80859 44.0234 9.01562 43.6797 9.27734 43.3984C9.53906 43.1172 9.83594 42.9043 10.168 42.7598C10.5 42.6152 10.8438 42.543 11.1992 42.543C11.6523 42.543 12.043 42.6211 12.3711 42.7773C12.7031 42.9336 12.9746 43.1523 13.1855 43.4336C13.3965 43.7109 13.5527 44.0391 13.6543 44.418C13.7559 44.793 13.8066 45.2031 13.8066 45.6484V46.1348H9.07227V45.25H12.7227V45.168C12.707 44.8867 12.6484 44.6133 12.5469 44.3477C12.4492 44.082 12.293 43.8633 12.0781 43.6914C11.8633 43.5195 11.5703 43.4336 11.1992 43.4336C10.9531 43.4336 10.7266 43.4863 10.5195 43.5918C10.3125 43.6934 10.1348 43.8457 9.98633 44.0488C9.83789 44.252 9.72266 44.5 9.64062 44.793C9.55859 45.0859 9.51758 45.4238 9.51758 45.8066V46.0527C9.51758 46.3535 9.55859 46.6367 9.64062 46.9023C9.72656 47.1641 9.84961 47.3945 10.0098 47.5938C10.1738 47.793 10.3711 47.9492 10.6016 48.0625C10.8359 48.1758 11.1016 48.2324 11.3984 48.2324C11.7812 48.2324 12.1055 48.1543 12.3711 47.998C12.6367 47.8418 12.8691 47.6328 13.0684 47.3711L13.7246 47.8926C13.5879 48.0996 13.4141 48.2969 13.2031 48.4844C12.9922 48.6719 12.7324 48.8242 12.4238 48.9414C12.1191 49.0586 11.7578 49.1172 11.3398 49.1172ZM16.7715 48.3438L18.5352 42.6602H19.6953L17.1523 49.9785C17.0938 50.1348 17.0156 50.3027 16.918 50.4824C16.8242 50.666 16.7031 50.8398 16.5547 51.0039C16.4062 51.168 16.2266 51.3008 16.0156 51.4023C15.8086 51.5078 15.5605 51.5605 15.2715 51.5605C15.1855 51.5605 15.0762 51.5488 14.9434 51.5254C14.8105 51.502 14.7168 51.4824 14.6621 51.4668L14.6562 50.5879C14.6875 50.5918 14.7363 50.5957 14.8027 50.5996C14.873 50.6074 14.9219 50.6113 14.9492 50.6113C15.1953 50.6113 15.4043 50.5781 15.5762 50.5117C15.748 50.4492 15.8926 50.3418 16.0098 50.1895C16.1309 50.041 16.2344 49.8359 16.3203 49.5742L16.7715 48.3438ZM15.4766 42.6602L17.123 47.582L17.4043 48.7246L16.625 49.123L14.293 42.6602H15.4766ZM22.2793 47.875L23.9082 42.6602H24.623L24.4824 43.6973L22.8242 49H22.127L22.2793 47.875ZM21.1836 42.6602L22.5723 47.9336L22.6719 49H21.9395L20.0996 42.6602H21.1836ZM26.1816 47.8926L27.5059 42.6602H28.584L26.7441 49H26.0176L26.1816 47.8926ZM24.7812 42.6602L26.375 47.7871L26.5566 49H25.8652L24.1602 43.6855L24.0195 42.6602H24.7812ZM29.4102 45.9004V45.7656C29.4102 45.3086 29.4766 44.8848 29.6094 44.4941C29.7422 44.0996 29.9336 43.7578 30.1836 43.4688C30.4336 43.1758 30.7363 42.9492 31.0918 42.7891C31.4473 42.625 31.8457 42.543 32.2871 42.543C32.7324 42.543 33.1328 42.625 33.4883 42.7891C33.8477 42.9492 34.1523 43.1758 34.4023 43.4688C34.6562 43.7578 34.8496 44.0996 34.9824 44.4941C35.1152 44.8848 35.1816 45.3086 35.1816 45.7656V45.9004C35.1816 46.3574 35.1152 46.7812 34.9824 47.1719C34.8496 47.5625 34.6562 47.9043 34.4023 48.1973C34.1523 48.4863 33.8496 48.7129 33.4941 48.877C33.1426 49.0371 32.7441 49.1172 32.2988 49.1172C31.8535 49.1172 31.4531 49.0371 31.0977 48.877C30.7422 48.7129 30.4375 48.4863 30.1836 48.1973C29.9336 47.9043 29.7422 47.5625 29.6094 47.1719C29.4766 46.7812 29.4102 46.3574 29.4102 45.9004ZM30.4941 45.7656V45.9004C30.4941 46.2168 30.5312 46.5156 30.6055 46.7969C30.6797 47.0742 30.791 47.3203 30.9395 47.5352C31.0918 47.75 31.2812 47.9199 31.5078 48.0449C31.7344 48.166 31.998 48.2266 32.2988 48.2266C32.5957 48.2266 32.8555 48.166 33.0781 48.0449C33.3047 47.9199 33.4922 47.75 33.6406 47.5352C33.7891 47.3203 33.9004 47.0742 33.9746 46.7969C34.0527 46.5156 34.0918 46.2168 34.0918 45.9004V45.7656C34.0918 45.4531 34.0527 45.1582 33.9746 44.8809C33.9004 44.5996 33.7871 44.3516 33.6348 44.1367C33.4863 43.918 33.2988 43.7461 33.0723 43.6211C32.8496 43.4961 32.5879 43.4336 32.2871 43.4336C31.9902 43.4336 31.7285 43.4961 31.502 43.6211C31.2793 43.7461 31.0918 43.918 30.9395 44.1367C30.791 44.3516 30.6797 44.5996 30.6055 44.8809C30.5312 45.1582 30.4941 45.4531 30.4941 45.7656ZM37.625 43.6562V49H36.541V42.6602H37.5957L37.625 43.6562ZM39.6055 42.625L39.5996 43.6328C39.5098 43.6133 39.4238 43.6016 39.3418 43.5977C39.2637 43.5898 39.1738 43.5859 39.0723 43.5859C38.8223 43.5859 38.6016 43.625 38.4102 43.7031C38.2188 43.7812 38.0566 43.8906 37.9238 44.0312C37.791 44.1719 37.6855 44.3398 37.6074 44.5352C37.5332 44.7266 37.4844 44.9375 37.4609 45.168L37.1562 45.3438C37.1562 44.9609 37.1934 44.6016 37.2676 44.2656C37.3457 43.9297 37.4648 43.6328 37.625 43.375C37.7852 43.1133 37.9883 42.9102 38.2344 42.7656C38.4844 42.6172 38.7812 42.543 39.125 42.543C39.2031 42.543 39.293 42.5527 39.3945 42.5723C39.4961 42.5879 39.5664 42.6055 39.6055 42.625ZM44.4863 47.7695V40H45.5762V49H44.5801L44.4863 47.7695ZM40.2207 45.9004V45.7773C40.2207 45.293 40.2793 44.8535 40.3965 44.459C40.5176 44.0605 40.6875 43.7188 40.9062 43.4336C41.1289 43.1484 41.3926 42.9297 41.6973 42.7773C42.0059 42.6211 42.3496 42.543 42.7285 42.543C43.127 42.543 43.4746 42.6133 43.7715 42.7539C44.0723 42.8906 44.3262 43.0918 44.5332 43.3574C44.7441 43.6191 44.9102 43.9355 45.0312 44.3066C45.1523 44.6777 45.2363 45.0977 45.2832 45.5664V46.1055C45.2402 46.5703 45.1562 46.9883 45.0312 47.3594C44.9102 47.7305 44.7441 48.0469 44.5332 48.3086C44.3262 48.5703 44.0723 48.7715 43.7715 48.9121C43.4707 49.0488 43.1191 49.1172 42.7168 49.1172C42.3457 49.1172 42.0059 49.0371 41.6973 48.877C41.3926 48.7168 41.1289 48.4922 40.9062 48.2031C40.6875 47.9141 40.5176 47.5742 40.3965 47.1836C40.2793 46.7891 40.2207 46.3613 40.2207 45.9004ZM41.3105 45.7773V45.9004C41.3105 46.2168 41.3418 46.5137 41.4043 46.791C41.4707 47.0684 41.5723 47.3125 41.709 47.5234C41.8457 47.7344 42.0195 47.9004 42.2305 48.0215C42.4414 48.1387 42.6934 48.1973 42.9863 48.1973C43.3457 48.1973 43.6406 48.1211 43.8711 47.9688C44.1055 47.8164 44.293 47.6152 44.4336 47.3652C44.5742 47.1152 44.6836 46.8438 44.7617 46.5508V45.1387C44.7148 44.9238 44.6465 44.7168 44.5566 44.5176C44.4707 44.3145 44.3574 44.1348 44.2168 43.9785C44.0801 43.8184 43.9102 43.6914 43.707 43.5977C43.5078 43.5039 43.2715 43.457 42.998 43.457C42.7012 43.457 42.4453 43.5195 42.2305 43.6445C42.0195 43.7656 41.8457 43.9336 41.709 44.1484C41.5723 44.3594 41.4707 44.6055 41.4043 44.8867C41.3418 45.1641 41.3105 45.4609 41.3105 45.7773ZM50.9551 47.3184C50.9551 47.1621 50.9199 47.0176 50.8496 46.8848C50.7832 46.748 50.6445 46.625 50.4336 46.5156C50.2266 46.4023 49.9141 46.3047 49.4961 46.2227C49.1445 46.1484 48.8262 46.0605 48.541 45.959C48.2598 45.8574 48.0195 45.7344 47.8203 45.5898C47.625 45.4453 47.4746 45.2754 47.3691 45.0801C47.2637 44.8848 47.2109 44.6562 47.2109 44.3945C47.2109 44.1445 47.2656 43.9082 47.375 43.6855C47.4883 43.4629 47.6465 43.2656 47.8496 43.0938C48.0566 42.9219 48.3047 42.7871 48.5938 42.6895C48.8828 42.5918 49.2051 42.543 49.5605 42.543C50.0684 42.543 50.502 42.6328 50.8613 42.8125C51.2207 42.9922 51.4961 43.2324 51.6875 43.5332C51.8789 43.8301 51.9746 44.1602 51.9746 44.5234H50.8906C50.8906 44.3477 50.8379 44.1777 50.7324 44.0137C50.6309 43.8457 50.4805 43.707 50.2812 43.5977C50.0859 43.4883 49.8457 43.4336 49.5605 43.4336C49.2598 43.4336 49.0156 43.4805 48.8281 43.5742C48.6445 43.6641 48.5098 43.7793 48.4238 43.9199C48.3418 44.0605 48.3008 44.209 48.3008 44.3652C48.3008 44.4824 48.3203 44.5879 48.3594 44.6816C48.4023 44.7715 48.4766 44.8555 48.582 44.9336C48.6875 45.0078 48.8359 45.0781 49.0273 45.1445C49.2188 45.2109 49.4629 45.2773 49.7598 45.3438C50.2793 45.4609 50.707 45.6016 51.043 45.7656C51.3789 45.9297 51.6289 46.1309 51.793 46.3691C51.957 46.6074 52.0391 46.8965 52.0391 47.2363C52.0391 47.5137 51.9805 47.7676 51.8633 47.998C51.75 48.2285 51.584 48.4277 51.3652 48.5957C51.1504 48.7598 50.8926 48.8887 50.5918 48.9824C50.2949 49.0723 49.9609 49.1172 49.5898 49.1172C49.0312 49.1172 48.5586 49.0176 48.1719 48.8184C47.7852 48.6191 47.4922 48.3613 47.293 48.0449C47.0938 47.7285 46.9941 47.3945 46.9941 47.043H48.084C48.0996 47.3398 48.1855 47.5762 48.3418 47.752C48.498 47.9238 48.6895 48.0469 48.916 48.1211C49.1426 48.1914 49.3672 48.2266 49.5898 48.2266C49.8867 48.2266 50.1348 48.1875 50.334 48.1094C50.5371 48.0312 50.6914 47.9238 50.7969 47.7871C50.9023 47.6504 50.9551 47.4941 50.9551 47.3184Z" fill="#FCFEFF"/>
</svg>
