<svg width="41" height="41" viewBox="0 0 41 41" fill="none" xmlns="http://www.w3.org/2000/svg">
<rect x="0.980469" y="20.7324" width="27.9603" height="27.9603" transform="rotate(-45 0.980469 20.7324)" fill="#00235B"/>
<rect x="13.4414" y="33.1914" width="2.06824" height="12.4095" rx="1.03412" transform="rotate(-135 13.4414 33.1914)" fill="#FFB400"/>
<rect x="13.4414" y="11.252" width="2.06824" height="12.4095" rx="1.03412" transform="rotate(-135 13.4414 11.252)" fill="#00A6ED"/>
<rect x="11.2539" y="28.0703" width="2.06824" height="12.4095" rx="1.03412" transform="rotate(135 11.2539 28.0703)" fill="#7FB800"/>
<rect x="33.1875" y="28.0703" width="2.06824" height="12.4095" rx="1.03412" transform="rotate(135 33.1875 28.0703)" fill="#FF595E"/>
<rect x="17.0898" y="36.8438" width="2.06824" height="12.4095" rx="1.03412" transform="rotate(-135 17.0898 36.8438)" fill="#FFB400"/>
<rect x="17.0898" y="14.9082" width="2.06824" height="12.4095" rx="1.03412" transform="rotate(-135 17.0898 14.9082)" fill="#00A6ED"/>
<rect x="14.9219" y="24.4277" width="2.06824" height="12.4095" rx="1.03412" transform="rotate(135 14.9219 24.4277)" fill="#7FB800"/>
<rect x="36.8594" y="24.4277" width="2.06824" height="12.4095" rx="1.03412" transform="rotate(135 36.8594 24.4277)" fill="#FF595E"/>
<rect x="20.75" y="40.5039" width="2.06824" height="12.4095" rx="1.03412" transform="rotate(-135 20.75 40.5039)" fill="#FFB400"/>
<rect x="20.75" y="18.5625" width="2.06824" height="12.4095" rx="1.03412" transform="rotate(-135 20.75 18.5625)" fill="#00A6ED"/>
<rect x="18.5859" y="20.7891" width="2.06824" height="12.4095" rx="1.03412" transform="rotate(135 18.5859 20.7891)" fill="#7FB800"/>
<rect x="40.5273" y="20.7891" width="2.06824" height="12.4095" rx="1.03412" transform="rotate(135 40.5273 20.7891)" fill="#FF595E"/>
</svg>
