<svg width="76" height="52" viewBox="0 0 76 52" fill="none" xmlns="http://www.w3.org/2000/svg">
<path d="M28.6573 3.25824H47.3423C47.6607 3.25824 47.9186 3.51619 47.9186 3.83453V26.1655C47.9186 26.4838 47.6607 26.7418 47.3423 26.7418H28.6573C28.339 26.7418 28.0811 26.4838 28.0811 26.1655V3.83453C28.0811 3.51619 28.339 3.25824 28.6573 3.25824ZM31.4523 10.481C30.6935 10.481 30.6935 9.3284 31.4523 9.3284H37.0695C37.8283 9.3284 37.8283 10.481 37.0695 10.481H31.4523ZM31.4523 22.0838C30.6935 22.0838 30.6935 20.931 31.4523 20.931H37.0695C37.8283 20.931 37.8283 22.0838 37.0695 22.0838H31.4523ZM39.1093 21.8539C38.6546 21.2516 39.5731 20.5582 40.0278 21.1606L40.5661 21.8732L44.1511 18.4509C44.6984 17.9293 45.4922 18.7613 44.9436 19.284L40.8424 23.1945C40.5887 23.3858 40.2279 23.3353 40.0366 23.0819L39.1093 21.8539ZM31.4523 18.2162C30.6935 18.2162 30.6935 17.0634 31.4523 17.0634H37.0695C37.8283 17.0634 37.8283 18.2162 37.0695 18.2162H31.4523ZM39.1093 17.9863C38.6546 17.384 39.5731 16.6906 40.0278 17.293L40.5661 18.0056L44.1511 14.5836C44.6984 14.062 45.4922 14.8937 44.9436 15.4164L40.8424 19.3268C40.5887 19.5182 40.2279 19.468 40.0366 19.2143L39.1093 17.9863ZM31.4523 14.3486C30.6935 14.3486 30.6935 13.196 31.4523 13.196H37.0695C37.8283 13.196 37.8283 14.3486 37.0695 14.3486H31.4523ZM39.1093 14.1187C38.6546 13.5163 39.5731 12.823 40.0278 13.4253L40.5661 14.1383L44.1511 10.716C44.6984 10.1944 45.4922 11.0261 44.9436 11.5491L40.8424 15.4592C40.5887 15.6506 40.2279 15.6004 40.0366 15.3467L39.1093 14.1187ZM39.1093 10.2514C38.6546 9.649 39.5731 8.95564 40.0278 9.55772L40.5661 10.2706L44.1511 6.84835C44.6984 6.32677 45.4922 7.15874 44.9436 7.68146L40.8424 11.5916C40.5887 11.7832 40.2279 11.7328 40.0366 11.4791L39.1093 10.2514ZM46.7661 4.41082H29.2336V25.5892H46.7661V4.41082Z" fill="white"/>
<path d="M4.33789 40.4688V49H3.22461V40.4688H4.33789ZM7.08008 40.4688V41.3945H0.488281V40.4688H7.08008ZM11.252 47.916V44.6523C11.252 44.4023 11.2012 44.1855 11.0996 44.002C11.002 43.8145 10.8535 43.6699 10.6543 43.5684C10.4551 43.4668 10.209 43.416 9.91602 43.416C9.64258 43.416 9.40234 43.4629 9.19531 43.5566C8.99219 43.6504 8.83203 43.7734 8.71484 43.9258C8.60156 44.0781 8.54492 44.2422 8.54492 44.418H7.46094C7.46094 44.1914 7.51953 43.9668 7.63672 43.7441C7.75391 43.5215 7.92188 43.3203 8.14062 43.1406C8.36328 42.957 8.62891 42.8125 8.9375 42.707C9.25 42.5977 9.59766 42.543 9.98047 42.543C10.4414 42.543 10.8477 42.6211 11.1992 42.7773C11.5547 42.9336 11.832 43.1699 12.0312 43.4863C12.2344 43.7988 12.3359 44.1914 12.3359 44.6641V47.6172C12.3359 47.8281 12.3535 48.0527 12.3887 48.291C12.4277 48.5293 12.4844 48.7344 12.5586 48.9062V49H11.4277C11.373 48.875 11.3301 48.709 11.2988 48.502C11.2676 48.291 11.252 48.0957 11.252 47.916ZM11.4395 45.1562L11.4512 45.918H10.3555C10.0469 45.918 9.77148 45.9434 9.5293 45.9941C9.28711 46.041 9.08398 46.1133 8.91992 46.2109C8.75586 46.3086 8.63086 46.4316 8.54492 46.5801C8.45898 46.7246 8.41602 46.8945 8.41602 47.0898C8.41602 47.2891 8.46094 47.4707 8.55078 47.6348C8.64062 47.7988 8.77539 47.9297 8.95508 48.0273C9.13867 48.1211 9.36328 48.168 9.62891 48.168C9.96094 48.168 10.2539 48.0977 10.5078 47.957C10.7617 47.8164 10.9629 47.6445 11.1113 47.4414C11.2637 47.2383 11.3457 47.041 11.3574 46.8496L11.8203 47.3711C11.793 47.5352 11.7188 47.7168 11.5977 47.916C11.4766 48.1152 11.3145 48.3066 11.1113 48.4902C10.9121 48.6699 10.6738 48.8203 10.3965 48.9414C10.123 49.0586 9.81445 49.1172 9.4707 49.1172C9.04102 49.1172 8.66406 49.0332 8.33984 48.8652C8.01953 48.6973 7.76953 48.4727 7.58984 48.1914C7.41406 47.9062 7.32617 47.5879 7.32617 47.2363C7.32617 46.8965 7.39258 46.5977 7.52539 46.3398C7.6582 46.0781 7.84961 45.8613 8.09961 45.6895C8.34961 45.5137 8.65039 45.3809 9.00195 45.291C9.35352 45.2012 9.74609 45.1562 10.1797 45.1562H11.4395ZM17.7324 47.3184C17.7324 47.1621 17.6973 47.0176 17.627 46.8848C17.5605 46.748 17.4219 46.625 17.2109 46.5156C17.0039 46.4023 16.6914 46.3047 16.2734 46.2227C15.9219 46.1484 15.6035 46.0605 15.3184 45.959C15.0371 45.8574 14.7969 45.7344 14.5977 45.5898C14.4023 45.4453 14.252 45.2754 14.1465 45.0801C14.041 44.8848 13.9883 44.6562 13.9883 44.3945C13.9883 44.1445 14.043 43.9082 14.1523 43.6855C14.2656 43.4629 14.4238 43.2656 14.627 43.0938C14.834 42.9219 15.082 42.7871 15.3711 42.6895C15.6602 42.5918 15.9824 42.543 16.3379 42.543C16.8457 42.543 17.2793 42.6328 17.6387 42.8125C17.998 42.9922 18.2734 43.2324 18.4648 43.5332C18.6562 43.8301 18.752 44.1602 18.752 44.5234H17.668C17.668 44.3477 17.6152 44.1777 17.5098 44.0137C17.4082 43.8457 17.2578 43.707 17.0586 43.5977C16.8633 43.4883 16.623 43.4336 16.3379 43.4336C16.0371 43.4336 15.793 43.4805 15.6055 43.5742C15.4219 43.6641 15.2871 43.7793 15.2012 43.9199C15.1191 44.0605 15.0781 44.209 15.0781 44.3652C15.0781 44.4824 15.0977 44.5879 15.1367 44.6816C15.1797 44.7715 15.2539 44.8555 15.3594 44.9336C15.4648 45.0078 15.6133 45.0781 15.8047 45.1445C15.9961 45.2109 16.2402 45.2773 16.5371 45.3438C17.0566 45.4609 17.4844 45.6016 17.8203 45.7656C18.1562 45.9297 18.4062 46.1309 18.5703 46.3691C18.7344 46.6074 18.8164 46.8965 18.8164 47.2363C18.8164 47.5137 18.7578 47.7676 18.6406 47.998C18.5273 48.2285 18.3613 48.4277 18.1426 48.5957C17.9277 48.7598 17.6699 48.8887 17.3691 48.9824C17.0723 49.0723 16.7383 49.1172 16.3672 49.1172C15.8086 49.1172 15.3359 49.0176 14.9492 48.8184C14.5625 48.6191 14.2695 48.3613 14.0703 48.0449C13.8711 47.7285 13.7715 47.3945 13.7715 47.043H14.8613C14.877 47.3398 14.9629 47.5762 15.1191 47.752C15.2754 47.9238 15.4668 48.0469 15.6934 48.1211C15.9199 48.1914 16.1445 48.2266 16.3672 48.2266C16.6641 48.2266 16.9121 48.1875 17.1113 48.1094C17.3145 48.0312 17.4688 47.9238 17.5742 47.7871C17.6797 47.6504 17.7324 47.4941 17.7324 47.3184ZM21.3301 40V49H20.2402V40H21.3301ZM25.2031 42.6602L22.4375 45.6191L20.8906 47.2246L20.8027 46.0703L21.9102 44.7461L23.8789 42.6602H25.2031ZM24.2129 49L21.9512 45.9766L22.5137 45.0098L25.4902 49H24.2129ZM29.8203 40.4688H30.916L33.7109 47.4238L36.5 40.4688H37.6016L34.1328 49H33.2773L29.8203 40.4688ZM29.4629 40.4688H30.4297L30.5879 45.6719V49H29.4629V40.4688ZM36.9863 40.4688H37.9531V49H36.8281V45.6719L36.9863 40.4688ZM43.5137 47.916V44.6523C43.5137 44.4023 43.4629 44.1855 43.3613 44.002C43.2637 43.8145 43.1152 43.6699 42.916 43.5684C42.7168 43.4668 42.4707 43.416 42.1777 43.416C41.9043 43.416 41.6641 43.4629 41.457 43.5566C41.2539 43.6504 41.0938 43.7734 40.9766 43.9258C40.8633 44.0781 40.8066 44.2422 40.8066 44.418H39.7227C39.7227 44.1914 39.7812 43.9668 39.8984 43.7441C40.0156 43.5215 40.1836 43.3203 40.4023 43.1406C40.625 42.957 40.8906 42.8125 41.1992 42.707C41.5117 42.5977 41.8594 42.543 42.2422 42.543C42.7031 42.543 43.1094 42.6211 43.4609 42.7773C43.8164 42.9336 44.0938 43.1699 44.293 43.4863C44.4961 43.7988 44.5977 44.1914 44.5977 44.6641V47.6172C44.5977 47.8281 44.6152 48.0527 44.6504 48.291C44.6895 48.5293 44.7461 48.7344 44.8203 48.9062V49H43.6895C43.6348 48.875 43.5918 48.709 43.5605 48.502C43.5293 48.291 43.5137 48.0957 43.5137 47.916ZM43.7012 45.1562L43.7129 45.918H42.6172C42.3086 45.918 42.0332 45.9434 41.791 45.9941C41.5488 46.041 41.3457 46.1133 41.1816 46.2109C41.0176 46.3086 40.8926 46.4316 40.8066 46.5801C40.7207 46.7246 40.6777 46.8945 40.6777 47.0898C40.6777 47.2891 40.7227 47.4707 40.8125 47.6348C40.9023 47.7988 41.0371 47.9297 41.2168 48.0273C41.4004 48.1211 41.625 48.168 41.8906 48.168C42.2227 48.168 42.5156 48.0977 42.7695 47.957C43.0234 47.8164 43.2246 47.6445 43.373 47.4414C43.5254 47.2383 43.6074 47.041 43.6191 46.8496L44.082 47.3711C44.0547 47.5352 43.9805 47.7168 43.8594 47.916C43.7383 48.1152 43.5762 48.3066 43.373 48.4902C43.1738 48.6699 42.9355 48.8203 42.6582 48.9414C42.3848 49.0586 42.0762 49.1172 41.7324 49.1172C41.3027 49.1172 40.9258 49.0332 40.6016 48.8652C40.2812 48.6973 40.0312 48.4727 39.8516 48.1914C39.6758 47.9062 39.5879 47.5879 39.5879 47.2363C39.5879 46.8965 39.6543 46.5977 39.7871 46.3398C39.9199 46.0781 40.1113 45.8613 40.3613 45.6895C40.6113 45.5137 40.9121 45.3809 41.2637 45.291C41.6152 45.2012 42.0078 45.1562 42.4414 45.1562H43.7012ZM47.3867 44.0137V49H46.3027V42.6602H47.3281L47.3867 44.0137ZM47.1289 45.5898L46.6777 45.5723C46.6816 45.1387 46.7461 44.7383 46.8711 44.3711C46.9961 44 47.1719 43.6777 47.3984 43.4043C47.625 43.1309 47.8945 42.9199 48.207 42.7715C48.5234 42.6191 48.873 42.543 49.2559 42.543C49.5684 42.543 49.8496 42.5859 50.0996 42.6719C50.3496 42.7539 50.5625 42.8867 50.7383 43.0703C50.918 43.2539 51.0547 43.4922 51.1484 43.7852C51.2422 44.0742 51.2891 44.4277 51.2891 44.8457V49H50.1992V44.834C50.1992 44.502 50.1504 44.2363 50.0527 44.0371C49.9551 43.834 49.8125 43.6875 49.625 43.5977C49.4375 43.5039 49.207 43.457 48.9336 43.457C48.6641 43.457 48.418 43.5137 48.1953 43.627C47.9766 43.7402 47.7871 43.8965 47.627 44.0957C47.4707 44.2949 47.3477 44.5234 47.2578 44.7812C47.1719 45.0352 47.1289 45.3047 47.1289 45.5898ZM56.6738 47.916V44.6523C56.6738 44.4023 56.623 44.1855 56.5215 44.002C56.4238 43.8145 56.2754 43.6699 56.0762 43.5684C55.877 43.4668 55.6309 43.416 55.3379 43.416C55.0645 43.416 54.8242 43.4629 54.6172 43.5566C54.4141 43.6504 54.2539 43.7734 54.1367 43.9258C54.0234 44.0781 53.9668 44.2422 53.9668 44.418H52.8828C52.8828 44.1914 52.9414 43.9668 53.0586 43.7441C53.1758 43.5215 53.3438 43.3203 53.5625 43.1406C53.7852 42.957 54.0508 42.8125 54.3594 42.707C54.6719 42.5977 55.0195 42.543 55.4023 42.543C55.8633 42.543 56.2695 42.6211 56.6211 42.7773C56.9766 42.9336 57.2539 43.1699 57.4531 43.4863C57.6562 43.7988 57.7578 44.1914 57.7578 44.6641V47.6172C57.7578 47.8281 57.7754 48.0527 57.8105 48.291C57.8496 48.5293 57.9062 48.7344 57.9805 48.9062V49H56.8496C56.7949 48.875 56.752 48.709 56.7207 48.502C56.6895 48.291 56.6738 48.0957 56.6738 47.916ZM56.8613 45.1562L56.873 45.918H55.7773C55.4688 45.918 55.1934 45.9434 54.9512 45.9941C54.709 46.041 54.5059 46.1133 54.3418 46.2109C54.1777 46.3086 54.0527 46.4316 53.9668 46.5801C53.8809 46.7246 53.8379 46.8945 53.8379 47.0898C53.8379 47.2891 53.8828 47.4707 53.9727 47.6348C54.0625 47.7988 54.1973 47.9297 54.377 48.0273C54.5605 48.1211 54.7852 48.168 55.0508 48.168C55.3828 48.168 55.6758 48.0977 55.9297 47.957C56.1836 47.8164 56.3848 47.6445 56.5332 47.4414C56.6855 47.2383 56.7676 47.041 56.7793 46.8496L57.2422 47.3711C57.2148 47.5352 57.1406 47.7168 57.0195 47.916C56.8984 48.1152 56.7363 48.3066 56.5332 48.4902C56.334 48.6699 56.0957 48.8203 55.8184 48.9414C55.5449 49.0586 55.2363 49.1172 54.8926 49.1172C54.4629 49.1172 54.0859 49.0332 53.7617 48.8652C53.4414 48.6973 53.1914 48.4727 53.0117 48.1914C52.8359 47.9062 52.748 47.5879 52.748 47.2363C52.748 46.8965 52.8145 46.5977 52.9473 46.3398C53.0801 46.0781 53.2715 45.8613 53.5215 45.6895C53.7715 45.5137 54.0723 45.3809 54.4238 45.291C54.7754 45.2012 55.168 45.1562 55.6016 45.1562H56.8613ZM63.5703 42.6602H64.5547V48.8652C64.5547 49.4238 64.4414 49.9004 64.2148 50.2949C63.9883 50.6895 63.6719 50.9883 63.2656 51.1914C62.8633 51.3984 62.3984 51.502 61.8711 51.502C61.6523 51.502 61.3945 51.4668 61.0977 51.3965C60.8047 51.3301 60.5156 51.2148 60.2305 51.0508C59.9492 50.8906 59.7129 50.6738 59.5215 50.4004L60.0898 49.7559C60.3555 50.0762 60.6328 50.2988 60.9219 50.4238C61.2148 50.5488 61.5039 50.6113 61.7891 50.6113C62.1328 50.6113 62.4297 50.5469 62.6797 50.418C62.9297 50.2891 63.123 50.0977 63.2598 49.8438C63.4004 49.5938 63.4707 49.2852 63.4707 48.918V44.0547L63.5703 42.6602ZM59.2051 45.9004V45.7773C59.2051 45.293 59.2617 44.8535 59.375 44.459C59.4922 44.0605 59.6582 43.7188 59.873 43.4336C60.0918 43.1484 60.3555 42.9297 60.6641 42.7773C60.9727 42.6211 61.3203 42.543 61.707 42.543C62.1055 42.543 62.4531 42.6133 62.75 42.7539C63.0508 42.8906 63.3047 43.0918 63.5117 43.3574C63.7227 43.6191 63.8887 43.9355 64.0098 44.3066C64.1309 44.6777 64.2148 45.0977 64.2617 45.5664V46.1055C64.2188 46.5703 64.1348 46.9883 64.0098 47.3594C63.8887 47.7305 63.7227 48.0469 63.5117 48.3086C63.3047 48.5703 63.0508 48.7715 62.75 48.9121C62.4492 49.0488 62.0977 49.1172 61.6953 49.1172C61.3164 49.1172 60.9727 49.0371 60.6641 48.877C60.3594 48.7168 60.0977 48.4922 59.8789 48.2031C59.6602 47.9141 59.4922 47.5742 59.375 47.1836C59.2617 46.7891 59.2051 46.3613 59.2051 45.9004ZM60.2891 45.7773V45.9004C60.2891 46.2168 60.3203 46.5137 60.3828 46.791C60.4492 47.0684 60.5488 47.3125 60.6816 47.5234C60.8184 47.7344 60.9922 47.9004 61.2031 48.0215C61.4141 48.1387 61.666 48.1973 61.959 48.1973C62.3184 48.1973 62.6152 48.1211 62.8496 47.9688C63.084 47.8164 63.2695 47.6152 63.4062 47.3652C63.5469 47.1152 63.6562 46.8438 63.7344 46.5508V45.1387C63.6914 44.9238 63.625 44.7168 63.5352 44.5176C63.4492 44.3145 63.3359 44.1348 63.1953 43.9785C63.0586 43.8184 62.8887 43.6914 62.6855 43.5977C62.4824 43.5039 62.2441 43.457 61.9707 43.457C61.6738 43.457 61.418 43.5195 61.2031 43.6445C60.9922 43.7656 60.8184 43.9336 60.6816 44.1484C60.5488 44.3594 60.4492 44.6055 60.3828 44.8867C60.3203 45.1641 60.2891 45.4609 60.2891 45.7773ZM68.832 49.1172C68.3906 49.1172 67.9902 49.043 67.6309 48.8945C67.2754 48.7422 66.9688 48.5293 66.7109 48.2559C66.457 47.9824 66.2617 47.6582 66.125 47.2832C65.9883 46.9082 65.9199 46.498 65.9199 46.0527V45.8066C65.9199 45.291 65.9961 44.832 66.1484 44.4297C66.3008 44.0234 66.5078 43.6797 66.7695 43.3984C67.0312 43.1172 67.3281 42.9043 67.6602 42.7598C67.9922 42.6152 68.3359 42.543 68.6914 42.543C69.1445 42.543 69.5352 42.6211 69.8633 42.7773C70.1953 42.9336 70.4668 43.1523 70.6777 43.4336C70.8887 43.7109 71.0449 44.0391 71.1465 44.418C71.248 44.793 71.2988 45.2031 71.2988 45.6484V46.1348H66.5645V45.25H70.2148V45.168C70.1992 44.8867 70.1406 44.6133 70.0391 44.3477C69.9414 44.082 69.7852 43.8633 69.5703 43.6914C69.3555 43.5195 69.0625 43.4336 68.6914 43.4336C68.4453 43.4336 68.2188 43.4863 68.0117 43.5918C67.8047 43.6934 67.627 43.8457 67.4785 44.0488C67.3301 44.252 67.2148 44.5 67.1328 44.793C67.0508 45.0859 67.0098 45.4238 67.0098 45.8066V46.0527C67.0098 46.3535 67.0508 46.6367 67.1328 46.9023C67.2188 47.1641 67.3418 47.3945 67.502 47.5938C67.666 47.793 67.8633 47.9492 68.0938 48.0625C68.3281 48.1758 68.5938 48.2324 68.8906 48.2324C69.2734 48.2324 69.5977 48.1543 69.8633 47.998C70.1289 47.8418 70.3613 47.6328 70.5605 47.3711L71.2168 47.8926C71.0801 48.0996 70.9062 48.2969 70.6953 48.4844C70.4844 48.6719 70.2246 48.8242 69.916 48.9414C69.6113 49.0586 69.25 49.1172 68.832 49.1172ZM73.6484 43.6562V49H72.5645V42.6602H73.6191L73.6484 43.6562ZM75.6289 42.625L75.623 43.6328C75.5332 43.6133 75.4473 43.6016 75.3652 43.5977C75.2871 43.5898 75.1973 43.5859 75.0957 43.5859C74.8457 43.5859 74.625 43.625 74.4336 43.7031C74.2422 43.7812 74.0801 43.8906 73.9473 44.0312C73.8145 44.1719 73.709 44.3398 73.6309 44.5352C73.5566 44.7266 73.5078 44.9375 73.4844 45.168L73.1797 45.3438C73.1797 44.9609 73.2168 44.6016 73.291 44.2656C73.3691 43.9297 73.4883 43.6328 73.6484 43.375C73.8086 43.1133 74.0117 42.9102 74.2578 42.7656C74.5078 42.6172 74.8047 42.543 75.1484 42.543C75.2266 42.543 75.3164 42.5527 75.418 42.5723C75.5195 42.5879 75.5898 42.6055 75.6289 42.625Z" fill="#FCFEFF"/>
</svg>
