<svg width="58" height="53" viewBox="0 0 58 53" fill="none" xmlns="http://www.w3.org/2000/svg">
<path d="M37.75 5.56995C38.413 5.56995 39.0489 5.83334 39.5178 6.30218C39.9866 6.77102 40.25 7.40691 40.25 8.06995V23.0699C40.25 23.733 39.9866 24.3689 39.5178 24.8377C39.0489 25.3066 38.413 25.5699 37.75 25.5699H20.25C19.587 25.5699 18.9511 25.3066 18.4822 24.8377C18.0134 24.3689 17.75 23.733 17.75 23.0699V8.06995C17.75 7.40691 18.0134 6.77102 18.4822 6.30218C18.9511 5.83334 19.587 5.56995 20.25 5.56995H37.75ZM37.75 13.0699H20.25V21.8199C20.25 22.1261 20.3624 22.4216 20.5659 22.6504C20.7693 22.8792 21.0497 23.0254 21.3537 23.0612L21.5 23.0699H36.5C36.8062 23.0699 37.1017 22.9575 37.3305 22.7541C37.5593 22.5506 37.7054 22.2703 37.7412 21.9662L37.75 21.8199V13.0699ZM21.5 8.06995C21.1685 8.06995 20.8505 8.20164 20.6161 8.43606C20.3817 8.67048 20.25 8.98843 20.25 9.31995C20.25 9.65147 20.3817 9.96941 20.6161 10.2038C20.8505 10.4383 21.1685 10.5699 21.5 10.5699C21.8315 10.5699 22.1495 10.4383 22.3839 10.2038C22.6183 9.96941 22.75 9.65147 22.75 9.31995C22.75 8.98843 22.6183 8.67048 22.3839 8.43606C22.1495 8.20164 21.8315 8.06995 21.5 8.06995ZM25.25 8.06995C24.9185 8.06995 24.6005 8.20164 24.3661 8.43606C24.1317 8.67048 24 8.98843 24 9.31995C24 9.65147 24.1317 9.96941 24.3661 10.2038C24.6005 10.4383 24.9185 10.5699 25.25 10.5699C25.5815 10.5699 25.8995 10.4383 26.1339 10.2038C26.3683 9.96941 26.5 9.65147 26.5 9.31995C26.5 8.98843 26.3683 8.67048 26.1339 8.43606C25.8995 8.20164 25.5815 8.06995 25.25 8.06995ZM29 8.06995C28.6685 8.06995 28.3505 8.20164 28.1161 8.43606C27.8817 8.67048 27.75 8.98843 27.75 9.31995C27.75 9.65147 27.8817 9.96941 28.1161 10.2038C28.3505 10.4383 28.6685 10.5699 29 10.5699C29.3315 10.5699 29.6495 10.4383 29.8839 10.2038C30.1183 9.96941 30.25 9.65147 30.25 9.31995C30.25 8.98843 30.1183 8.67048 29.8839 8.43606C29.6495 8.20164 29.3315 8.06995 29 8.06995Z" fill="#00235B"/>
<path d="M3.00586 47.6539L4.70508 41.0387H5.5957L5.49609 42.7438L3.67969 49.5699H2.75391L3.00586 47.6539ZM1.73438 41.0387L3.11133 47.6012L3.23438 49.5699H2.25L0.275391 41.0387H1.73438ZM7.52344 47.5836L8.88281 41.0387H10.3477L8.37305 49.5699H7.38867L7.52344 47.5836ZM5.94141 41.0387L7.62305 47.6715L7.86914 49.5699H6.94336L5.15625 42.7438L5.0625 41.0387H5.94141ZM13.9043 49.6871C13.4355 49.6871 13.0117 49.611 12.6328 49.4586C12.2578 49.3024 11.9375 49.0856 11.6719 48.8082C11.4102 48.5309 11.209 48.2047 11.0684 47.8297C10.9277 47.4547 10.8574 47.0504 10.8574 46.6168V46.3824C10.8574 45.8864 10.9297 45.4371 11.0742 45.0348C11.2188 44.6324 11.4199 44.2887 11.6777 44.0035C11.9355 43.7145 12.2402 43.4938 12.5918 43.3414C12.9434 43.1891 13.3242 43.1129 13.7344 43.1129C14.1875 43.1129 14.584 43.1891 14.9238 43.3414C15.2637 43.4938 15.5449 43.7086 15.7676 43.986C15.9941 44.2594 16.1621 44.5856 16.2715 44.9645C16.3848 45.3434 16.4414 45.7614 16.4414 46.2184V46.8219H11.543V45.8082H15.0469V45.6969C15.0391 45.443 14.9883 45.2047 14.8945 44.9821C14.8047 44.7594 14.666 44.5797 14.4785 44.443C14.291 44.3063 14.041 44.2379 13.7285 44.2379C13.4941 44.2379 13.2852 44.2887 13.1016 44.3903C12.9219 44.4879 12.7715 44.6305 12.6504 44.818C12.5293 45.0055 12.4355 45.2321 12.3691 45.4977C12.3066 45.7594 12.2754 46.0543 12.2754 46.3824V46.6168C12.2754 46.8942 12.3125 47.152 12.3867 47.3903C12.4648 47.6246 12.5781 47.8297 12.7266 48.0055C12.875 48.1813 13.0547 48.3199 13.2656 48.4215C13.4766 48.5192 13.7168 48.568 13.9863 48.568C14.3262 48.568 14.6289 48.4996 14.8945 48.3629C15.1602 48.2262 15.3906 48.0328 15.5859 47.7828L16.3301 48.5035C16.1934 48.7028 16.0156 48.8942 15.7969 49.0778C15.5781 49.2574 15.3105 49.4039 14.9941 49.5172C14.6816 49.6305 14.3184 49.6871 13.9043 49.6871ZM17.5488 40.5699H18.9609V48.2164L18.8262 49.5699H17.5488V40.5699ZM23.0977 46.3414V46.4645C23.0977 46.9332 23.0449 47.3649 22.9395 47.7594C22.8379 48.15 22.6816 48.4899 22.4707 48.7789C22.2637 49.068 22.0059 49.2926 21.6973 49.4528C21.3926 49.609 21.0391 49.6871 20.6367 49.6871C20.2422 49.6871 19.8984 49.6129 19.6055 49.4645C19.3125 49.316 19.0664 49.1051 18.8672 48.8317C18.6719 48.5582 18.5137 48.2321 18.3926 47.8531C18.2715 47.4742 18.1855 47.0563 18.1348 46.5992V46.2067C18.1855 45.7457 18.2715 45.3278 18.3926 44.9528C18.5137 44.5739 18.6719 44.2477 18.8672 43.9742C19.0664 43.6969 19.3105 43.484 19.5996 43.3356C19.8926 43.1871 20.2344 43.1129 20.625 43.1129C21.0312 43.1129 21.3887 43.191 21.6973 43.3473C22.0098 43.5035 22.2695 43.7262 22.4766 44.0153C22.6836 44.3004 22.8379 44.6403 22.9395 45.0348C23.0449 45.4293 23.0977 45.8649 23.0977 46.3414ZM21.6855 46.4645V46.3414C21.6855 46.0563 21.6621 45.7887 21.6152 45.5387C21.5684 45.2848 21.4902 45.0621 21.3809 44.8707C21.2754 44.6793 21.1309 44.5289 20.9473 44.4196C20.7676 44.3063 20.543 44.2496 20.2734 44.2496C20.0234 44.2496 19.8086 44.2926 19.6289 44.3785C19.4492 44.4645 19.2988 44.5817 19.1777 44.7301C19.0566 44.8785 18.9609 45.0504 18.8906 45.2457C18.8242 45.441 18.7793 45.652 18.7559 45.8785V46.9391C18.791 47.2321 18.8652 47.5016 18.9785 47.7477C19.0957 47.9899 19.2598 48.1852 19.4707 48.3336C19.6816 48.4781 19.9531 48.5504 20.2852 48.5504C20.5469 48.5504 20.7676 48.4977 20.9473 48.3922C21.127 48.2867 21.2695 48.1403 21.375 47.9528C21.4844 47.7614 21.5625 47.5387 21.6094 47.2848C21.6602 47.0309 21.6855 46.7574 21.6855 46.4645ZM27.8496 47.8531C27.8496 47.7125 27.8145 47.5856 27.7441 47.4723C27.6738 47.3551 27.5391 47.2496 27.3398 47.1559C27.1445 47.0621 26.8555 46.9762 26.4727 46.8981C26.1367 46.8239 25.8281 46.736 25.5469 46.6344C25.2695 46.5289 25.0312 46.402 24.832 46.2535C24.6328 46.1051 24.4785 45.9293 24.3691 45.7262C24.2598 45.5231 24.2051 45.2887 24.2051 45.0231C24.2051 44.7653 24.2617 44.5211 24.375 44.2906C24.4883 44.0602 24.6504 43.8571 24.8613 43.6813C25.0723 43.5055 25.3281 43.3668 25.6289 43.2653C25.9336 43.1637 26.2734 43.1129 26.6484 43.1129C27.1797 43.1129 27.6348 43.2028 28.0137 43.3824C28.3965 43.5582 28.6895 43.7985 28.8926 44.1031C29.0957 44.4039 29.1973 44.7438 29.1973 45.1227H27.7852C27.7852 44.9547 27.7422 44.7985 27.6562 44.6539C27.5742 44.5055 27.4492 44.3864 27.2812 44.2965C27.1133 44.2028 26.9023 44.1559 26.6484 44.1559C26.4062 44.1559 26.2051 44.1949 26.0449 44.2731C25.8887 44.3473 25.7715 44.4449 25.6934 44.566C25.6191 44.6871 25.582 44.8199 25.582 44.9645C25.582 45.0699 25.6016 45.1656 25.6406 45.2516C25.6836 45.3336 25.7539 45.4098 25.8516 45.4801C25.9492 45.5465 26.082 45.609 26.25 45.6676C26.4219 45.7262 26.6367 45.7828 26.8945 45.8375C27.3789 45.9391 27.7949 46.0699 28.1426 46.2301C28.4941 46.3864 28.7637 46.5895 28.9512 46.8395C29.1387 47.0856 29.2324 47.3981 29.2324 47.777C29.2324 48.0582 29.1719 48.316 29.0508 48.5504C28.9336 48.7809 28.7617 48.9821 28.5352 49.1539C28.3086 49.3219 28.0371 49.4528 27.7207 49.5465C27.4082 49.6403 27.0566 49.6871 26.666 49.6871C26.0918 49.6871 25.6055 49.5856 25.207 49.3824C24.8086 49.1754 24.5059 48.9117 24.2988 48.5914C24.0957 48.2672 23.9941 47.9313 23.9941 47.5836H25.3594C25.375 47.8453 25.4473 48.0543 25.5762 48.2106C25.709 48.3629 25.873 48.4742 26.0684 48.5446C26.2676 48.611 26.4727 48.6442 26.6836 48.6442C26.9375 48.6442 27.1504 48.611 27.3223 48.5446C27.4941 48.4742 27.625 48.3805 27.7148 48.2633C27.8047 48.1422 27.8496 48.0055 27.8496 47.8531ZM31.9805 43.2301V49.5699H30.5625V43.2301H31.9805ZM30.4688 41.566C30.4688 41.3512 30.5391 41.1735 30.6797 41.0328C30.8242 40.8883 31.0234 40.816 31.2773 40.816C31.5273 40.816 31.7246 40.8883 31.8691 41.0328C32.0137 41.1735 32.0859 41.3512 32.0859 41.566C32.0859 41.777 32.0137 41.9528 31.8691 42.0934C31.7246 42.234 31.5273 42.3043 31.2773 42.3043C31.0234 42.3043 30.8242 42.234 30.6797 42.0934C30.5391 41.9528 30.4688 41.777 30.4688 41.566ZM36.4336 43.2301V44.2614H32.8594V43.2301H36.4336ZM33.8906 41.6774H35.3027V47.818C35.3027 48.0133 35.3301 48.1637 35.3848 48.2692C35.4434 48.3707 35.5234 48.4391 35.625 48.4742C35.7266 48.5094 35.8457 48.527 35.9824 48.527C36.0801 48.527 36.1738 48.5211 36.2637 48.5094C36.3535 48.4977 36.4258 48.486 36.4805 48.4742L36.4863 49.5524C36.3691 49.5875 36.2324 49.6188 36.0762 49.6461C35.9238 49.6735 35.748 49.6871 35.5488 49.6871C35.2246 49.6871 34.9375 49.6305 34.6875 49.5172C34.4375 49.4 34.2422 49.2106 34.1016 48.9489C33.9609 48.6871 33.8906 48.3395 33.8906 47.9059V41.6774ZM40.3184 49.6871C39.8496 49.6871 39.4258 49.611 39.0469 49.4586C38.6719 49.3024 38.3516 49.0856 38.0859 48.8082C37.8242 48.5309 37.623 48.2047 37.4824 47.8297C37.3418 47.4547 37.2715 47.0504 37.2715 46.6168V46.3824C37.2715 45.8864 37.3438 45.4371 37.4883 45.0348C37.6328 44.6324 37.834 44.2887 38.0918 44.0035C38.3496 43.7145 38.6543 43.4938 39.0059 43.3414C39.3574 43.1891 39.7383 43.1129 40.1484 43.1129C40.6016 43.1129 40.998 43.1891 41.3379 43.3414C41.6777 43.4938 41.959 43.7086 42.1816 43.986C42.4082 44.2594 42.5762 44.5856 42.6855 44.9645C42.7988 45.3434 42.8555 45.7614 42.8555 46.2184V46.8219H37.957V45.8082H41.4609V45.6969C41.4531 45.443 41.4023 45.2047 41.3086 44.9821C41.2188 44.7594 41.0801 44.5797 40.8926 44.443C40.7051 44.3063 40.4551 44.2379 40.1426 44.2379C39.9082 44.2379 39.6992 44.2887 39.5156 44.3903C39.3359 44.4879 39.1855 44.6305 39.0645 44.818C38.9434 45.0055 38.8496 45.2321 38.7832 45.4977C38.7207 45.7594 38.6895 46.0543 38.6895 46.3824V46.6168C38.6895 46.8942 38.7266 47.152 38.8008 47.3903C38.8789 47.6246 38.9922 47.8297 39.1406 48.0055C39.2891 48.1813 39.4688 48.3199 39.6797 48.4215C39.8906 48.5192 40.1309 48.568 40.4004 48.568C40.7402 48.568 41.043 48.4996 41.3086 48.3629C41.5742 48.2262 41.8047 48.0328 42 47.7828L42.7441 48.5035C42.6074 48.7028 42.4297 48.8942 42.2109 49.0778C41.9922 49.2574 41.7246 49.4039 41.4082 49.5172C41.0957 49.6305 40.7324 49.6871 40.3184 49.6871ZM48.6562 41.0387V49.5699H47.1855V41.0387H48.6562ZM55.002 48.4332L57.2461 50.2145L56.291 51.0524L54.0879 49.2887L55.002 48.4332ZM57.2637 45.0699V45.5387C57.2637 46.1832 57.1797 46.7614 57.0117 47.2731C56.8438 47.7848 56.6035 48.2203 56.291 48.5797C55.9785 48.9391 55.6055 49.2145 55.1719 49.4059C54.7383 49.5934 54.2578 49.6871 53.7305 49.6871C53.207 49.6871 52.7285 49.5934 52.2949 49.4059C51.8652 49.2145 51.4922 48.9391 51.1758 48.5797C50.8594 48.2203 50.6133 47.7848 50.4375 47.2731C50.2656 46.7614 50.1797 46.1832 50.1797 45.5387V45.0699C50.1797 44.4254 50.2656 43.8492 50.4375 43.3414C50.6094 42.8297 50.8516 42.3942 51.1641 42.0348C51.4805 41.6715 51.8535 41.3961 52.2832 41.2086C52.7168 41.0172 53.1953 40.9215 53.7188 40.9215C54.2461 40.9215 54.7266 41.0172 55.1602 41.2086C55.5977 41.3961 55.9727 41.6715 56.2852 42.0348C56.5977 42.3942 56.8379 42.8297 57.0059 43.3414C57.1777 43.8492 57.2637 44.4254 57.2637 45.0699ZM55.7871 45.5387V45.0582C55.7871 44.5817 55.7402 44.1617 55.6465 43.7985C55.5566 43.4313 55.4219 43.1246 55.2422 42.8785C55.0664 42.6285 54.8496 42.441 54.5918 42.316C54.3379 42.1871 54.0469 42.1227 53.7188 42.1227C53.3984 42.1227 53.1113 42.1871 52.8574 42.316C52.6035 42.441 52.3867 42.6285 52.207 42.8785C52.0273 43.1246 51.8906 43.4313 51.7969 43.7985C51.7031 44.1617 51.6562 44.5817 51.6562 45.0582V45.5387C51.6562 46.0153 51.7031 46.4371 51.7969 46.8043C51.8906 47.1715 52.0273 47.4821 52.207 47.736C52.3906 47.986 52.6094 48.1754 52.8633 48.3043C53.1211 48.4293 53.4102 48.4918 53.7305 48.4918C54.0586 48.4918 54.3496 48.4293 54.6035 48.3043C54.8574 48.1754 55.0723 47.986 55.248 47.736C55.4238 47.4821 55.5566 47.1715 55.6465 46.8043C55.7402 46.4371 55.7871 46.0153 55.7871 45.5387Z" fill="#00235B"/>
</svg>
