<svg width="58" height="52" viewBox="0 0 58 52" fill="none" xmlns="http://www.w3.org/2000/svg">
<path d="M37.75 5C38.413 5 39.0489 5.26339 39.5178 5.73223C39.9866 6.20107 40.25 6.83696 40.25 7.5V22.5C40.25 23.163 39.9866 23.7989 39.5178 24.2678C39.0489 24.7366 38.413 25 37.75 25H20.25C19.587 25 18.9511 24.7366 18.4822 24.2678C18.0134 23.7989 17.75 23.163 17.75 22.5V7.5C17.75 6.83696 18.0134 6.20107 18.4822 5.73223C18.9511 5.26339 19.587 5 20.25 5H37.75ZM37.75 12.5H20.25V21.25C20.25 21.5562 20.3624 21.8517 20.5659 22.0805C20.7693 22.3093 21.0497 22.4554 21.3537 22.4912L21.5 22.5H36.5C36.8062 22.5 37.1017 22.3876 37.3305 22.1841C37.5593 21.9807 37.7054 21.7003 37.7412 21.3963L37.75 21.25V12.5ZM21.5 7.5C21.1685 7.5 20.8505 7.6317 20.6161 7.86612C20.3817 8.10054 20.25 8.41848 20.25 8.75C20.25 9.08152 20.3817 9.39946 20.6161 9.63388C20.8505 9.8683 21.1685 10 21.5 10C21.8315 10 22.1495 9.8683 22.3839 9.63388C22.6183 9.39946 22.75 9.08152 22.75 8.75C22.75 8.41848 22.6183 8.10054 22.3839 7.86612C22.1495 7.6317 21.8315 7.5 21.5 7.5ZM25.25 7.5C24.9185 7.5 24.6005 7.6317 24.3661 7.86612C24.1317 8.10054 24 8.41848 24 8.75C24 9.08152 24.1317 9.39946 24.3661 9.63388C24.6005 9.8683 24.9185 10 25.25 10C25.5815 10 25.8995 9.8683 26.1339 9.63388C26.3683 9.39946 26.5 9.08152 26.5 8.75C26.5 8.41848 26.3683 8.10054 26.1339 7.86612C25.8995 7.6317 25.5815 7.5 25.25 7.5ZM29 7.5C28.6685 7.5 28.3505 7.6317 28.1161 7.86612C27.8817 8.10054 27.75 8.41848 27.75 8.75C27.75 9.08152 27.8817 9.39946 28.1161 9.63388C28.3505 9.8683 28.6685 10 29 10C29.3315 10 29.6495 9.8683 29.8839 9.63388C30.1183 9.39946 30.25 9.08152 30.25 8.75C30.25 8.41848 30.1183 8.10054 29.8839 7.86612C29.6495 7.6317 29.3315 7.5 29 7.5Z" fill="#F8F8F8"/>
<path d="M3.23438 46.4219L4.92773 40.4688H5.74805L5.27344 42.7832L3.45117 49H2.63672L3.23438 46.4219ZM1.48242 40.4688L2.83008 46.3047L3.23438 49H2.42578L0.357422 40.4688H1.48242ZM7.93945 46.2988L9.25781 40.4688H10.3887L8.32617 49H7.51758L7.93945 46.2988ZM5.87109 40.4688L7.51758 46.4219L8.11523 49H7.30078L5.54297 42.7832L5.0625 40.4688H5.87109ZM13.9219 49.1172C13.4805 49.1172 13.0801 49.043 12.7207 48.8945C12.3652 48.7422 12.0586 48.5293 11.8008 48.2559C11.5469 47.9824 11.3516 47.6582 11.2148 47.2832C11.0781 46.9082 11.0098 46.498 11.0098 46.0527V45.8066C11.0098 45.291 11.0859 44.832 11.2383 44.4297C11.3906 44.0234 11.5977 43.6797 11.8594 43.3984C12.1211 43.1172 12.418 42.9043 12.75 42.7598C13.082 42.6152 13.4258 42.543 13.7812 42.543C14.2344 42.543 14.625 42.6211 14.9531 42.7773C15.2852 42.9336 15.5566 43.1523 15.7676 43.4336C15.9785 43.7109 16.1348 44.0391 16.2363 44.418C16.3379 44.793 16.3887 45.2031 16.3887 45.6484V46.1348H11.6543V45.25H15.3047V45.168C15.2891 44.8867 15.2305 44.6133 15.1289 44.3477C15.0312 44.082 14.875 43.8633 14.6602 43.6914C14.4453 43.5195 14.1523 43.4336 13.7812 43.4336C13.5352 43.4336 13.3086 43.4863 13.1016 43.5918C12.8945 43.6934 12.7168 43.8457 12.5684 44.0488C12.4199 44.252 12.3047 44.5 12.2227 44.793C12.1406 45.0859 12.0996 45.4238 12.0996 45.8066V46.0527C12.0996 46.3535 12.1406 46.6367 12.2227 46.9023C12.3086 47.1641 12.4316 47.3945 12.5918 47.5938C12.7559 47.793 12.9531 47.9492 13.1836 48.0625C13.418 48.1758 13.6836 48.2324 13.9805 48.2324C14.3633 48.2324 14.6875 48.1543 14.9531 47.998C15.2188 47.8418 15.4512 47.6328 15.6504 47.3711L16.3066 47.8926C16.1699 48.0996 15.9961 48.2969 15.7852 48.4844C15.5742 48.6719 15.3145 48.8242 15.0059 48.9414C14.7012 49.0586 14.3398 49.1172 13.9219 49.1172ZM17.6484 40H18.7383V47.7695L18.6445 49H17.6484V40ZM23.0215 45.7773V45.9004C23.0215 46.3613 22.9668 46.7891 22.8574 47.1836C22.748 47.5742 22.5879 47.9141 22.377 48.2031C22.166 48.4922 21.9082 48.7168 21.6035 48.877C21.2988 49.0371 20.9492 49.1172 20.5547 49.1172C20.1523 49.1172 19.7988 49.0488 19.4941 48.9121C19.1934 48.7715 18.9395 48.5703 18.7324 48.3086C18.5254 48.0469 18.3594 47.7305 18.2344 47.3594C18.1133 46.9883 18.0293 46.5703 17.9824 46.1055V45.5664C18.0293 45.0977 18.1133 44.6777 18.2344 44.3066C18.3594 43.9355 18.5254 43.6191 18.7324 43.3574C18.9395 43.0918 19.1934 42.8906 19.4941 42.7539C19.7949 42.6133 20.1445 42.543 20.543 42.543C20.9414 42.543 21.2949 42.6211 21.6035 42.7773C21.9121 42.9297 22.1699 43.1484 22.377 43.4336C22.5879 43.7188 22.748 44.0605 22.8574 44.459C22.9668 44.8535 23.0215 45.293 23.0215 45.7773ZM21.9316 45.9004V45.7773C21.9316 45.4609 21.9023 45.1641 21.8438 44.8867C21.7852 44.6055 21.6914 44.3594 21.5625 44.1484C21.4336 43.9336 21.2637 43.7656 21.0527 43.6445C20.8418 43.5195 20.582 43.457 20.2734 43.457C20 43.457 19.7617 43.5039 19.5586 43.5977C19.3594 43.6914 19.1895 43.8184 19.0488 43.9785C18.9082 44.1348 18.793 44.3145 18.7031 44.5176C18.6172 44.7168 18.5527 44.9238 18.5098 45.1387V46.5508C18.5723 46.8242 18.6738 47.0879 18.8145 47.3418C18.959 47.5918 19.1504 47.7969 19.3887 47.957C19.6309 48.1172 19.9297 48.1973 20.2852 48.1973C20.5781 48.1973 20.8281 48.1387 21.0352 48.0215C21.2461 47.9004 21.416 47.7344 21.5449 47.5234C21.6777 47.3125 21.7754 47.0684 21.8379 46.791C21.9004 46.5137 21.9316 46.2168 21.9316 45.9004ZM28.084 47.3184C28.084 47.1621 28.0488 47.0176 27.9785 46.8848C27.9121 46.748 27.7734 46.625 27.5625 46.5156C27.3555 46.4023 27.043 46.3047 26.625 46.2227C26.2734 46.1484 25.9551 46.0605 25.6699 45.959C25.3887 45.8574 25.1484 45.7344 24.9492 45.5898C24.7539 45.4453 24.6035 45.2754 24.498 45.0801C24.3926 44.8848 24.3398 44.6562 24.3398 44.3945C24.3398 44.1445 24.3945 43.9082 24.5039 43.6855C24.6172 43.4629 24.7754 43.2656 24.9785 43.0938C25.1855 42.9219 25.4336 42.7871 25.7227 42.6895C26.0117 42.5918 26.334 42.543 26.6895 42.543C27.1973 42.543 27.6309 42.6328 27.9902 42.8125C28.3496 42.9922 28.625 43.2324 28.8164 43.5332C29.0078 43.8301 29.1035 44.1602 29.1035 44.5234H28.0195C28.0195 44.3477 27.9668 44.1777 27.8613 44.0137C27.7598 43.8457 27.6094 43.707 27.4102 43.5977C27.2148 43.4883 26.9746 43.4336 26.6895 43.4336C26.3887 43.4336 26.1445 43.4805 25.957 43.5742C25.7734 43.6641 25.6387 43.7793 25.5527 43.9199C25.4707 44.0605 25.4297 44.209 25.4297 44.3652C25.4297 44.4824 25.4492 44.5879 25.4883 44.6816C25.5312 44.7715 25.6055 44.8555 25.7109 44.9336C25.8164 45.0078 25.9648 45.0781 26.1562 45.1445C26.3477 45.2109 26.5918 45.2773 26.8887 45.3438C27.4082 45.4609 27.8359 45.6016 28.1719 45.7656C28.5078 45.9297 28.7578 46.1309 28.9219 46.3691C29.0859 46.6074 29.168 46.8965 29.168 47.2363C29.168 47.5137 29.1094 47.7676 28.9922 47.998C28.8789 48.2285 28.7129 48.4277 28.4941 48.5957C28.2793 48.7598 28.0215 48.8887 27.7207 48.9824C27.4238 49.0723 27.0898 49.1172 26.7188 49.1172C26.1602 49.1172 25.6875 49.0176 25.3008 48.8184C24.9141 48.6191 24.6211 48.3613 24.4219 48.0449C24.2227 47.7285 24.123 47.3945 24.123 47.043H25.2129C25.2285 47.3398 25.3145 47.5762 25.4707 47.752C25.627 47.9238 25.8184 48.0469 26.0449 48.1211C26.2715 48.1914 26.4961 48.2266 26.7188 48.2266C27.0156 48.2266 27.2637 48.1875 27.4629 48.1094C27.666 48.0312 27.8203 47.9238 27.9258 47.7871C28.0312 47.6504 28.084 47.4941 28.084 47.3184ZM31.7695 42.6602V49H30.6797V42.6602H31.7695ZM30.5977 40.9785C30.5977 40.8027 30.6504 40.6543 30.7559 40.5332C30.8652 40.4121 31.0254 40.3516 31.2363 40.3516C31.4434 40.3516 31.6016 40.4121 31.7109 40.5332C31.8242 40.6543 31.8809 40.8027 31.8809 40.9785C31.8809 41.1465 31.8242 41.291 31.7109 41.4121C31.6016 41.5293 31.4434 41.5879 31.2363 41.5879C31.0254 41.5879 30.8652 41.5293 30.7559 41.4121C30.6504 41.291 30.5977 41.1465 30.5977 40.9785ZM36.1641 42.6602V43.4922H32.7363V42.6602H36.1641ZM33.8965 41.1191H34.9805V47.4297C34.9805 47.6445 35.0137 47.8066 35.0801 47.916C35.1465 48.0254 35.2324 48.0977 35.3379 48.1328C35.4434 48.168 35.5566 48.1855 35.6777 48.1855C35.7676 48.1855 35.8613 48.1777 35.959 48.1621C36.0605 48.1426 36.1367 48.127 36.1875 48.1152L36.1934 49C36.1074 49.0273 35.9941 49.0527 35.8535 49.0762C35.7168 49.1035 35.5508 49.1172 35.3555 49.1172C35.0898 49.1172 34.8457 49.0645 34.623 48.959C34.4004 48.8535 34.2227 48.6777 34.0898 48.4316C33.9609 48.1816 33.8965 47.8457 33.8965 47.4238V41.1191ZM40.0664 49.1172C39.625 49.1172 39.2246 49.043 38.8652 48.8945C38.5098 48.7422 38.2031 48.5293 37.9453 48.2559C37.6914 47.9824 37.4961 47.6582 37.3594 47.2832C37.2227 46.9082 37.1543 46.498 37.1543 46.0527V45.8066C37.1543 45.291 37.2305 44.832 37.3828 44.4297C37.5352 44.0234 37.7422 43.6797 38.0039 43.3984C38.2656 43.1172 38.5625 42.9043 38.8945 42.7598C39.2266 42.6152 39.5703 42.543 39.9258 42.543C40.3789 42.543 40.7695 42.6211 41.0977 42.7773C41.4297 42.9336 41.7012 43.1523 41.9121 43.4336C42.123 43.7109 42.2793 44.0391 42.3809 44.418C42.4824 44.793 42.5332 45.2031 42.5332 45.6484V46.1348H37.7988V45.25H41.4492V45.168C41.4336 44.8867 41.375 44.6133 41.2734 44.3477C41.1758 44.082 41.0195 43.8633 40.8047 43.6914C40.5898 43.5195 40.2969 43.4336 39.9258 43.4336C39.6797 43.4336 39.4531 43.4863 39.2461 43.5918C39.0391 43.6934 38.8613 43.8457 38.7129 44.0488C38.5645 44.252 38.4492 44.5 38.3672 44.793C38.2852 45.0859 38.2441 45.4238 38.2441 45.8066V46.0527C38.2441 46.3535 38.2852 46.6367 38.3672 46.9023C38.4531 47.1641 38.5762 47.3945 38.7363 47.5938C38.9004 47.793 39.0977 47.9492 39.3281 48.0625C39.5625 48.1758 39.8281 48.2324 40.125 48.2324C40.5078 48.2324 40.832 48.1543 41.0977 47.998C41.3633 47.8418 41.5957 47.6328 41.7949 47.3711L42.4512 47.8926C42.3145 48.0996 42.1406 48.2969 41.9297 48.4844C41.7188 48.6719 41.459 48.8242 41.1504 48.9414C40.8457 49.0586 40.4844 49.1172 40.0664 49.1172ZM48.1523 40.4688V49H47.0215V40.4688H48.1523ZM54.5859 48.0215L56.7539 49.7383L55.9922 50.4414L53.8594 48.748L54.5859 48.0215ZM56.7246 44.4648V45.0039C56.7246 45.6445 56.6445 46.2188 56.4844 46.7266C56.3242 47.2344 56.0938 47.666 55.793 48.0215C55.4922 48.377 55.1309 48.6484 54.709 48.8359C54.291 49.0234 53.8223 49.1172 53.3027 49.1172C52.7988 49.1172 52.3359 49.0234 51.9141 48.8359C51.4961 48.6484 51.1328 48.377 50.8242 48.0215C50.5195 47.666 50.2832 47.2344 50.1152 46.7266C49.9473 46.2188 49.8633 45.6445 49.8633 45.0039V44.4648C49.8633 43.8242 49.9453 43.252 50.1094 42.748C50.2773 42.2402 50.5137 41.8086 50.8184 41.4531C51.123 41.0938 51.4844 40.8203 51.9023 40.6328C52.3242 40.4453 52.7871 40.3516 53.291 40.3516C53.8105 40.3516 54.2812 40.4453 54.7031 40.6328C55.125 40.8203 55.4863 41.0938 55.7871 41.4531C56.0879 41.8086 56.3184 42.2402 56.4785 42.748C56.6426 43.252 56.7246 43.8242 56.7246 44.4648ZM55.6055 45.0039V44.4531C55.6055 43.9453 55.5527 43.4961 55.4473 43.1055C55.3457 42.7148 55.1953 42.3867 54.9961 42.1211C54.7969 41.8555 54.5547 41.6543 54.2695 41.5176C53.9844 41.3809 53.6582 41.3125 53.291 41.3125C52.9434 41.3125 52.627 41.3809 52.3418 41.5176C52.0605 41.6543 51.8184 41.8555 51.6152 42.1211C51.4121 42.3867 51.2559 42.7148 51.1465 43.1055C51.0371 43.4961 50.9824 43.9453 50.9824 44.4531V45.0039C50.9824 45.5156 51.0371 45.9688 51.1465 46.3633C51.2559 46.7539 51.4121 47.084 51.6152 47.3535C51.8223 47.6191 52.0684 47.8203 52.3535 47.957C52.6387 48.0938 52.9551 48.1621 53.3027 48.1621C53.6699 48.1621 53.9961 48.0938 54.2812 47.957C54.5664 47.8203 54.8066 47.6191 55.002 47.3535C55.2012 47.084 55.3516 46.7539 55.4531 46.3633C55.5547 45.9688 55.6055 45.5156 55.6055 45.0039Z" fill="#FCFEFF"/>
</svg>
