<svg width="57" height="11" viewBox="0 0 57 11" fill="none" xmlns="http://www.w3.org/2000/svg">
<path d="M3.23438 6.42188L4.92773 0.46875H5.74805L5.27344 2.7832L3.45117 9H2.63672L3.23438 6.42188ZM1.48242 0.46875L2.83008 6.30469L3.23438 9H2.42578L0.357422 0.46875H1.48242ZM7.93945 6.29883L9.25781 0.46875H10.3887L8.32617 9H7.51758L7.93945 6.29883ZM5.87109 0.46875L7.51758 6.42188L8.11523 9H7.30078L5.54297 2.7832L5.0625 0.46875H5.87109ZM13.9219 9.11719C13.4805 9.11719 13.0801 9.04297 12.7207 8.89453C12.3652 8.74219 12.0586 8.5293 11.8008 8.25586C11.5469 7.98242 11.3516 7.6582 11.2148 7.2832C11.0781 6.9082 11.0098 6.49805 11.0098 6.05273V5.80664C11.0098 5.29102 11.0859 4.83203 11.2383 4.42969C11.3906 4.02344 11.5977 3.67969 11.8594 3.39844C12.1211 3.11719 12.418 2.9043 12.75 2.75977C13.082 2.61523 13.4258 2.54297 13.7812 2.54297C14.2344 2.54297 14.625 2.62109 14.9531 2.77734C15.2852 2.93359 15.5566 3.15234 15.7676 3.43359C15.9785 3.71094 16.1348 4.03906 16.2363 4.41797C16.3379 4.79297 16.3887 5.20312 16.3887 5.64844V6.13477H11.6543V5.25H15.3047V5.16797C15.2891 4.88672 15.2305 4.61328 15.1289 4.34766C15.0312 4.08203 14.875 3.86328 14.6602 3.69141C14.4453 3.51953 14.1523 3.43359 13.7812 3.43359C13.5352 3.43359 13.3086 3.48633 13.1016 3.5918C12.8945 3.69336 12.7168 3.8457 12.5684 4.04883C12.4199 4.25195 12.3047 4.5 12.2227 4.79297C12.1406 5.08594 12.0996 5.42383 12.0996 5.80664V6.05273C12.0996 6.35352 12.1406 6.63672 12.2227 6.90234C12.3086 7.16406 12.4316 7.39453 12.5918 7.59375C12.7559 7.79297 12.9531 7.94922 13.1836 8.0625C13.418 8.17578 13.6836 8.23242 13.9805 8.23242C14.3633 8.23242 14.6875 8.1543 14.9531 7.99805C15.2188 7.8418 15.4512 7.63281 15.6504 7.37109L16.3066 7.89258C16.1699 8.09961 15.9961 8.29688 15.7852 8.48438C15.5742 8.67188 15.3145 8.82422 15.0059 8.94141C14.7012 9.05859 14.3398 9.11719 13.9219 9.11719ZM17.6484 0H18.7383V7.76953L18.6445 9H17.6484V0ZM23.0215 5.77734V5.90039C23.0215 6.36133 22.9668 6.78906 22.8574 7.18359C22.748 7.57422 22.5879 7.91406 22.377 8.20312C22.166 8.49219 21.9082 8.7168 21.6035 8.87695C21.2988 9.03711 20.9492 9.11719 20.5547 9.11719C20.1523 9.11719 19.7988 9.04883 19.4941 8.91211C19.1934 8.77148 18.9395 8.57031 18.7324 8.30859C18.5254 8.04688 18.3594 7.73047 18.2344 7.35938C18.1133 6.98828 18.0293 6.57031 17.9824 6.10547V5.56641C18.0293 5.09766 18.1133 4.67773 18.2344 4.30664C18.3594 3.93555 18.5254 3.61914 18.7324 3.35742C18.9395 3.0918 19.1934 2.89062 19.4941 2.75391C19.7949 2.61328 20.1445 2.54297 20.543 2.54297C20.9414 2.54297 21.2949 2.62109 21.6035 2.77734C21.9121 2.92969 22.1699 3.14844 22.377 3.43359C22.5879 3.71875 22.748 4.06055 22.8574 4.45898C22.9668 4.85352 23.0215 5.29297 23.0215 5.77734ZM21.9316 5.90039V5.77734C21.9316 5.46094 21.9023 5.16406 21.8438 4.88672C21.7852 4.60547 21.6914 4.35938 21.5625 4.14844C21.4336 3.93359 21.2637 3.76562 21.0527 3.64453C20.8418 3.51953 20.582 3.45703 20.2734 3.45703C20 3.45703 19.7617 3.50391 19.5586 3.59766C19.3594 3.69141 19.1895 3.81836 19.0488 3.97852C18.9082 4.13477 18.793 4.31445 18.7031 4.51758C18.6172 4.7168 18.5527 4.92383 18.5098 5.13867V6.55078C18.5723 6.82422 18.6738 7.08789 18.8145 7.3418C18.959 7.5918 19.1504 7.79688 19.3887 7.95703C19.6309 8.11719 19.9297 8.19727 20.2852 8.19727C20.5781 8.19727 20.8281 8.13867 21.0352 8.02148C21.2461 7.90039 21.416 7.73438 21.5449 7.52344C21.6777 7.3125 21.7754 7.06836 21.8379 6.79102C21.9004 6.51367 21.9316 6.2168 21.9316 5.90039ZM28.084 7.31836C28.084 7.16211 28.0488 7.01758 27.9785 6.88477C27.9121 6.74805 27.7734 6.625 27.5625 6.51562C27.3555 6.40234 27.043 6.30469 26.625 6.22266C26.2734 6.14844 25.9551 6.06055 25.6699 5.95898C25.3887 5.85742 25.1484 5.73438 24.9492 5.58984C24.7539 5.44531 24.6035 5.27539 24.498 5.08008C24.3926 4.88477 24.3398 4.65625 24.3398 4.39453C24.3398 4.14453 24.3945 3.9082 24.5039 3.68555C24.6172 3.46289 24.7754 3.26562 24.9785 3.09375C25.1855 2.92188 25.4336 2.78711 25.7227 2.68945C26.0117 2.5918 26.334 2.54297 26.6895 2.54297C27.1973 2.54297 27.6309 2.63281 27.9902 2.8125C28.3496 2.99219 28.625 3.23242 28.8164 3.5332C29.0078 3.83008 29.1035 4.16016 29.1035 4.52344H28.0195C28.0195 4.34766 27.9668 4.17773 27.8613 4.01367C27.7598 3.8457 27.6094 3.70703 27.4102 3.59766C27.2148 3.48828 26.9746 3.43359 26.6895 3.43359C26.3887 3.43359 26.1445 3.48047 25.957 3.57422C25.7734 3.66406 25.6387 3.7793 25.5527 3.91992C25.4707 4.06055 25.4297 4.20898 25.4297 4.36523C25.4297 4.48242 25.4492 4.58789 25.4883 4.68164C25.5312 4.77148 25.6055 4.85547 25.7109 4.93359C25.8164 5.00781 25.9648 5.07812 26.1562 5.14453C26.3477 5.21094 26.5918 5.27734 26.8887 5.34375C27.4082 5.46094 27.8359 5.60156 28.1719 5.76562C28.5078 5.92969 28.7578 6.13086 28.9219 6.36914C29.0859 6.60742 29.168 6.89648 29.168 7.23633C29.168 7.51367 29.1094 7.76758 28.9922 7.99805C28.8789 8.22852 28.7129 8.42773 28.4941 8.5957C28.2793 8.75977 28.0215 8.88867 27.7207 8.98242C27.4238 9.07227 27.0898 9.11719 26.7188 9.11719C26.1602 9.11719 25.6875 9.01758 25.3008 8.81836C24.9141 8.61914 24.6211 8.36133 24.4219 8.04492C24.2227 7.72852 24.123 7.39453 24.123 7.04297H25.2129C25.2285 7.33984 25.3145 7.57617 25.4707 7.75195C25.627 7.92383 25.8184 8.04688 26.0449 8.12109C26.2715 8.19141 26.4961 8.22656 26.7188 8.22656C27.0156 8.22656 27.2637 8.1875 27.4629 8.10938C27.666 8.03125 27.8203 7.92383 27.9258 7.78711C28.0312 7.65039 28.084 7.49414 28.084 7.31836ZM31.7695 2.66016V9H30.6797V2.66016H31.7695ZM30.5977 0.978516C30.5977 0.802734 30.6504 0.654297 30.7559 0.533203C30.8652 0.412109 31.0254 0.351562 31.2363 0.351562C31.4434 0.351562 31.6016 0.412109 31.7109 0.533203C31.8242 0.654297 31.8809 0.802734 31.8809 0.978516C31.8809 1.14648 31.8242 1.29102 31.7109 1.41211C31.6016 1.5293 31.4434 1.58789 31.2363 1.58789C31.0254 1.58789 30.8652 1.5293 30.7559 1.41211C30.6504 1.29102 30.5977 1.14648 30.5977 0.978516ZM36.1641 2.66016V3.49219H32.7363V2.66016H36.1641ZM33.8965 1.11914H34.9805V7.42969C34.9805 7.64453 35.0137 7.80664 35.0801 7.91602C35.1465 8.02539 35.2324 8.09766 35.3379 8.13281C35.4434 8.16797 35.5566 8.18555 35.6777 8.18555C35.7676 8.18555 35.8613 8.17773 35.959 8.16211C36.0605 8.14258 36.1367 8.12695 36.1875 8.11523L36.1934 9C36.1074 9.02734 35.9941 9.05273 35.8535 9.07617C35.7168 9.10352 35.5508 9.11719 35.3555 9.11719C35.0898 9.11719 34.8457 9.06445 34.623 8.95898C34.4004 8.85352 34.2227 8.67773 34.0898 8.43164C33.9609 8.18164 33.8965 7.8457 33.8965 7.42383V1.11914ZM40.0664 9.11719C39.625 9.11719 39.2246 9.04297 38.8652 8.89453C38.5098 8.74219 38.2031 8.5293 37.9453 8.25586C37.6914 7.98242 37.4961 7.6582 37.3594 7.2832C37.2227 6.9082 37.1543 6.49805 37.1543 6.05273V5.80664C37.1543 5.29102 37.2305 4.83203 37.3828 4.42969C37.5352 4.02344 37.7422 3.67969 38.0039 3.39844C38.2656 3.11719 38.5625 2.9043 38.8945 2.75977C39.2266 2.61523 39.5703 2.54297 39.9258 2.54297C40.3789 2.54297 40.7695 2.62109 41.0977 2.77734C41.4297 2.93359 41.7012 3.15234 41.9121 3.43359C42.123 3.71094 42.2793 4.03906 42.3809 4.41797C42.4824 4.79297 42.5332 5.20312 42.5332 5.64844V6.13477H37.7988V5.25H41.4492V5.16797C41.4336 4.88672 41.375 4.61328 41.2734 4.34766C41.1758 4.08203 41.0195 3.86328 40.8047 3.69141C40.5898 3.51953 40.2969 3.43359 39.9258 3.43359C39.6797 3.43359 39.4531 3.48633 39.2461 3.5918C39.0391 3.69336 38.8613 3.8457 38.7129 4.04883C38.5645 4.25195 38.4492 4.5 38.3672 4.79297C38.2852 5.08594 38.2441 5.42383 38.2441 5.80664V6.05273C38.2441 6.35352 38.2852 6.63672 38.3672 6.90234C38.4531 7.16406 38.5762 7.39453 38.7363 7.59375C38.9004 7.79297 39.0977 7.94922 39.3281 8.0625C39.5625 8.17578 39.8281 8.23242 40.125 8.23242C40.5078 8.23242 40.832 8.1543 41.0977 7.99805C41.3633 7.8418 41.5957 7.63281 41.7949 7.37109L42.4512 7.89258C42.3145 8.09961 42.1406 8.29688 41.9297 8.48438C41.7188 8.67188 41.459 8.82422 41.1504 8.94141C40.8457 9.05859 40.4844 9.11719 40.0664 9.11719ZM48.1523 0.46875V9H47.0215V0.46875H48.1523ZM54.5859 8.02148L56.7539 9.73828L55.9922 10.4414L53.8594 8.74805L54.5859 8.02148ZM56.7246 4.46484V5.00391C56.7246 5.64453 56.6445 6.21875 56.4844 6.72656C56.3242 7.23438 56.0938 7.66602 55.793 8.02148C55.4922 8.37695 55.1309 8.64844 54.709 8.83594C54.291 9.02344 53.8223 9.11719 53.3027 9.11719C52.7988 9.11719 52.3359 9.02344 51.9141 8.83594C51.4961 8.64844 51.1328 8.37695 50.8242 8.02148C50.5195 7.66602 50.2832 7.23438 50.1152 6.72656C49.9473 6.21875 49.8633 5.64453 49.8633 5.00391V4.46484C49.8633 3.82422 49.9453 3.25195 50.1094 2.74805C50.2773 2.24023 50.5137 1.80859 50.8184 1.45312C51.123 1.09375 51.4844 0.820312 51.9023 0.632812C52.3242 0.445312 52.7871 0.351562 53.291 0.351562C53.8105 0.351562 54.2812 0.445312 54.7031 0.632812C55.125 0.820312 55.4863 1.09375 55.7871 1.45312C56.0879 1.80859 56.3184 2.24023 56.4785 2.74805C56.6426 3.25195 56.7246 3.82422 56.7246 4.46484ZM55.6055 5.00391V4.45312C55.6055 3.94531 55.5527 3.49609 55.4473 3.10547C55.3457 2.71484 55.1953 2.38672 54.9961 2.12109C54.7969 1.85547 54.5547 1.6543 54.2695 1.51758C53.9844 1.38086 53.6582 1.3125 53.291 1.3125C52.9434 1.3125 52.627 1.38086 52.3418 1.51758C52.0605 1.6543 51.8184 1.85547 51.6152 2.12109C51.4121 2.38672 51.2559 2.71484 51.1465 3.10547C51.0371 3.49609 50.9824 3.94531 50.9824 4.45312V5.00391C50.9824 5.51562 51.0371 5.96875 51.1465 6.36328C51.2559 6.75391 51.4121 7.08398 51.6152 7.35352C51.8223 7.61914 52.0684 7.82031 52.3535 7.95703C52.6387 8.09375 52.9551 8.16211 53.3027 8.16211C53.6699 8.16211 53.9961 8.09375 54.2812 7.95703C54.5664 7.82031 54.8066 7.61914 55.002 7.35352C55.2012 7.08398 55.3516 6.75391 55.4531 6.36328C55.5547 5.96875 55.6055 5.51562 55.6055 5.00391Z" fill="#FCFEFF"/>
</svg>
